dosis_light.sfdir
StartChar: exclam
Encoding: 33 33 214
Width: 198
Flags: W
LayerCount: 2
Back
Fore
SplineSet
131 712 m 0,0,1
 131 581 131 581 125 443 c 128,-1,2
 119 305 119 305 119 174 c 0,3,4
 119 165 119 165 112 160 c 128,-1,5
 105 155 105 155 98 155 c 0,6,7
 90 155 90 155 84 160 c 128,-1,8
 78 165 78 165 78 174 c 0,9,10
 78 305 78 305 72.5 443 c 128,-1,11
 67 581 67 581 67 712 c 0,12,13
 67 729 67 729 75.5 737.5 c 128,-1,14
 84 746 84 746 98 746 c 256,15,16
 112 746 112 746 121.5 737.5 c 128,-1,17
 131 729 131 729 131 712 c 0,0,1
99 76 m 256,18,19
 116 76 116 76 127.5 64 c 128,-1,20
 139 52 139 52 139 35 c 256,21,22
 139 18 139 18 127.5 6 c 128,-1,23
 116 -6 116 -6 99 -6 c 256,24,25
 82 -6 82 -6 70.5 6 c 128,-1,26
 59 18 59 18 59 35 c 256,27,28
 59 52 59 52 70.5 64 c 128,-1,29
 82 76 82 76 99 76 c 256,18,19
EndSplineSet
EndChar
StartChar: quotedbl
Encoding: 34 34 331
Width: 262
Flags: W
LayerCount: 2
Back
Fore
SplineSet
68 768 m 256,0,1
 77 768 77 768 87 762.5 c 128,-1,2
 97 757 97 757 97 749 c 2,3,-1
 87 599 l 2,4,5
 87 591 87 591 82.5 584.5 c 128,-1,6
 78 578 78 578 68 578 c 256,7,8
 58 578 58 578 54.5 584.5 c 128,-1,9
 51 591 51 591 51 599 c 2,10,-1
 41 749 l 2,11,12
 41 757 41 757 50 762.5 c 128,-1,13
 59 768 59 768 68 768 c 256,0,1
193 768 m 256,14,15
 202 768 202 768 211.5 762.5 c 128,-1,16
 221 757 221 757 221 749 c 2,17,-1
 211 599 l 2,18,19
 211 591 211 591 206.5 584.5 c 128,-1,20
 202 578 202 578 193 578 c 0,21,22
 183 578 183 578 179 584.5 c 128,-1,23
 175 591 175 591 175 599 c 2,24,-1
 165 749 l 2,25,26
 165 757 165 757 174.5 762.5 c 128,-1,27
 184 768 184 768 193 768 c 256,14,15
EndSplineSet
EndChar
StartChar: numbersign
Encoding: 35 35 290
Width: 563
Flags: W
LayerCount: 2
Back
Fore
SplineSet
238 713 m 0,0,1
 250 713 250 713 256.5 706 c 128,-1,2
 263 699 263 699 263 689 c 2,3,-1
 235 510 l 1,4,-1
 366 510 l 1,5,-1
 396 700 l 2,6,7
 398 713 398 713 414 713 c 0,8,9
 426 713 426 713 432.5 706 c 128,-1,10
 439 699 439 699 439 689 c 2,11,-1
 411 510 l 1,12,-1
 514 510 l 2,13,14
 521 510 521 510 528 504.5 c 128,-1,15
 535 499 535 499 535 490 c 0,16,17
 535 482 535 482 530 476 c 128,-1,18
 525 470 525 470 519 470 c 2,19,-1
 405 470 l 1,20,-1
 378 301 l 1,21,-1
 481 301 l 2,22,23
 489 301 489 301 496 295.5 c 128,-1,24
 503 290 503 290 503 280 c 0,25,26
 503 272 503 272 498 266.5 c 128,-1,27
 493 261 493 261 486 261 c 2,28,-1
 371 261 l 1,29,-1
 340 52 l 2,30,31
 338 44 338 44 332 39.5 c 128,-1,32
 326 35 326 35 318 35 c 0,33,34
 308 35 308 35 301.5 41 c 128,-1,35
 295 47 295 47 295 59 c 2,36,-1
 326 261 l 1,37,-1
 196 261 l 1,38,-1
 164 53 l 2,39,40
 162 43 162 43 156 39 c 128,-1,41
 150 35 150 35 144 35 c 0,42,43
 134 35 134 35 127 41 c 128,-1,44
 120 47 120 47 120 59 c 2,45,-1
 150 261 l 1,46,-1
 50 261 l 2,47,48
 29 261 29 261 29 281 c 0,49,50
 29 289 29 289 33.5 295 c 128,-1,51
 38 301 38 301 45 301 c 2,52,-1
 158 301 l 1,53,-1
 183 470 l 1,54,-1
 82 470 l 2,55,56
 61 470 61 470 61 490 c 0,57,58
 61 498 61 498 65.5 504 c 128,-1,59
 70 510 70 510 77 510 c 2,60,-1
 190 510 l 1,61,-1
 220 700 l 2,62,63
 222 713 222 713 238 713 c 0,0,1
203 301 m 1,64,-1
 333 301 l 1,65,-1
 359 470 l 1,66,-1
 229 470 l 1,67,-1
 203 301 l 1,64,-1
EndSplineSet
EndChar
StartChar: dollar
Encoding: 36 36 190
Width: 489
Flags: W
LayerCount: 2
Back
Fore
SplineSet
237 4 m 1,0,1
 189 4 189 4 152.5 16 c 128,-1,2
 116 28 116 28 91.5 44.5 c 128,-1,3
 67 61 67 61 54 78.5 c 128,-1,4
 41 96 41 96 41 108 c 0,5,6
 41 118 41 118 48.5 127 c 128,-1,7
 56 136 56 136 64 136 c 256,8,9
 72 136 72 136 81 123 c 128,-1,10
 90 110 90 110 108 94.5 c 128,-1,11
 126 79 126 79 156.5 65.5 c 128,-1,12
 187 52 187 52 237 52 c 1,13,-1
 237 367 l 1,14,15
 204 378 204 378 172.5 390 c 128,-1,16
 141 402 141 402 115.5 422 c 128,-1,17
 90 442 90 442 74.5 473 c 128,-1,18
 59 504 59 504 59 552 c 0,19,20
 59 599 59 599 75 630.5 c 128,-1,21
 91 662 91 662 116.5 681 c 128,-1,22
 142 700 142 700 174 708.5 c 128,-1,23
 206 717 206 717 237 719 c 1,24,-1
 237 750 l 2,25,26
 237 757 237 757 243 762.5 c 128,-1,27
 249 768 249 768 258 768 c 0,28,29
 266 768 266 768 272 762.5 c 128,-1,30
 278 757 278 757 278 750 c 2,31,-1
 278 720 l 1,32,33
 306 719 306 719 332.5 714 c 128,-1,34
 359 709 359 709 379.5 701.5 c 128,-1,35
 400 694 400 694 412.5 684 c 128,-1,36
 425 674 425 674 425 664 c 0,37,38
 425 656 425 656 418.5 645.5 c 128,-1,39
 412 635 412 635 402 635 c 0,40,41
 396 635 396 635 387 640 c 128,-1,42
 378 645 378 645 363.5 652 c 128,-1,43
 349 659 349 659 328 664.5 c 128,-1,44
 307 670 307 670 278 672 c 1,45,-1
 278 406 l 1,46,47
 309 395 309 395 338.5 380.5 c 128,-1,48
 368 366 368 366 391 343 c 128,-1,49
 414 320 414 320 428.5 285 c 128,-1,50
 443 250 443 250 443 198 c 0,51,52
 443 153 443 153 431 119 c 128,-1,53
 419 85 419 85 397 61.5 c 128,-1,54
 375 38 375 38 345 24 c 128,-1,55
 315 10 315 10 278 6 c 1,56,-1
 278 -34 l 2,57,58
 278 -41 278 -41 272 -46.5 c 128,-1,59
 266 -52 266 -52 258 -52 c 0,60,61
 249 -52 249 -52 243 -46.5 c 128,-1,62
 237 -41 237 -41 237 -34 c 2,63,-1
 237 4 l 1,0,1
394 194 m 0,64,65
 394 230 394 230 384.5 255.5 c 128,-1,66
 375 281 375 281 359 299 c 128,-1,67
 343 317 343 317 322 329.5 c 128,-1,68
 301 342 301 342 277 352 c 1,69,-1
 277 55 l 1,70,71
 334 63 334 63 364 98 c 128,-1,72
 394 133 394 133 394 194 c 0,64,65
107 557 m 0,73,74
 107 524 107 524 118 502 c 128,-1,75
 129 480 129 480 147 465 c 128,-1,76
 165 450 165 450 189 439.5 c 128,-1,77
 213 429 213 429 239 420 c 1,78,-1
 239 672 l 1,79,80
 213 670 213 670 189.5 663.5 c 128,-1,81
 166 657 166 657 147.5 643.5 c 128,-1,82
 129 630 129 630 118 609 c 128,-1,83
 107 588 107 588 107 557 c 0,73,74
EndSplineSet
EndChar
StartChar: percent
Encoding: 37 37 319
Width: 748
Flags: W
LayerCount: 2
Back
Fore
SplineSet
162 357 m 256,0,1
 137 357 137 357 115 363 c 128,-1,2
 93 369 93 369 77 382 c 128,-1,3
 61 395 61 395 52 416 c 128,-1,4
 43 437 43 437 43 467 c 2,5,-1
 43 621 l 2,6,7
 43 651 43 651 52 671.5 c 128,-1,8
 61 692 61 692 77 705.5 c 128,-1,9
 93 719 93 719 115 725 c 128,-1,10
 137 731 137 731 162 731 c 256,11,12
 187 731 187 731 209 725 c 128,-1,13
 231 719 231 719 247 705.5 c 128,-1,14
 263 692 263 692 272 671.5 c 128,-1,15
 281 651 281 651 281 621 c 2,16,-1
 281 467 l 2,17,18
 281 437 281 437 272 416 c 128,-1,19
 263 395 263 395 247 382 c 128,-1,20
 231 369 231 369 209 363 c 128,-1,21
 187 357 187 357 162 357 c 256,0,1
240 621 m 2,22,23
 240 659 240 659 219.5 676 c 128,-1,24
 199 693 199 693 162 693 c 0,25,26
 126 693 126 693 105.5 676 c 128,-1,27
 85 659 85 659 85 621 c 2,28,-1
 85 467 l 2,29,30
 85 429 85 429 105.5 412 c 128,-1,31
 126 395 126 395 162 395 c 0,32,33
 199 395 199 395 219.5 412 c 128,-1,34
 240 429 240 429 240 467 c 2,35,-1
 240 621 l 2,22,23
586 -3 m 256,36,37
 561 -3 561 -3 539 3 c 128,-1,38
 517 9 517 9 501 22 c 128,-1,39
 485 35 485 35 476 56 c 128,-1,40
 467 77 467 77 467 107 c 2,41,-1
 467 261 l 2,42,43
 467 291 467 291 476 311.5 c 128,-1,44
 485 332 485 332 501 345.5 c 128,-1,45
 517 359 517 359 539 365 c 128,-1,46
 561 371 561 371 586 371 c 256,47,48
 611 371 611 371 633 365 c 128,-1,49
 655 359 655 359 671 345.5 c 128,-1,50
 687 332 687 332 696 311.5 c 128,-1,51
 705 291 705 291 705 261 c 2,52,-1
 705 107 l 2,53,54
 705 77 705 77 696 56 c 128,-1,55
 687 35 687 35 671 22 c 128,-1,56
 655 9 655 9 633 3 c 128,-1,57
 611 -3 611 -3 586 -3 c 256,36,37
664 261 m 2,58,59
 664 299 664 299 643.5 316 c 128,-1,60
 623 333 623 333 586 333 c 0,61,62
 550 333 550 333 529.5 316 c 128,-1,63
 509 299 509 299 509 261 c 2,64,-1
 509 107 l 2,65,66
 509 69 509 69 529.5 52 c 128,-1,67
 550 35 550 35 586 35 c 0,68,69
 623 35 623 35 643.5 52 c 128,-1,70
 664 69 664 69 664 107 c 2,71,-1
 664 261 l 2,58,59
569 768 m 0,72,73
 577 768 577 768 584.5 762 c 128,-1,74
 592 756 592 756 592 745 c 0,75,76
 592 740 592 740 589 734 c 2,77,-1
 205 -10 l 2,78,79
 199 -23 199 -23 185 -23 c 0,80,81
 177 -23 177 -23 170.5 -17.5 c 128,-1,82
 164 -12 164 -12 164 -4 c 0,83,84
 164 3 164 3 166 7 c 2,85,-1
 553 758 l 2,86,87
 555 764 555 764 559.5 766 c 128,-1,88
 564 768 564 768 569 768 c 0,72,73
EndSplineSet
Ligature2: "'frac' Diagonal Fractions in Latin lookup 9 subtable" zero slash zero
EndChar
StartChar: ampersand
Encoding: 38 38 142
Width: 602
Flags: W
LayerCount: 2
Back
Fore
SplineSet
261 -10 m 0,0,1
 207 -10 207 -10 165.5 7 c 128,-1,2
 124 24 124 24 95.5 53 c 128,-1,3
 67 82 67 82 52.5 120.5 c 128,-1,4
 38 159 38 159 38 201 c 0,5,6
 38 240 38 240 50 271.5 c 128,-1,7
 62 303 62 303 81.5 327.5 c 128,-1,8
 101 352 101 352 125.5 370 c 128,-1,9
 150 388 150 388 176 399 c 1,10,11
 161 417 161 417 146 437 c 128,-1,12
 131 457 131 457 119.5 479 c 128,-1,13
 108 501 108 501 100.5 526 c 128,-1,14
 93 551 93 551 93 581 c 0,15,16
 93 621 93 621 107 652 c 128,-1,17
 121 683 121 683 144.5 704.5 c 128,-1,18
 168 726 168 726 199.5 737 c 128,-1,19
 231 748 231 748 266 748 c 0,20,21
 306 748 306 748 335.5 737 c 128,-1,22
 365 726 365 726 384 711.5 c 128,-1,23
 403 697 403 697 412 681.5 c 128,-1,24
 421 666 421 666 421 657 c 0,25,26
 421 647 421 647 414.5 640.5 c 128,-1,27
 408 634 408 634 398 634 c 0,28,29
 389 634 389 634 381.5 645 c 128,-1,30
 374 656 374 656 361 669.5 c 128,-1,31
 348 683 348 683 326.5 694 c 128,-1,32
 305 705 305 705 270 705 c 0,33,34
 212 705 212 705 179.5 670 c 128,-1,35
 147 635 147 635 147 577 c 0,36,37
 147 523 147 523 174.5 481.5 c 128,-1,38
 202 440 202 440 238 401 c 2,39,-1
 451 165 l 1,40,41
 474 217 474 217 480.5 270 c 128,-1,42
 487 323 487 323 488 360 c 0,43,44
 488 384 488 384 511 384 c 0,45,46
 532 384 532 384 532 355 c 0,47,48
 532 341 532 341 530.5 316 c 128,-1,49
 529 291 529 291 524 260 c 128,-1,50
 519 229 519 229 509.5 195.5 c 128,-1,51
 500 162 500 162 484 130 c 1,52,-1
 578 27 l 2,53,54
 584 20 584 20 584 15 c 0,55,56
 584 6 584 6 576.5 0 c 128,-1,57
 569 -6 569 -6 561 -6 c 256,58,59
 553 -6 553 -6 546 1 c 2,60,-1
 460 93 l 1,61,62
 430 48 430 48 381.5 19 c 128,-1,63
 333 -10 333 -10 261 -10 c 0,0,1
269 37 m 0,64,65
 329 37 329 37 367 62 c 128,-1,66
 405 87 405 87 428 126 c 1,67,-1
 205 366 l 1,68,69
 187 356 187 356 166.5 342.5 c 128,-1,70
 146 329 146 329 129 310.5 c 128,-1,71
 112 292 112 292 100.5 266 c 128,-1,72
 89 240 89 240 89 206 c 0,73,74
 89 173 89 173 101 142 c 128,-1,75
 113 111 113 111 135.5 88 c 128,-1,76
 158 65 158 65 191.5 51 c 128,-1,77
 225 37 225 37 269 37 c 0,64,65
EndSplineSet
EndChar
StartChar: quotesingle
Encoding: 39 39 338
Width: 138
Flags: W
LayerCount: 2
Back
Fore
SplineSet
68 768 m 256,0,1
 77 768 77 768 87 762.5 c 128,-1,2
 97 757 97 757 97 749 c 2,3,-1
 87 599 l 2,4,5
 87 591 87 591 82.5 584.5 c 128,-1,6
 78 578 78 578 68 578 c 256,7,8
 58 578 58 578 54.5 584.5 c 128,-1,9
 51 591 51 591 51 599 c 2,10,-1
 41 749 l 2,11,12
 41 757 41 757 50 762.5 c 128,-1,13
 59 768 59 768 68 768 c 256,0,1
EndSplineSet
EndChar
StartChar: parenleft
Encoding: 40 40 316
Width: 289
Flags: W
LayerCount: 2
Back
Fore
SplineSet
245 -20 m 0,0,1
 206 -20 206 -20 173 -9 c 128,-1,2
 140 2 140 2 116 23.5 c 128,-1,3
 92 45 92 45 78.5 76 c 128,-1,4
 65 107 65 107 65 147 c 2,5,-1
 65 587 l 2,6,7
 65 623 65 623 79 656 c 128,-1,8
 93 689 93 689 117 714 c 128,-1,9
 141 739 141 739 174 753.5 c 128,-1,10
 207 768 207 768 245 768 c 0,11,12
 257 768 257 768 263 761 c 128,-1,13
 269 754 269 754 269 745 c 0,14,15
 269 735 269 735 263 728 c 128,-1,16
 257 721 257 721 249 721 c 0,17,18
 217 721 217 721 192.5 709.5 c 128,-1,19
 168 698 168 698 151 679 c 128,-1,20
 134 660 134 660 125 636 c 128,-1,21
 116 612 116 612 116 587 c 2,22,-1
 116 147 l 2,23,24
 116 110 116 110 128.5 86.5 c 128,-1,25
 141 63 141 63 160.5 50 c 128,-1,26
 180 37 180 37 203.5 32 c 128,-1,27
 227 27 227 27 249 27 c 0,28,29
 261 27 261 27 265 19.5 c 128,-1,30
 269 12 269 12 269 4 c 0,31,32
 269 -20 269 -20 245 -20 c 0,0,1
EndSplineSet
EndChar
StartChar: parenright
Encoding: 41 41 317
Width: 289
Flags: W
LayerCount: 2
Back
Fore
SplineSet
45 -20 m 0,0,1
 20 -20 20 -20 20 4 c 0,2,3
 20 12 20 12 24.5 19.5 c 128,-1,4
 29 27 29 27 41 27 c 0,5,6
 63 27 63 27 86.5 32 c 128,-1,7
 110 37 110 37 129.5 50 c 128,-1,8
 149 63 149 63 161.5 86.5 c 128,-1,9
 174 110 174 110 174 147 c 2,10,-1
 174 587 l 2,11,12
 174 612 174 612 165 636 c 128,-1,13
 156 660 156 660 139 679 c 128,-1,14
 122 698 122 698 97.5 709.5 c 128,-1,15
 73 721 73 721 41 721 c 0,16,17
 33 721 33 721 26.5 728 c 128,-1,18
 20 735 20 735 20 745 c 0,19,20
 20 754 20 754 26.5 761 c 128,-1,21
 33 768 33 768 44 768 c 0,22,23
 83 768 83 768 116 753.5 c 128,-1,24
 149 739 149 739 173 714 c 128,-1,25
 197 689 197 689 210.5 656 c 128,-1,26
 224 623 224 623 224 587 c 2,27,-1
 224 147 l 2,28,29
 224 107 224 107 210.5 76 c 128,-1,30
 197 45 197 45 173.5 23.5 c 128,-1,31
 150 2 150 2 117 -9 c 128,-1,32
 84 -20 84 -20 45 -20 c 0,0,1
EndSplineSet
EndChar
StartChar: asterisk
Encoding: 42 42 152
Width: 422
Flags: W
LayerCount: 2
Back
Fore
SplineSet
326 429 m 2,0,1
 329 424 329 424 329 418 c 0,2,3
 329 408 329 408 321.5 401.5 c 128,-1,4
 314 395 314 395 304 395 c 0,5,6
 301 395 301 395 296.5 396.5 c 128,-1,7
 292 398 292 398 289 403 c 2,8,-1
 211 517 l 1,9,-1
 133 402 l 2,10,11
 127 395 127 395 119 395 c 256,12,13
 111 395 111 395 102 400.5 c 128,-1,14
 93 406 93 406 93 417 c 0,15,16
 93 423 93 423 98 430 c 2,17,-1
 180 539 l 1,18,-1
 49 577 l 2,19,20
 36 581 36 581 36 597 c 0,21,22
 36 606 36 606 42 614 c 128,-1,23
 48 622 48 622 58 622 c 0,24,25
 62 622 62 622 64 620 c 2,26,-1
 194 575 l 1,27,-1
 189 710 l 2,28,29
 189 721 189 721 196 726 c 128,-1,30
 203 731 203 731 211 731 c 256,31,32
 219 731 219 731 226 726 c 128,-1,33
 233 721 233 721 233 710 c 2,34,-1
 228 574 l 1,35,-1
 358 620 l 2,36,37
 364 622 364 622 365 622 c 0,38,39
 374 622 374 622 380 613.5 c 128,-1,40
 386 605 386 605 386 597 c 0,41,42
 386 581 386 581 372 577 c 2,43,-1
 242 540 l 1,44,-1
 326 429 l 2,0,1
EndSplineSet
EndChar
StartChar: plus
Encoding: 43 43 324
Width: 428
Flags: W
LayerCount: 2
Back
Fore
SplineSet
214 59 m 0,0,1
 204 59 204 59 197.5 65 c 128,-1,2
 191 71 191 71 191 80 c 2,3,-1
 191 218 l 1,4,-1
 53 218 l 2,5,6
 33 218 33 218 33 240 c 0,7,8
 33 250 33 250 38.5 256.5 c 128,-1,9
 44 263 44 263 53 263 c 2,10,-1
 191 263 l 1,11,-1
 191 400 l 2,12,13
 191 408 191 408 197.5 415 c 128,-1,14
 204 422 204 422 214 422 c 0,15,16
 225 422 225 422 231 415 c 128,-1,17
 237 408 237 408 237 400 c 2,18,-1
 237 263 l 1,19,-1
 373 263 l 2,20,21
 381 263 381 263 388 256.5 c 128,-1,22
 395 250 395 250 395 240 c 256,23,24
 395 230 395 230 388 224 c 128,-1,25
 381 218 381 218 373 218 c 2,26,-1
 237 218 l 1,27,-1
 237 80 l 2,28,29
 237 71 237 71 231 65 c 128,-1,30
 225 59 225 59 214 59 c 0,0,1
EndSplineSet
EndChar
StartChar: comma
Encoding: 44 44 178
Width: 166
Flags: W
LayerCount: 2
Back
Fore
SplineSet
82 76 m 0,0,1
 97 76 97 76 110 65 c 128,-1,2
 123 54 123 54 123 34 c 0,3,4
 123 31 123 31 122.5 26.5 c 128,-1,5
 122 22 122 22 118.5 11.5 c 128,-1,6
 115 1 115 1 108 -18.5 c 128,-1,7
 101 -38 101 -38 88 -69 c 0,8,9
 83 -80 83 -80 71 -80 c 0,10,11
 63 -80 63 -80 57 -76 c 128,-1,12
 51 -72 51 -72 51 -64 c 0,13,14
 51 -59 51 -59 52 -55 c 2,15,-1
 71 -4 l 1,16,17
 58 0 58 0 50 10.5 c 128,-1,18
 42 21 42 21 42 35 c 0,19,20
 42 52 42 52 53.5 64 c 128,-1,21
 65 76 65 76 82 76 c 0,0,1
EndSplineSet
EndChar
StartChar: hyphen
Encoding: 45 45 246
Width: 400
Flags: W
LayerCount: 2
Back
Fore
SplineSet
49 240 m 256,0,1
 49 250 49 250 55 256.5 c 128,-1,2
 61 263 61 263 70 263 c 2,3,-1
 330 263 l 2,4,5
 338 263 338 263 344.5 256.5 c 128,-1,6
 351 250 351 250 351 240 c 256,7,8
 351 230 351 230 344.5 224 c 128,-1,9
 338 218 338 218 330 218 c 2,10,-1
 70 218 l 2,11,12
 61 218 61 218 55 224 c 128,-1,13
 49 230 49 230 49 240 c 256,0,1
EndSplineSet
EndChar
StartChar: period
Encoding: 46 46 320
Width: 165
Flags: W
LayerCount: 2
Back
Fore
SplineSet
83 76 m 0,0,1
 99 76 99 76 111 64 c 128,-1,2
 123 52 123 52 123 35 c 256,3,4
 123 18 123 18 111 6 c 128,-1,5
 99 -6 99 -6 83 -6 c 0,6,7
 65 -6 65 -6 53.5 6 c 128,-1,8
 42 18 42 18 42 35 c 256,9,10
 42 52 42 52 53.5 64 c 128,-1,11
 65 76 65 76 83 76 c 0,0,1
EndSplineSet
EndChar
StartChar: slash
Encoding: 47 47 363
Width: 470
Flags: W
LayerCount: 2
Back
Fore
SplineSet
426 768 m 0,0,1
 434 768 434 768 441.5 762 c 128,-1,2
 449 756 449 756 449 745 c 0,3,4
 449 739 449 739 445 734 c 2,5,-1
 62 -10 l 2,6,7
 55 -23 55 -23 41 -23 c 0,8,9
 33 -23 33 -23 27 -17.5 c 128,-1,10
 21 -12 21 -12 21 -4 c 0,11,12
 21 3 21 3 23 7 c 2,13,-1
 409 758 l 2,14,15
 414 768 414 768 426 768 c 0,0,1
EndSplineSet
EndChar
StartChar: zero
Encoding: 48 48 415
Width: 527
Flags: W
LayerCount: 2
Back
Fore
SplineSet
263 -6 m 0,0,1
 220 -6 220 -6 183.5 5.5 c 128,-1,2
 147 17 147 17 120 42 c 128,-1,3
 93 67 93 67 77.5 107 c 128,-1,4
 62 147 62 147 62 204 c 2,5,-1
 62 521 l 2,6,7
 62 578 62 578 77.5 618 c 128,-1,8
 93 658 93 658 120 683 c 128,-1,9
 147 708 147 708 183.5 719.5 c 128,-1,10
 220 731 220 731 263 731 c 0,11,12
 305 731 305 731 342 719.5 c 128,-1,13
 379 708 379 708 406.5 683 c 128,-1,14
 434 658 434 658 449.5 618 c 128,-1,15
 465 578 465 578 465 521 c 2,16,-1
 465 204 l 2,17,18
 465 147 465 147 449.5 107 c 128,-1,19
 434 67 434 67 406.5 42 c 128,-1,20
 379 17 379 17 342 5.5 c 128,-1,21
 305 -6 305 -6 263 -6 c 0,0,1
415 521 m 2,22,23
 415 605 415 605 375 644 c 128,-1,24
 335 683 335 683 263 683 c 256,25,26
 191 683 191 683 151.5 644 c 128,-1,27
 112 605 112 605 112 521 c 2,28,-1
 112 204 l 2,29,30
 112 120 112 120 151.5 81 c 128,-1,31
 191 42 191 42 263 42 c 256,32,33
 335 42 335 42 375 81 c 128,-1,34
 415 120 415 120 415 204 c 2,35,-1
 415 521 l 2,22,23
264 395 m 0,36,37
 278 395 278 395 287.5 385.5 c 128,-1,38
 297 376 297 376 297 362 c 256,39,40
 297 348 297 348 287.5 338 c 128,-1,41
 278 328 278 328 264 328 c 0,42,43
 249 328 249 328 239.5 338 c 128,-1,44
 230 348 230 348 230 362 c 256,45,46
 230 376 230 376 239.5 385.5 c 128,-1,47
 249 395 249 395 264 395 c 0,36,37
EndSplineSet
EndChar
StartChar: one
Encoding: 49 49 301
Width: 220
Flags: W
LayerCount: 2
Back
Fore
SplineSet
98 629 m 1,0,-1
 56 557 l 2,1,2
 49 544 49 544 38 544 c 0,3,4
 28 544 28 544 22 551 c 128,-1,5
 16 558 16 558 16 567 c 0,6,7
 16 572 16 572 20.5 580.5 c 128,-1,8
 25 589 25 589 28 593 c 2,9,-1
 102 715 l 2,10,11
 106 722 106 722 111 726.5 c 128,-1,12
 116 731 116 731 126 731 c 0,13,14
 134 731 134 731 141 726 c 128,-1,15
 148 721 148 721 148 710 c 2,16,-1
 148 22 l 2,17,18
 148 11 148 11 140 5.5 c 128,-1,19
 132 0 132 0 123 0 c 0,20,21
 113 0 113 0 105.5 5.5 c 128,-1,22
 98 11 98 11 98 22 c 2,23,-1
 98 629 l 1,0,-1
EndSplineSet
Substitution2: "'lnum' Lining Figures in Latin lookup 8 subtable" one.lnum
Substitution2: "'aalt' Access All Alternates in Latin lookup 0 subtable" one.lnum
EndChar
StartChar: two
Encoding: 50 50 379
Width: 468
Flags: W
LayerCount: 2
Back
Fore
SplineSet
54 570 m 0,0,1
 54 604 54 604 67.5 633.5 c 128,-1,2
 81 663 81 663 105.5 684.5 c 128,-1,3
 130 706 130 706 163 718.5 c 128,-1,4
 196 731 196 731 235 731 c 0,5,6
 278 731 278 731 313.5 716 c 128,-1,7
 349 701 349 701 374.5 675 c 128,-1,8
 400 649 400 649 414 615 c 128,-1,9
 428 581 428 581 428 542 c 0,10,11
 428 488 428 488 402.5 445.5 c 128,-1,12
 377 403 377 403 339.5 368 c 128,-1,13
 302 333 302 333 257.5 302.5 c 128,-1,14
 213 272 213 272 175.5 243 c 128,-1,15
 138 214 138 214 112.5 184 c 128,-1,16
 87 154 87 154 87 119 c 2,17,-1
 87 48 l 1,18,-1
 417 48 l 2,19,20
 425 48 425 48 431 41 c 128,-1,21
 437 34 437 34 437 24 c 0,22,23
 437 15 437 15 431 7.5 c 128,-1,24
 425 0 425 0 417 0 c 2,25,-1
 61 0 l 2,26,27
 53 0 53 0 45 5.5 c 128,-1,28
 37 11 37 11 37 22 c 2,29,-1
 37 119 l 2,30,31
 37 161 37 161 62.5 195.5 c 128,-1,32
 88 230 88 230 125.5 261.5 c 128,-1,33
 163 293 163 293 207.5 323.5 c 128,-1,34
 252 354 252 354 289.5 386.5 c 128,-1,35
 327 419 327 419 352.5 456.5 c 128,-1,36
 378 494 378 494 378 540 c 0,37,38
 378 565 378 565 369.5 591 c 128,-1,39
 361 617 361 617 343 637 c 128,-1,40
 325 657 325 657 297.5 670 c 128,-1,41
 270 683 270 683 233 683 c 0,42,43
 177 683 177 683 140.5 651.5 c 128,-1,44
 104 620 104 620 104 557 c 0,45,46
 104 549 104 549 97.5 542.5 c 128,-1,47
 91 536 91 536 77 536 c 0,48,49
 65 536 65 536 59.5 543.5 c 128,-1,50
 54 551 54 551 54 570 c 0,0,1
EndSplineSet
EndChar
StartChar: three
Encoding: 51 51 372
Width: 480
Flags: W
LayerCount: 2
Back
Fore
SplineSet
230 42 m 0,0,1
 304 42 304 42 344 80.5 c 128,-1,2
 384 119 384 119 384 202 c 2,3,-1
 384 221 l 2,4,5
 384 293 384 293 343 328 c 128,-1,6
 302 363 302 363 233 363 c 0,7,8
 222 363 222 363 216.5 370.5 c 128,-1,9
 211 378 211 378 211 386 c 0,10,11
 211 395 211 395 216 402 c 128,-1,12
 221 409 221 409 232 409 c 0,13,14
 265 409 265 409 290 416 c 128,-1,15
 315 423 315 423 332 439 c 128,-1,16
 349 455 349 455 357.5 481 c 128,-1,17
 366 507 366 507 366 545 c 0,18,19
 366 614 366 614 335.5 649 c 128,-1,20
 305 684 305 684 236 684 c 0,21,22
 193 684 193 684 166 672 c 128,-1,23
 139 660 139 660 124 642 c 128,-1,24
 109 624 109 624 104 603.5 c 128,-1,25
 99 583 99 583 99 567 c 0,26,27
 99 539 99 539 74 539 c 0,28,29
 60 539 60 539 54.5 546 c 128,-1,30
 49 553 49 553 49 573 c 0,31,32
 49 592 49 592 56.5 619 c 128,-1,33
 64 646 64 646 85 671 c 128,-1,34
 106 696 106 696 143 713.5 c 128,-1,35
 180 731 180 731 239 731 c 0,36,37
 278 731 278 731 310.5 721.5 c 128,-1,38
 343 712 343 712 366.5 691.5 c 128,-1,39
 390 671 390 671 402.5 637.5 c 128,-1,40
 415 604 415 604 415 556 c 0,41,42
 415 485 415 485 390.5 444 c 128,-1,43
 366 403 366 403 332 386 c 1,44,45
 377 367 377 367 405.5 328 c 128,-1,46
 434 289 434 289 434 221 c 2,47,-1
 434 202 l 2,48,49
 434 145 434 145 418 105.5 c 128,-1,50
 402 66 402 66 375 41.5 c 128,-1,51
 348 17 348 17 311.5 5.5 c 128,-1,52
 275 -6 275 -6 233 -6 c 0,53,54
 182 -6 182 -6 144 9 c 128,-1,55
 106 24 106 24 81 47 c 128,-1,56
 56 70 56 70 43.5 99 c 128,-1,57
 31 128 31 128 31 155 c 0,58,59
 31 173 31 173 37 179.5 c 128,-1,60
 43 186 43 186 54 186 c 0,61,62
 69 186 69 186 74.5 179 c 128,-1,63
 80 172 80 172 80 162 c 0,64,65
 80 146 80 146 86.5 125.5 c 128,-1,66
 93 105 93 105 109.5 86.5 c 128,-1,67
 126 68 126 68 155.5 55 c 128,-1,68
 185 42 185 42 230 42 c 0,0,1
EndSplineSet
EndChar
StartChar: four
Encoding: 52 52 224
Width: 429
Flags: W
LayerCount: 2
Back
Fore
SplineSet
288 175 m 1,0,-1
 31 175 l 2,1,2
 20 175 20 175 14.5 181.5 c 128,-1,3
 9 188 9 188 9 197 c 0,4,5
 9 204 9 204 13 212 c 2,6,-1
 267 714 l 2,7,8
 272 723 272 723 278.5 727 c 128,-1,9
 285 731 285 731 292 731 c 0,10,11
 300 731 300 731 308 725 c 128,-1,12
 316 719 316 719 316 710 c 0,13,14
 316 704 316 704 313 698 c 2,15,-1
 73 224 l 1,16,-1
 288 224 l 1,17,-1
 288 439 l 2,18,19
 288 450 288 450 296 454.5 c 128,-1,20
 304 459 304 459 313 459 c 0,21,22
 323 459 323 459 330.5 454.5 c 128,-1,23
 338 450 338 450 338 439 c 2,24,-1
 338 224 l 1,25,-1
 395 224 l 2,26,27
 406 224 406 224 411.5 216.5 c 128,-1,28
 417 209 417 209 417 200 c 0,29,30
 417 190 417 190 411.5 182.5 c 128,-1,31
 406 175 406 175 395 175 c 2,32,-1
 338 175 l 1,33,-1
 338 22 l 2,34,35
 338 11 338 11 330.5 5.5 c 128,-1,36
 323 0 323 0 313 0 c 0,37,38
 304 0 304 0 296 5.5 c 128,-1,39
 288 11 288 11 288 22 c 2,40,-1
 288 175 l 1,0,-1
EndSplineSet
EndChar
StartChar: five
Encoding: 53 53 218
Width: 467
Flags: W
LayerCount: 2
Back
Fore
SplineSet
232 424 m 2,0,1
 274 424 274 424 311 413 c 128,-1,2
 348 402 348 402 375 378 c 128,-1,3
 402 354 402 354 417.5 315.5 c 128,-1,4
 433 277 433 277 433 222 c 2,5,-1
 433 203 l 2,6,7
 433 146 433 146 417.5 106 c 128,-1,8
 402 66 402 66 374.5 41.5 c 128,-1,9
 347 17 347 17 310 5.5 c 128,-1,10
 273 -6 273 -6 231 -6 c 0,11,12
 183 -6 183 -6 146 7.5 c 128,-1,13
 109 21 109 21 83 43.5 c 128,-1,14
 57 66 57 66 43.5 96.5 c 128,-1,15
 30 127 30 127 30 161 c 0,16,17
 30 175 30 175 37 181 c 128,-1,18
 44 187 44 187 54 187 c 0,19,20
 80 187 80 187 80 165 c 0,21,22
 80 136 80 136 92 113 c 128,-1,23
 104 90 104 90 124.5 74 c 128,-1,24
 145 58 145 58 172.5 50 c 128,-1,25
 200 42 200 42 231 42 c 0,26,27
 303 42 303 42 343 81 c 128,-1,28
 383 120 383 120 383 203 c 2,29,-1
 383 222 l 2,30,31
 383 302 383 302 343 340 c 128,-1,32
 303 378 303 378 232 378 c 2,33,-1
 95 378 l 2,34,35
 76 378 76 378 71 384 c 128,-1,36
 66 390 66 390 66 398 c 0,37,38
 66 400 66 400 66.5 407 c 128,-1,39
 67 414 67 414 67 416 c 2,40,-1
 86 709 l 2,41,42
 88 731 88 731 105 731 c 2,43,-1
 378 731 l 2,44,45
 388 731 388 731 392.5 723.5 c 128,-1,46
 397 716 397 716 397 707 c 256,47,48
 397 698 397 698 392.5 690.5 c 128,-1,49
 388 683 388 683 378 683 c 2,50,-1
 133 683 l 1,51,-1
 115 424 l 1,52,-1
 232 424 l 2,0,1
EndSplineSet
EndChar
StartChar: six
Encoding: 54 54 360
Width: 511
Flags: W
LayerCount: 2
Back
Fore
SplineSet
268 428 m 0,0,1
 310 428 310 428 346 418.5 c 128,-1,2
 382 409 382 409 408.5 386 c 128,-1,3
 435 363 435 363 450 325 c 128,-1,4
 465 287 465 287 465 230 c 2,5,-1
 465 204 l 2,6,7
 465 147 465 147 449.5 107 c 128,-1,8
 434 67 434 67 407 42 c 128,-1,9
 380 17 380 17 343.5 5.5 c 128,-1,10
 307 -6 307 -6 264 -6 c 0,11,12
 222 -6 222 -6 185 5.5 c 128,-1,13
 148 17 148 17 120.5 42 c 128,-1,14
 93 67 93 67 77.5 107 c 128,-1,15
 62 147 62 147 62 204 c 2,16,-1
 62 521 l 2,17,18
 62 578 62 578 77.5 618 c 128,-1,19
 93 658 93 658 120.5 683 c 128,-1,20
 148 708 148 708 185 719.5 c 128,-1,21
 222 731 222 731 265 731 c 0,22,23
 313 731 313 731 350 717 c 128,-1,24
 387 703 387 703 412.5 680 c 128,-1,25
 438 657 438 657 451.5 626.5 c 128,-1,26
 465 596 465 596 465 563 c 0,27,28
 465 549 465 549 458.5 543.5 c 128,-1,29
 452 538 452 538 442 538 c 256,30,31
 432 538 432 538 423.5 543.5 c 128,-1,32
 415 549 415 549 415 561 c 0,33,34
 415 589 415 589 403 611.5 c 128,-1,35
 391 634 391 634 370.5 650 c 128,-1,36
 350 666 350 666 322.5 674.5 c 128,-1,37
 295 683 295 683 264 683 c 0,38,39
 192 683 192 683 152.5 644 c 128,-1,40
 113 605 113 605 113 521 c 2,41,-1
 113 357 l 1,42,43
 139 394 139 394 179.5 411 c 128,-1,44
 220 428 220 428 268 428 c 0,0,1
113 202 m 2,45,46
 113 119 113 119 152.5 80 c 128,-1,47
 192 41 192 41 264 41 c 256,48,49
 336 41 336 41 375.5 80 c 128,-1,50
 415 119 415 119 415 202 c 2,51,-1
 415 229 l 2,52,53
 415 312 415 312 375 347 c 128,-1,54
 335 382 335 382 264 382 c 0,55,56
 195 382 195 382 154 349.5 c 128,-1,57
 113 317 113 317 113 238 c 2,58,-1
 113 202 l 2,45,46
EndSplineSet
EndChar
StartChar: seven
Encoding: 55 55 356
Width: 450
Flags: W
LayerCount: 2
Back
Fore
SplineSet
433 631 m 2,0,1
 433 622 433 622 427 613 c 2,2,-1
 119 11 l 2,3,4
 112 -1 112 -1 101 -1 c 0,5,6
 89 -1 89 -1 80 5 c 128,-1,7
 71 11 71 11 71 22 c 0,8,9
 71 25 71 25 75 35 c 2,10,-1
 383 632 l 1,11,-1
 383 683 l 1,12,-1
 80 683 l 1,13,-1
 80 560 l 2,14,15
 80 551 80 551 72.5 544.5 c 128,-1,16
 65 538 65 538 55 538 c 0,17,18
 44 538 44 538 37 544.5 c 128,-1,19
 30 551 30 551 30 560 c 2,20,-1
 30 709 l 2,21,22
 30 717 30 717 37.5 724 c 128,-1,23
 45 731 45 731 54 731 c 2,24,-1
 409 731 l 2,25,26
 417 731 417 731 425 724 c 128,-1,27
 433 717 433 717 433 709 c 2,28,-1
 433 631 l 2,0,1
EndSplineSet
EndChar
StartChar: eight
Encoding: 56 56 202
Width: 494
Flags: W
LayerCount: 2
Back
Fore
SplineSet
247 731 m 256,0,1
 286 731 286 731 319.5 722.5 c 128,-1,2
 353 714 353 714 377.5 693.5 c 128,-1,3
 402 673 402 673 416 639.5 c 128,-1,4
 430 606 430 606 430 557 c 0,5,6
 430 491 430 491 406 453 c 128,-1,7
 382 415 382 415 343 398 c 1,8,9
 391 378 391 378 419.5 334 c 128,-1,10
 448 290 448 290 448 212 c 2,11,-1
 448 200 l 2,12,13
 448 144 448 144 432.5 105 c 128,-1,14
 417 66 417 66 390 41 c 128,-1,15
 363 16 363 16 326.5 5 c 128,-1,16
 290 -6 290 -6 247 -6 c 0,17,18
 205 -6 205 -6 168 5 c 128,-1,19
 131 16 131 16 104 41 c 128,-1,20
 77 66 77 66 61.5 105 c 128,-1,21
 46 144 46 144 46 200 c 2,22,-1
 46 212 l 2,23,24
 46 290 46 290 75 334 c 128,-1,25
 104 378 104 378 152 398 c 1,26,27
 113 415 113 415 89 453 c 128,-1,28
 65 491 65 491 65 557 c 0,29,30
 65 606 65 606 79 639.5 c 128,-1,31
 93 673 93 673 117.5 693.5 c 128,-1,32
 142 714 142 714 175 722.5 c 128,-1,33
 208 731 208 731 247 731 c 256,0,1
398 215 m 2,34,35
 398 298 398 298 358 336 c 128,-1,36
 318 374 318 374 247 374 c 256,37,38
 176 374 176 374 136 336 c 128,-1,39
 96 298 96 298 96 215 c 2,40,-1
 96 202 l 2,41,42
 96 119 96 119 136.5 79.5 c 128,-1,43
 177 40 177 40 248 40 c 256,44,45
 319 40 319 40 358.5 80 c 128,-1,46
 398 120 398 120 398 202 c 2,47,-1
 398 215 l 2,34,35
247 685 m 256,48,49
 184 685 184 685 149.5 655 c 128,-1,50
 115 625 115 625 115 554 c 256,51,52
 115 483 115 483 149.5 452 c 128,-1,53
 184 421 184 421 247 421 c 256,54,55
 310 421 310 421 345 452 c 128,-1,56
 380 483 380 483 380 554 c 256,57,58
 380 625 380 625 345 655 c 128,-1,59
 310 685 310 685 247 685 c 256,48,49
EndSplineSet
EndChar
StartChar: nine
Encoding: 57 57 285
Width: 510
Flags: W
LayerCount: 2
Back
Fore
SplineSet
242 297 m 0,0,1
 201 297 201 297 165 306.5 c 128,-1,2
 129 316 129 316 102.5 339 c 128,-1,3
 76 362 76 362 61 400 c 128,-1,4
 46 438 46 438 46 495 c 2,5,-1
 46 521 l 2,6,7
 46 578 46 578 61.5 618 c 128,-1,8
 77 658 77 658 104 683 c 128,-1,9
 131 708 131 708 167.5 719.5 c 128,-1,10
 204 731 204 731 246 731 c 0,11,12
 289 731 289 731 326 719.5 c 128,-1,13
 363 708 363 708 390 683 c 128,-1,14
 417 658 417 658 432.5 618 c 128,-1,15
 448 578 448 578 448 521 c 2,16,-1
 448 204 l 2,17,18
 448 147 448 147 432.5 107 c 128,-1,19
 417 67 417 67 390 42 c 128,-1,20
 363 17 363 17 326 5.5 c 128,-1,21
 289 -6 289 -6 246 -6 c 0,22,23
 198 -6 198 -6 160.5 8 c 128,-1,24
 123 22 123 22 97.5 45 c 128,-1,25
 72 68 72 68 59 98.5 c 128,-1,26
 46 129 46 129 46 162 c 0,27,28
 46 187 46 187 69 187 c 0,29,30
 79 187 79 187 87 181.5 c 128,-1,31
 95 176 95 176 95 164 c 0,32,33
 95 136 95 136 107 113.5 c 128,-1,34
 119 91 119 91 140 75 c 128,-1,35
 161 59 161 59 188.5 50.5 c 128,-1,36
 216 42 216 42 247 42 c 0,37,38
 319 42 319 42 358.5 81 c 128,-1,39
 398 120 398 120 398 204 c 2,40,-1
 398 368 l 1,41,42
 372 331 372 331 331.5 314 c 128,-1,43
 291 297 291 297 242 297 c 0,0,1
398 523 m 2,44,45
 398 606 398 606 358 645 c 128,-1,46
 318 684 318 684 246 684 c 0,47,48
 175 684 175 684 135.5 645 c 128,-1,49
 96 606 96 606 96 523 c 2,50,-1
 96 496 l 2,51,52
 96 413 96 413 136 378 c 128,-1,53
 176 343 176 343 247 343 c 0,54,55
 316 343 316 343 357 375.5 c 128,-1,56
 398 408 398 408 398 487 c 2,57,-1
 398 523 l 2,44,45
EndSplineSet
EndChar
StartChar: colon
Encoding: 58 58 177
Width: 199
Flags: W
LayerCount: 2
Back
Fore
SplineSet
100 76 m 0,0,1
 116 76 116 76 128 64 c 128,-1,2
 140 52 140 52 140 35 c 256,3,4
 140 18 140 18 128 6 c 128,-1,5
 116 -6 116 -6 100 -6 c 0,6,7
 82 -6 82 -6 70.5 6 c 128,-1,8
 59 18 59 18 59 35 c 256,9,10
 59 52 59 52 70.5 64 c 128,-1,11
 82 76 82 76 100 76 c 0,0,1
100 422 m 0,12,13
 116 422 116 422 128 410 c 128,-1,14
 140 398 140 398 140 381 c 256,15,16
 140 364 140 364 128 352 c 128,-1,17
 116 340 116 340 100 340 c 0,18,19
 82 340 82 340 70.5 352 c 128,-1,20
 59 364 59 364 59 381 c 256,21,22
 59 398 59 398 70.5 410 c 128,-1,23
 82 422 82 422 100 422 c 0,12,13
EndSplineSet
EndChar
StartChar: semicolon
Encoding: 59 59 355
Width: 202
Flags: W
LayerCount: 2
Back
Fore
SplineSet
100 76 m 0,0,1
 115 76 115 76 128 65 c 128,-1,2
 141 54 141 54 141 34 c 0,3,4
 141 31 141 31 140.5 26.5 c 128,-1,5
 140 22 140 22 136.5 11.5 c 128,-1,6
 133 1 133 1 126 -18.5 c 128,-1,7
 119 -38 119 -38 106 -69 c 0,8,9
 101 -80 101 -80 89 -80 c 0,10,11
 81 -80 81 -80 75 -76 c 128,-1,12
 69 -72 69 -72 69 -64 c 0,13,14
 69 -59 69 -59 70 -55 c 2,15,-1
 89 -4 l 1,16,17
 76 0 76 0 68 10.5 c 128,-1,18
 60 21 60 21 60 35 c 0,19,20
 60 52 60 52 71.5 64 c 128,-1,21
 83 76 83 76 100 76 c 0,0,1
103 422 m 0,22,23
 119 422 119 422 131 410 c 128,-1,24
 143 398 143 398 143 381 c 256,25,26
 143 364 143 364 131 352 c 128,-1,27
 119 340 119 340 103 340 c 0,28,29
 85 340 85 340 73.5 352 c 128,-1,30
 62 364 62 364 62 381 c 256,31,32
 62 398 62 398 73.5 410 c 128,-1,33
 85 422 85 422 103 422 c 0,22,23
EndSplineSet
EndChar
StartChar: less
Encoding: 60 60 269
Width: 396
Flags: W
LayerCount: 2
Back
Fore
SplineSet
27 277 m 0,0,1
 27 293 27 293 40 300 c 2,2,-1
 312 480 l 2,3,4
 316 484 316 484 322 484 c 0,5,6
 331 484 331 484 339 477.5 c 128,-1,7
 347 471 347 471 347 460 c 256,8,9
 347 449 347 449 337 442 c 2,10,-1
 89 277 l 1,11,-1
 337 113 l 2,12,13
 347 106 347 106 347 95 c 256,14,15
 347 84 347 84 339 77.5 c 128,-1,16
 331 71 331 71 322 71 c 0,17,18
 316 71 316 71 312 75 c 2,19,-1
 40 255 l 2,20,21
 27 262 27 262 27 277 c 0,0,1
EndSplineSet
EndChar
StartChar: equal
Encoding: 61 61 211
Width: 433
Flags: W
LayerCount: 2
Back
Fore
SplineSet
70 171 m 256,0,1
 70 181 70 181 76 188 c 128,-1,2
 82 195 82 195 91 195 c 2,3,-1
 342 195 l 2,4,5
 350 195 350 195 356.5 188 c 128,-1,6
 363 181 363 181 363 171 c 256,7,8
 363 161 363 161 356.5 155 c 128,-1,9
 350 149 350 149 342 149 c 2,10,-1
 91 149 l 2,11,12
 82 149 82 149 76 155 c 128,-1,13
 70 161 70 161 70 171 c 256,0,1
70 374 m 256,14,15
 70 384 70 384 76 391 c 128,-1,16
 82 398 82 398 91 398 c 2,17,-1
 342 398 l 2,18,19
 350 398 350 398 356.5 391 c 128,-1,20
 363 384 363 384 363 374 c 256,21,22
 363 364 363 364 356.5 358 c 128,-1,23
 350 352 350 352 342 352 c 2,24,-1
 91 352 l 2,25,26
 82 352 82 352 76 358 c 128,-1,27
 70 364 70 364 70 374 c 256,14,15
EndSplineSet
EndChar
StartChar: greater
Encoding: 62 62 236
Width: 396
Flags: W
LayerCount: 2
Back
Fore
SplineSet
369 277 m 0,0,1
 369 262 369 262 356 255 c 2,2,-1
 84 75 l 2,3,4
 79 71 79 71 73 71 c 0,5,6
 65 71 65 71 57 77.5 c 128,-1,7
 49 84 49 84 49 95 c 256,8,9
 49 106 49 106 59 113 c 2,10,-1
 307 277 l 1,11,-1
 59 442 l 2,12,13
 49 449 49 449 49 460 c 256,14,15
 49 471 49 471 57 477.5 c 128,-1,16
 65 484 65 484 73 484 c 0,17,18
 79 484 79 484 84 480 c 2,19,-1
 356 300 l 2,20,21
 361 297 361 297 365 290.5 c 128,-1,22
 369 284 369 284 369 277 c 0,0,1
EndSplineSet
EndChar
StartChar: question
Encoding: 63 63 329
Width: 391
Flags: W
LayerCount: 2
Back
Fore
SplineSet
355 566 m 0,0,1
 355 517 355 517 339 481 c 128,-1,2
 323 445 323 445 301 418 c 128,-1,3
 279 391 279 391 255.5 370.5 c 128,-1,4
 232 350 232 350 217 332 c 0,5,6
 206 319 206 319 200 304 c 128,-1,7
 194 289 194 289 191 270.5 c 128,-1,8
 188 252 188 252 187.5 228.5 c 128,-1,9
 187 205 187 205 187 175 c 0,10,11
 187 155 187 155 165 155 c 0,12,13
 156 155 156 155 150 160 c 128,-1,14
 144 165 144 165 144 178 c 0,15,16
 144 221 144 221 146.5 250.5 c 128,-1,17
 149 280 149 280 154 300 c 128,-1,18
 159 320 159 320 166 333 c 128,-1,19
 173 346 173 346 182 356 c 0,20,21
 198 374 198 374 220 393 c 128,-1,22
 242 412 242 412 261.5 436 c 128,-1,23
 281 460 281 460 295 490.5 c 128,-1,24
 309 521 309 521 309 563 c 0,25,26
 309 628 309 628 273.5 665 c 128,-1,27
 238 702 238 702 166 702 c 0,28,29
 134 702 134 702 113.5 695 c 128,-1,30
 93 688 93 688 80 679.5 c 128,-1,31
 67 671 67 671 59 664 c 128,-1,32
 51 657 51 657 44 657 c 256,33,34
 37 657 37 657 30.5 663 c 128,-1,35
 24 669 24 669 24 679 c 0,36,37
 24 690 24 690 35.5 702 c 128,-1,38
 47 714 47 714 67 723.5 c 128,-1,39
 87 733 87 733 113.5 739.5 c 128,-1,40
 140 746 140 746 170 746 c 0,41,42
 217 746 217 746 251.5 732 c 128,-1,43
 286 718 286 718 309 693.5 c 128,-1,44
 332 669 332 669 343.5 636 c 128,-1,45
 355 603 355 603 355 566 c 0,0,1
165 76 m 256,46,47
 182 76 182 76 193.5 64 c 128,-1,48
 205 52 205 52 205 35 c 256,49,50
 205 18 205 18 193.5 6 c 128,-1,51
 182 -6 182 -6 165 -6 c 256,52,53
 148 -6 148 -6 136.5 6 c 128,-1,54
 125 18 125 18 125 35 c 256,55,56
 125 52 125 52 136.5 64 c 128,-1,57
 148 76 148 76 165 76 c 256,46,47
EndSplineSet
EndChar
StartChar: at
Encoding: 64 64 153
Width: 710
Flags: W
LayerCount: 2
Back
Fore
SplineSet
234 372 m 0,0,1
 234 381 234 381 245.5 389 c 128,-1,2
 257 397 257 397 274.5 403 c 128,-1,3
 292 409 292 409 314 412.5 c 128,-1,4
 336 416 336 416 357 416 c 0,5,6
 423 416 423 416 458.5 383 c 128,-1,7
 494 350 494 350 494 290 c 2,8,-1
 494 125 l 2,9,10
 496 103 496 103 515 88.5 c 128,-1,11
 534 74 534 74 555 74 c 256,12,13
 576 74 576 74 590 89 c 128,-1,14
 604 104 604 104 611.5 127 c 128,-1,15
 619 150 619 150 622 177.5 c 128,-1,16
 625 205 625 205 625 231 c 0,17,18
 625 362 625 362 560 437 c 128,-1,19
 495 512 495 512 362 512 c 0,20,21
 287 512 287 512 236.5 487.5 c 128,-1,22
 186 463 186 463 155.5 422.5 c 128,-1,23
 125 382 125 382 111.5 329 c 128,-1,24
 98 276 98 276 98 219 c 0,25,26
 98 166 98 166 110 116.5 c 128,-1,27
 122 67 122 67 149.5 29 c 128,-1,28
 177 -9 177 -9 221.5 -32 c 128,-1,29
 266 -55 266 -55 331 -55 c 0,30,31
 365 -55 365 -55 389 -50 c 128,-1,32
 413 -45 413 -45 430 -39.5 c 128,-1,33
 447 -34 447 -34 457.5 -29 c 128,-1,34
 468 -24 468 -24 475 -24 c 0,35,36
 483 -24 483 -24 488 -30 c 128,-1,37
 493 -36 493 -36 493 -41 c 0,38,39
 493 -50 493 -50 478 -59.5 c 128,-1,40
 463 -69 463 -69 439.5 -77.5 c 128,-1,41
 416 -86 416 -86 386 -91 c 128,-1,42
 356 -96 356 -96 326 -96 c 0,43,44
 274 -96 274 -96 225.5 -77.5 c 128,-1,45
 177 -59 177 -59 139.5 -21 c 128,-1,46
 102 17 102 17 79.5 76.5 c 128,-1,47
 57 136 57 136 57 218 c 0,48,49
 57 287 57 287 74 348.5 c 128,-1,50
 91 410 91 410 128.5 456 c 128,-1,51
 166 502 166 502 224 528.5 c 128,-1,52
 282 555 282 555 365 555 c 0,53,54
 511 555 511 555 588.5 473.5 c 128,-1,55
 666 392 666 392 666 235 c 0,56,57
 666 197 666 197 660.5 161.5 c 128,-1,58
 655 126 655 126 642 98 c 128,-1,59
 629 70 629 70 607 53.5 c 128,-1,60
 585 37 585 37 552 37 c 0,61,62
 515 37 515 37 489 56 c 128,-1,63
 463 75 463 75 456 99 c 1,64,65
 430 73 430 73 404.5 60 c 128,-1,66
 379 47 379 47 335 47 c 0,67,68
 309 47 309 47 286 52.5 c 128,-1,69
 263 58 263 58 246 70.5 c 128,-1,70
 229 83 229 83 219 103.5 c 128,-1,71
 209 124 209 124 209 154 c 0,72,73
 209 188 209 188 222.5 209.5 c 128,-1,74
 236 231 236 231 261 243.5 c 128,-1,75
 286 256 286 256 322.5 260.5 c 128,-1,76
 359 265 359 265 404 265 c 2,77,-1
 450 265 l 1,78,-1
 450 285 l 2,79,80
 450 330 450 330 425.5 351.5 c 128,-1,81
 401 373 401 373 347 373 c 0,82,83
 323 373 323 373 307.5 369.5 c 128,-1,84
 292 366 292 366 282 361.5 c 128,-1,85
 272 357 272 357 265.5 353.5 c 128,-1,86
 259 350 259 350 253 350 c 0,87,88
 244 350 244 350 239 358 c 128,-1,89
 234 366 234 366 234 372 c 0,0,1
451 228 m 1,90,-1
 407 228 l 2,91,92
 374 228 374 228 346 226 c 128,-1,93
 318 224 318 224 297.5 216 c 128,-1,94
 277 208 277 208 265.5 193 c 128,-1,95
 254 178 254 178 254 153 c 0,96,97
 254 117 254 117 278 101 c 128,-1,98
 302 85 302 85 337 85 c 0,99,100
 364 85 364 85 385.5 92.5 c 128,-1,101
 407 100 407 100 421.5 112 c 128,-1,102
 436 124 436 124 443.5 138 c 128,-1,103
 451 152 451 152 451 166 c 2,104,-1
 451 228 l 1,90,-1
EndSplineSet
EndChar
StartChar: A
Encoding: 65 65 1
Width: 530
Flags: W
LayerCount: 2
Back
Fore
SplineSet
51 0 m 0,0,1
 41 0 41 0 32 5.5 c 128,-1,2
 23 11 23 11 23 22 c 0,3,4
 23 26 23 26 24 28 c 2,5,-1
 238 719 l 2,6,7
 244 737 244 737 266 737 c 0,8,9
 275 737 275 737 283 732.5 c 128,-1,10
 291 728 291 728 294 719 c 2,11,-1
 506 28 l 2,12,13
 506 26 506 26 506.5 25 c 128,-1,14
 507 24 507 24 507 22 c 0,15,16
 507 13 507 13 498 6.5 c 128,-1,17
 489 0 489 0 478 0 c 0,18,19
 462 0 462 0 458 15 c 2,20,-1
 409 174 l 1,21,-1
 121 174 l 1,22,-1
 73 15 l 2,23,24
 68 0 68 0 51 0 c 0,0,1
395 220 m 1,25,-1
 266 647 l 1,26,-1
 134 220 l 1,27,-1
 395 220 l 1,25,-1
EndSplineSet
EndChar
StartChar: B
Encoding: 66 66 13
Width: 532
Flags: W
LayerCount: 2
Back
Fore
SplineSet
79 709 m 2,0,1
 79 720 79 720 86.5 725.5 c 128,-1,2
 94 731 94 731 103 731 c 2,3,-1
 259 731 l 2,4,5
 302 731 302 731 339.5 724.5 c 128,-1,6
 377 718 377 718 404.5 699.5 c 128,-1,7
 432 681 432 681 448 648 c 128,-1,8
 464 615 464 615 464 563 c 0,9,10
 464 498 464 498 440.5 455.5 c 128,-1,11
 417 413 417 413 379 396 c 1,12,13
 402 386 402 386 421 372 c 128,-1,14
 440 358 440 358 453.5 337.5 c 128,-1,15
 467 317 467 317 474.5 289 c 128,-1,16
 482 261 482 261 482 222 c 2,17,-1
 482 204 l 2,18,19
 482 147 482 147 467 108 c 128,-1,20
 452 69 452 69 425.5 45 c 128,-1,21
 399 21 399 21 363 10.5 c 128,-1,22
 327 0 327 0 285 0 c 2,23,-1
 103 0 l 2,24,25
 92 0 92 0 85.5 6.5 c 128,-1,26
 79 13 79 13 79 21 c 2,27,-1
 79 709 l 2,0,1
281 48 m 2,28,29
 352 48 352 48 392 85.5 c 128,-1,30
 432 123 432 123 432 206 c 2,31,-1
 432 223 l 2,32,33
 432 264 432 264 421.5 292.5 c 128,-1,34
 411 321 411 321 391.5 339 c 128,-1,35
 372 357 372 357 344 365 c 128,-1,36
 316 373 316 373 281 373 c 2,37,-1
 129 373 l 1,38,-1
 129 48 l 1,39,-1
 281 48 l 2,28,29
129 419 m 1,40,-1
 264 419 l 2,41,42
 302 419 302 419 330.5 426 c 128,-1,43
 359 433 359 433 377.5 449.5 c 128,-1,44
 396 466 396 466 405 492.5 c 128,-1,45
 414 519 414 519 414 559 c 0,46,47
 414 598 414 598 402.5 622 c 128,-1,48
 391 646 391 646 370.5 659.5 c 128,-1,49
 350 673 350 673 322 678 c 128,-1,50
 294 683 294 683 260 683 c 2,51,-1
 129 683 l 1,52,-1
 129 419 l 1,40,-1
EndSplineSet
EndChar
StartChar: D
Encoding: 68 68 21
Width: 554
Flags: W
LayerCount: 2
Back
Fore
SplineSet
280 731 m 2,0,1
 322 731 322 731 359 719.5 c 128,-1,2
 396 708 396 708 423.5 683 c 128,-1,3
 451 658 451 658 466.5 618 c 128,-1,4
 482 578 482 578 482 521 c 2,5,-1
 482 210 l 2,6,7
 482 153 482 153 466.5 113 c 128,-1,8
 451 73 451 73 423.5 48 c 128,-1,9
 396 23 396 23 359 11.5 c 128,-1,10
 322 0 322 0 280 0 c 2,11,-1
 103 0 l 2,12,13
 92 0 92 0 85.5 6.5 c 128,-1,14
 79 13 79 13 79 21 c 2,15,-1
 79 710 l 2,16,17
 79 718 79 718 85.5 724.5 c 128,-1,18
 92 731 92 731 103 731 c 2,19,-1
 280 731 l 2,0,1
129 683 m 1,20,-1
 129 48 l 1,21,-1
 280 48 l 2,22,23
 352 48 352 48 392 87 c 128,-1,24
 432 126 432 126 432 210 c 2,25,-1
 432 521 l 2,26,27
 432 605 432 605 392 644 c 128,-1,28
 352 683 352 683 280 683 c 2,29,-1
 129 683 l 1,20,-1
EndSplineSet
EndChar
StartChar: E
Encoding: 69 69 25
Width: 503
Flags: W
LayerCount: 2
Back
Fore
SplineSet
129 389 m 1,0,-1
 288 389 l 2,1,2
 298 389 298 389 303.5 382 c 128,-1,3
 309 375 309 375 309 365 c 0,4,5
 309 357 309 357 304 350 c 128,-1,6
 299 343 299 343 288 343 c 2,7,-1
 129 343 l 1,8,-1
 129 48 l 1,9,-1
 459 48 l 2,10,11
 469 48 469 48 474.5 40.5 c 128,-1,12
 480 33 480 33 480 23 c 0,13,14
 480 15 480 15 475 7.5 c 128,-1,15
 470 0 470 0 459 0 c 2,16,-1
 103 0 l 2,17,18
 94 0 94 0 86.5 5.5 c 128,-1,19
 79 11 79 11 79 22 c 2,20,-1
 79 709 l 2,21,22
 79 720 79 720 86.5 725.5 c 128,-1,23
 94 731 94 731 103 731 c 2,24,-1
 459 731 l 2,25,26
 470 731 470 731 475 723.5 c 128,-1,27
 480 716 480 716 480 708 c 0,28,29
 480 698 480 698 474.5 690.5 c 128,-1,30
 469 683 469 683 459 683 c 2,31,-1
 129 683 l 1,32,-1
 129 389 l 1,0,-1
EndSplineSet
EndChar
StartChar: F
Encoding: 70 70 38
Width: 492
Flags: W
LayerCount: 2
Back
Fore
SplineSet
79 709 m 2,0,1
 79 720 79 720 86.5 725.5 c 128,-1,2
 94 731 94 731 103 731 c 2,3,-1
 458 731 l 2,4,5
 469 731 469 731 474 723.5 c 128,-1,6
 479 716 479 716 479 708 c 0,7,8
 479 698 479 698 473.5 690.5 c 128,-1,9
 468 683 468 683 458 683 c 2,10,-1
 129 683 l 1,11,-1
 129 389 l 1,12,-1
 288 389 l 2,13,14
 298 389 298 389 303.5 382 c 128,-1,15
 309 375 309 375 309 365 c 0,16,17
 309 357 309 357 304 350 c 128,-1,18
 299 343 299 343 288 343 c 2,19,-1
 129 343 l 1,20,-1
 129 21 l 2,21,22
 129 10 129 10 121.5 5 c 128,-1,23
 114 0 114 0 104 0 c 0,24,25
 95 0 95 0 87 5 c 128,-1,26
 79 10 79 10 79 21 c 2,27,-1
 79 709 l 2,0,1
EndSplineSet
EndChar
StartChar: H
Encoding: 72 72 44
Width: 563
Flags: W
LayerCount: 2
Back
Fore
SplineSet
434 356 m 1,0,-1
 129 356 l 1,1,-1
 129 22 l 2,2,3
 129 11 129 11 121.5 5.5 c 128,-1,4
 114 0 114 0 104 0 c 0,5,6
 95 0 95 0 87 5.5 c 128,-1,7
 79 11 79 11 79 22 c 2,8,-1
 79 710 l 2,9,10
 79 721 79 721 87 726 c 128,-1,11
 95 731 95 731 104 731 c 0,12,13
 114 731 114 731 121.5 726 c 128,-1,14
 129 721 129 721 129 710 c 2,15,-1
 129 402 l 1,16,-1
 434 402 l 1,17,-1
 434 710 l 2,18,19
 434 721 434 721 442 726 c 128,-1,20
 450 731 450 731 459 731 c 0,21,22
 469 731 469 731 476.5 726 c 128,-1,23
 484 721 484 721 484 710 c 2,24,-1
 484 22 l 2,25,26
 484 11 484 11 476.5 5.5 c 128,-1,27
 469 0 469 0 459 0 c 0,28,29
 450 0 450 0 442 5.5 c 128,-1,30
 434 11 434 11 434 22 c 2,31,-1
 434 356 l 1,0,-1
EndSplineSet
EndChar
StartChar: I
Encoding: 73 73 47
Width: 208
Flags: W
LayerCount: 2
Back
Fore
SplineSet
79 710 m 2,0,1
 79 721 79 721 87 726 c 128,-1,2
 95 731 95 731 104 731 c 0,3,4
 114 731 114 731 121.5 726 c 128,-1,5
 129 721 129 721 129 710 c 2,6,-1
 129 22 l 2,7,8
 129 11 129 11 121.5 5.5 c 128,-1,9
 114 0 114 0 104 0 c 0,10,11
 95 0 95 0 87 5.5 c 128,-1,12
 79 11 79 11 79 22 c 2,13,-1
 79 710 l 2,0,1
EndSplineSet
EndChar
StartChar: J
Encoding: 74 74 58
Width: 503
Flags: W
LayerCount: 2
Back
Fore
SplineSet
227 683 m 2,0,1
 216 683 216 683 211 690.5 c 128,-1,2
 206 698 206 698 206 708 c 0,3,4
 206 716 206 716 211 723.5 c 128,-1,5
 216 731 216 731 227 731 c 2,6,-1
 403 731 l 2,7,8
 412 731 412 731 419.5 725.5 c 128,-1,9
 427 720 427 720 427 709 c 2,10,-1
 427 204 l 2,11,12
 427 147 427 147 411.5 107 c 128,-1,13
 396 67 396 67 369 42 c 128,-1,14
 342 17 342 17 305.5 5.5 c 128,-1,15
 269 -6 269 -6 227 -6 c 0,16,17
 180 -6 180 -6 142.5 7 c 128,-1,18
 105 20 105 20 78.5 42.5 c 128,-1,19
 52 65 52 65 38 96.5 c 128,-1,20
 24 128 24 128 24 164 c 0,21,22
 24 179 24 179 31 184.5 c 128,-1,23
 38 190 38 190 49 190 c 0,24,25
 58 190 58 190 66 185 c 128,-1,26
 74 180 74 180 74 169 c 0,27,28
 75 106 75 106 117.5 74 c 128,-1,29
 160 42 160 42 226 42 c 0,30,31
 298 42 298 42 337.5 81 c 128,-1,32
 377 120 377 120 377 204 c 2,33,-1
 377 683 l 1,34,-1
 227 683 l 2,0,1
EndSplineSet
EndChar
StartChar: K
Encoding: 75 75 60
Width: 514
Flags: W
LayerCount: 2
Back
Fore
SplineSet
79 710 m 2,0,1
 79 721 79 721 87 726 c 128,-1,2
 95 731 95 731 104 731 c 0,3,4
 114 731 114 731 121.5 726 c 128,-1,5
 129 721 129 721 129 710 c 2,6,-1
 129 336 l 1,7,-1
 436 723 l 2,8,9
 439 728 439 728 443.5 729.5 c 128,-1,10
 448 731 448 731 453 731 c 0,11,12
 463 731 463 731 471.5 723 c 128,-1,13
 480 715 480 715 480 705 c 0,14,15
 480 697 480 697 475 693 c 2,16,-1
 252 415 l 1,17,-1
 504 35 l 2,18,19
 508 31 508 31 508 24 c 0,20,21
 508 14 508 14 499.5 6.5 c 128,-1,22
 491 -1 491 -1 480 -1 c 0,23,24
 468 -1 468 -1 461 11 c 2,25,-1
 219 373 l 1,26,-1
 129 261 l 1,27,-1
 129 22 l 2,28,29
 129 11 129 11 121.5 5.5 c 128,-1,30
 114 0 114 0 104 0 c 0,31,32
 95 0 95 0 87 5.5 c 128,-1,33
 79 11 79 11 79 22 c 2,34,-1
 79 710 l 2,0,1
EndSplineSet
EndChar
StartChar: L
Encoding: 76 76 62
Width: 457
Flags: W
LayerCount: 2
Back
Fore
SplineSet
103 0 m 2,0,1
 94 0 94 0 86.5 5.5 c 128,-1,2
 79 11 79 11 79 22 c 2,3,-1
 79 710 l 2,4,5
 79 721 79 721 87 726 c 128,-1,6
 95 731 95 731 104 731 c 0,7,8
 114 731 114 731 121.5 726 c 128,-1,9
 129 721 129 721 129 710 c 2,10,-1
 129 48 l 1,11,-1
 424 48 l 2,12,13
 434 48 434 48 438.5 40.5 c 128,-1,14
 443 33 443 33 443 24 c 256,15,16
 443 15 443 15 438.5 7.5 c 128,-1,17
 434 0 434 0 424 0 c 2,18,-1
 103 0 l 2,0,1
EndSplineSet
EndChar
StartChar: M
Encoding: 77 77 68
Width: 659
Flags: W
LayerCount: 2
Back
Fore
SplineSet
352 277 m 2,0,1
 346 266 346 266 339.5 261 c 128,-1,2
 333 256 333 256 329 256 c 0,3,4
 316 256 316 256 306 277 c 2,5,-1
 129 618 l 1,6,-1
 129 22 l 2,7,8
 129 11 129 11 121.5 5.5 c 128,-1,9
 114 0 114 0 104 0 c 0,10,11
 95 0 95 0 87 5.5 c 128,-1,12
 79 11 79 11 79 22 c 2,13,-1
 79 707 l 2,14,15
 79 721 79 721 86.5 726 c 128,-1,16
 94 731 94 731 104 731 c 0,17,18
 117 731 117 731 128 717 c 128,-1,19
 139 703 139 703 146 690 c 2,20,-1
 329 332 l 1,21,-1
 513 690 l 2,22,23
 520 703 520 703 530.5 717 c 128,-1,24
 541 731 541 731 555 731 c 0,25,26
 565 731 565 731 572.5 726 c 128,-1,27
 580 721 580 721 580 707 c 2,28,-1
 580 22 l 2,29,30
 580 11 580 11 572 5.5 c 128,-1,31
 564 0 564 0 555 0 c 0,32,33
 545 0 545 0 537.5 5.5 c 128,-1,34
 530 11 530 11 530 22 c 2,35,-1
 530 617 l 1,36,-1
 352 277 l 2,0,1
EndSplineSet
EndChar
StartChar: N
Encoding: 78 78 69
Width: 563
Flags: W
LayerCount: 2
Back
Fore
SplineSet
459 0 m 0,0,1
 448 0 448 0 439 12 c 128,-1,2
 430 24 430 24 423 37 c 2,3,-1
 129 613 l 1,4,-1
 129 22 l 2,5,6
 129 11 129 11 121.5 5.5 c 128,-1,7
 114 0 114 0 104 0 c 0,8,9
 95 0 95 0 87 5.5 c 128,-1,10
 79 11 79 11 79 22 c 2,11,-1
 79 710 l 2,12,13
 79 722 79 722 86.5 726.5 c 128,-1,14
 94 731 94 731 104 731 c 0,15,16
 118 731 118 731 128 717 c 128,-1,17
 138 703 138 703 145 690 c 2,18,-1
 434 119 l 1,19,-1
 434 710 l 2,20,21
 434 721 434 721 442 726 c 128,-1,22
 450 731 450 731 459 731 c 0,23,24
 469 731 469 731 476.5 726 c 128,-1,25
 484 721 484 721 484 710 c 2,26,-1
 484 22 l 2,27,28
 484 11 484 11 476.5 5.5 c 128,-1,29
 469 0 469 0 459 0 c 0,0,1
EndSplineSet
EndChar
StartChar: O
Encoding: 79 79 74
Width: 547
Flags: W
LayerCount: 2
Back
Fore
SplineSet
273 -6 m 0,0,1
 230 -6 230 -6 193.5 5.5 c 128,-1,2
 157 17 157 17 130 42 c 128,-1,3
 103 67 103 67 87.5 107 c 128,-1,4
 72 147 72 147 72 204 c 2,5,-1
 72 521 l 2,6,7
 72 578 72 578 87.5 618 c 128,-1,8
 103 658 103 658 130 683 c 128,-1,9
 157 708 157 708 193.5 719.5 c 128,-1,10
 230 731 230 731 273 731 c 0,11,12
 315 731 315 731 352 719.5 c 128,-1,13
 389 708 389 708 416.5 683 c 128,-1,14
 444 658 444 658 459.5 618 c 128,-1,15
 475 578 475 578 475 521 c 2,16,-1
 475 204 l 2,17,18
 475 147 475 147 459.5 107 c 128,-1,19
 444 67 444 67 416.5 42 c 128,-1,20
 389 17 389 17 352 5.5 c 128,-1,21
 315 -6 315 -6 273 -6 c 0,0,1
425 521 m 2,22,23
 425 605 425 605 385 644 c 128,-1,24
 345 683 345 683 273 683 c 256,25,26
 201 683 201 683 161.5 644 c 128,-1,27
 122 605 122 605 122 521 c 2,28,-1
 122 204 l 2,29,30
 122 120 122 120 161.5 81 c 128,-1,31
 201 42 201 42 273 42 c 256,32,33
 345 42 345 42 385 81 c 128,-1,34
 425 120 425 120 425 204 c 2,35,-1
 425 521 l 2,22,23
EndSplineSet
EndChar
StartChar: P
Encoding: 80 80 87
Width: 519
Flags: W
LayerCount: 2
Back
Fore
SplineSet
79 710 m 2,0,1
 79 729 79 729 102 731 c 2,2,-1
 282 731 l 2,3,4
 324 731 324 731 361 719.5 c 128,-1,5
 398 708 398 708 425 683.5 c 128,-1,6
 452 659 452 659 467.5 619 c 128,-1,7
 483 579 483 579 483 522 c 2,8,-1
 483 511 l 2,9,10
 483 454 483 454 467.5 414 c 128,-1,11
 452 374 452 374 424.5 349 c 128,-1,12
 397 324 397 324 360 312.5 c 128,-1,13
 323 301 323 301 281 301 c 2,14,-1
 129 301 l 1,15,-1
 129 22 l 2,16,17
 129 11 129 11 121.5 5.5 c 128,-1,18
 114 0 114 0 104 0 c 0,19,20
 95 0 95 0 87 5.5 c 128,-1,21
 79 11 79 11 79 22 c 2,22,-1
 79 710 l 2,0,1
129 683 m 1,23,-1
 129 347 l 1,24,-1
 281 347 l 2,25,26
 353 347 353 347 393 386.5 c 128,-1,27
 433 426 433 426 433 510 c 2,28,-1
 433 521 l 2,29,30
 433 605 433 605 393 644 c 128,-1,31
 353 683 353 683 281 683 c 2,32,-1
 129 683 l 1,23,-1
EndSplineSet
EndChar
StartChar: Q
Encoding: 81 81 88
Width: 547
Flags: W
LayerCount: 2
Back
Fore
SplineSet
274 -109 m 256,0,1
 266 -109 266 -109 259 -103.5 c 128,-1,2
 252 -98 252 -98 252 -87 c 2,3,-1
 252 -5 l 1,4,5
 213 -3 213 -3 180 9.5 c 128,-1,6
 147 22 147 22 123 47 c 128,-1,7
 99 72 99 72 85.5 111 c 128,-1,8
 72 150 72 150 72 204 c 2,9,-1
 72 521 l 2,10,11
 72 578 72 578 87.5 618 c 128,-1,12
 103 658 103 658 130 683 c 128,-1,13
 157 708 157 708 193.5 719.5 c 128,-1,14
 230 731 230 731 273 731 c 0,15,16
 315 731 315 731 352 719.5 c 128,-1,17
 389 708 389 708 416.5 683 c 128,-1,18
 444 658 444 658 459.5 618 c 128,-1,19
 475 578 475 578 475 521 c 2,20,-1
 475 204 l 2,21,22
 475 150 475 150 461.5 111.5 c 128,-1,23
 448 73 448 73 424 48 c 128,-1,24
 400 23 400 23 367 10 c 128,-1,25
 334 -3 334 -3 295 -5 c 1,26,-1
 295 -87 l 2,27,28
 295 -98 295 -98 288.5 -103.5 c 128,-1,29
 282 -109 282 -109 274 -109 c 256,0,1
425 521 m 2,30,31
 425 605 425 605 385 644 c 128,-1,32
 345 683 345 683 273 683 c 256,33,34
 201 683 201 683 161.5 644 c 128,-1,35
 122 605 122 605 122 521 c 2,36,-1
 122 204 l 2,37,38
 122 126 122 126 155.5 87 c 128,-1,39
 189 48 189 48 252 43 c 1,40,-1
 252 122 l 2,41,42
 252 133 252 133 259 138 c 128,-1,43
 266 143 266 143 274 143 c 256,44,45
 282 143 282 143 288.5 138 c 128,-1,46
 295 133 295 133 295 122 c 2,47,-1
 295 44 l 1,48,49
 356 49 356 49 390.5 88 c 128,-1,50
 425 127 425 127 425 204 c 2,51,-1
 425 521 l 2,30,31
EndSplineSet
EndChar
StartChar: R
Encoding: 82 82 89
Width: 516
Flags: W
LayerCount: 2
Back
Fore
SplineSet
79 710 m 2,0,1
 79 718 79 718 84.5 724.5 c 128,-1,2
 90 731 90 731 101 731 c 2,3,-1
 272 731 l 2,4,5
 314 731 314 731 352.5 721.5 c 128,-1,6
 391 712 391 712 420 689.5 c 128,-1,7
 449 667 449 667 466 629.5 c 128,-1,8
 483 592 483 592 483 537 c 0,9,10
 483 490 483 490 470.5 456 c 128,-1,11
 458 422 458 422 436 399 c 128,-1,12
 414 376 414 376 384 363.5 c 128,-1,13
 354 351 354 351 320 346 c 1,14,-1
 480 36 l 2,15,16
 483 30 483 30 483 24 c 0,17,18
 483 14 483 14 476 6.5 c 128,-1,19
 469 -1 469 -1 456 -1 c 0,20,21
 447 -1 447 -1 439 11 c 128,-1,22
 431 23 431 23 425 34 c 2,23,-1
 268 341 l 1,24,-1
 129 341 l 1,25,-1
 129 22 l 2,26,27
 129 11 129 11 121.5 5.5 c 128,-1,28
 114 0 114 0 104 0 c 0,29,30
 95 0 95 0 87 5.5 c 128,-1,31
 79 11 79 11 79 22 c 2,32,-1
 79 710 l 2,0,1
129 683 m 1,33,-1
 129 387 l 1,34,-1
 272 387 l 2,35,36
 308 387 308 387 337.5 395 c 128,-1,37
 367 403 367 403 388 421 c 128,-1,38
 409 439 409 439 421 467.5 c 128,-1,39
 433 496 433 496 433 536 c 256,40,41
 433 576 433 576 421 604 c 128,-1,42
 409 632 409 632 388 649.5 c 128,-1,43
 367 667 367 667 337.5 675 c 128,-1,44
 308 683 308 683 272 683 c 2,45,-1
 129 683 l 1,33,-1
EndSplineSet
EndChar
StartChar: S
Encoding: 83 83 93
Width: 487
Flags: W
LayerCount: 2
Back
Fore
SplineSet
233 42 m 0,0,1
 310 42 310 42 351 79.5 c 128,-1,2
 392 117 392 117 392 192 c 0,3,4
 392 237 392 237 377.5 266.5 c 128,-1,5
 363 296 363 296 339.5 315.5 c 128,-1,6
 316 335 316 335 286 347.5 c 128,-1,7
 256 360 256 360 224.5 371 c 128,-1,8
 193 382 193 382 163 395 c 128,-1,9
 133 408 133 408 109.5 428 c 128,-1,10
 86 448 86 448 71.5 478.5 c 128,-1,11
 57 509 57 509 57 555 c 0,12,13
 57 609 57 609 76.5 643.5 c 128,-1,14
 96 678 96 678 126 697.5 c 128,-1,15
 156 717 156 717 192 724.5 c 128,-1,16
 228 732 228 732 261 732 c 0,17,18
 291 732 291 732 320 727.5 c 128,-1,19
 349 723 349 723 372 715 c 128,-1,20
 395 707 395 707 409.5 696.5 c 128,-1,21
 424 686 424 686 424 675 c 0,22,23
 424 667 424 667 417.5 656.5 c 128,-1,24
 411 646 411 646 401 646 c 0,25,26
 395 646 395 646 384.5 652 c 128,-1,27
 374 658 374 658 357.5 665 c 128,-1,28
 341 672 341 672 317 678 c 128,-1,29
 293 684 293 684 260 684 c 0,30,31
 232 684 232 684 204.5 678.5 c 128,-1,32
 177 673 177 673 155.5 658.5 c 128,-1,33
 134 644 134 644 120.5 620 c 128,-1,34
 107 596 107 596 107 559 c 0,35,36
 107 509 107 509 132 482 c 128,-1,37
 157 455 157 455 194 438 c 128,-1,38
 231 421 231 421 274.5 408 c 128,-1,39
 318 395 318 395 355 371.5 c 128,-1,40
 392 348 392 348 417 307.5 c 128,-1,41
 442 267 442 267 442 197 c 0,42,43
 442 144 442 144 426.5 105.5 c 128,-1,44
 411 67 411 67 384 42 c 128,-1,45
 357 17 357 17 319.5 5.5 c 128,-1,46
 282 -6 282 -6 238 -6 c 0,47,48
 190 -6 190 -6 153 5.5 c 128,-1,49
 116 17 116 17 90.5 33.5 c 128,-1,50
 65 50 65 50 52 68 c 128,-1,51
 39 86 39 86 39 98 c 0,52,53
 39 108 39 108 46.5 117 c 128,-1,54
 54 126 54 126 62 126 c 0,55,56
 71 126 71 126 80.5 113 c 128,-1,57
 90 100 90 100 107.5 84 c 128,-1,58
 125 68 125 68 154.5 55 c 128,-1,59
 184 42 184 42 233 42 c 0,0,1
EndSplineSet
EndChar
StartChar: T
Encoding: 84 84 99
Width: 468
Flags: W
LayerCount: 2
Back
Fore
SplineSet
432 731 m 2,0,1
 443 731 443 731 448 724 c 128,-1,2
 453 717 453 717 453 708 c 256,3,4
 453 699 453 699 448 691 c 128,-1,5
 443 683 443 683 432 683 c 2,6,-1
 260 683 l 1,7,-1
 260 22 l 2,8,9
 260 11 260 11 252 5.5 c 128,-1,10
 244 0 244 0 235 0 c 0,11,12
 225 0 225 0 217.5 5.5 c 128,-1,13
 210 11 210 11 210 22 c 2,14,-1
 210 683 l 1,15,-1
 36 683 l 2,16,17
 26 683 26 683 20.5 690.5 c 128,-1,18
 15 698 15 698 15 707 c 256,19,20
 15 716 15 716 20.5 723.5 c 128,-1,21
 26 731 26 731 36 731 c 2,22,-1
 432 731 l 2,0,1
EndSplineSet
EndChar
StartChar: U
Encoding: 85 85 104
Width: 557
Flags: W
LayerCount: 2
Back
Fore
SplineSet
431 710 m 2,0,1
 431 721 431 721 438.5 726 c 128,-1,2
 446 731 446 731 456 731 c 0,3,4
 465 731 465 731 473 726 c 128,-1,5
 481 721 481 721 481 710 c 2,6,-1
 481 204 l 2,7,8
 481 147 481 147 465.5 107 c 128,-1,9
 450 67 450 67 422.5 42 c 128,-1,10
 395 17 395 17 358 5.5 c 128,-1,11
 321 -6 321 -6 278 -6 c 256,12,13
 235 -6 235 -6 198 5.5 c 128,-1,14
 161 17 161 17 134 42 c 128,-1,15
 107 67 107 67 91.5 107 c 128,-1,16
 76 147 76 147 76 204 c 2,17,-1
 76 710 l 2,18,19
 76 721 76 721 84 726 c 128,-1,20
 92 731 92 731 101 731 c 0,21,22
 111 731 111 731 118.5 726 c 128,-1,23
 126 721 126 721 126 710 c 2,24,-1
 126 204 l 2,25,26
 126 120 126 120 166 81 c 128,-1,27
 206 42 206 42 278 42 c 256,28,29
 350 42 350 42 390.5 81 c 128,-1,30
 431 120 431 120 431 204 c 2,31,-1
 431 710 l 2,0,1
EndSplineSet
EndChar
StartChar: V
Encoding: 86 86 115
Width: 528
Flags: W
LayerCount: 2
Back
Fore
SplineSet
23 703 m 2,0,1
 22 705 22 705 22 709 c 0,2,3
 22 720 22 720 31 725.5 c 128,-1,4
 40 731 40 731 50 731 c 0,5,6
 67 731 67 731 72 716 c 2,7,-1
 265 84 l 1,8,-1
 457 716 l 2,9,10
 461 731 461 731 477 731 c 0,11,12
 488 731 488 731 497 724.5 c 128,-1,13
 506 718 506 718 506 709 c 0,14,15
 506 707 506 707 505.5 706 c 128,-1,16
 505 705 505 705 505 703 c 2,17,-1
 293 12 l 2,18,19
 291 3 291 3 282.5 -1.5 c 128,-1,20
 274 -6 274 -6 265 -6 c 0,21,22
 243 -6 243 -6 237 12 c 2,23,-1
 23 703 l 2,0,1
EndSplineSet
EndChar
StartChar: W
Encoding: 87 87 116
Width: 762
Flags: W
LayerCount: 2
Back
Fore
SplineSet
541 12 m 2,0,1
 538 3 538 3 529.5 -1.5 c 128,-1,2
 521 -6 521 -6 512 -6 c 256,3,4
 503 -6 503 -6 495 -1.5 c 128,-1,5
 487 3 487 3 485 12 c 2,6,-1
 382 386 l 1,7,-1
 279 12 l 2,8,9
 277 3 277 3 269 -1.5 c 128,-1,10
 261 -6 261 -6 251 -6 c 256,11,12
 241 -6 241 -6 233 -1.5 c 128,-1,13
 225 3 225 3 223 12 c 2,14,-1
 25 703 l 2,15,16
 24 706 24 706 24 710 c 0,17,18
 24 720 24 720 32.5 725.5 c 128,-1,19
 41 731 41 731 51 731 c 0,20,21
 59 731 59 731 65.5 727.5 c 128,-1,22
 72 724 72 724 74 716 c 2,23,-1
 251 84 l 1,24,-1
 353 463 l 2,25,26
 355 473 355 473 363 478 c 128,-1,27
 371 483 371 483 380 483 c 0,28,29
 388 483 388 483 396.5 478 c 128,-1,30
 405 473 405 473 408 463 c 2,31,-1
 513 84 l 1,32,-1
 688 716 l 2,33,34
 690 724 690 724 696.5 727.5 c 128,-1,35
 703 731 703 731 711 731 c 0,36,37
 721 731 721 731 729.5 725.5 c 128,-1,38
 738 720 738 720 738 710 c 0,39,40
 738 706 738 706 737 703 c 2,41,-1
 541 12 l 2,0,1
EndSplineSet
EndChar
StartChar: X
Encoding: 88 88 121
Width: 465
Flags: W
LayerCount: 2
Back
Fore
SplineSet
232 319 m 1,0,-1
 84 33 l 2,1,2
 79 22 79 22 72 10.5 c 128,-1,3
 65 -1 65 -1 54 -1 c 0,4,5
 44 -1 44 -1 35 6 c 128,-1,6
 26 13 26 13 26 24 c 0,7,8
 26 27 26 27 27 30 c 128,-1,9
 28 33 28 33 30 37 c 2,10,-1
 202 366 l 1,11,-1
 33 692 l 2,12,13
 27 702 27 702 27 711 c 0,14,15
 27 721 27 721 35 726.5 c 128,-1,16
 43 732 43 732 55 732 c 0,17,18
 66 732 66 732 73.5 720.5 c 128,-1,19
 81 709 81 709 87 697 c 2,20,-1
 232 414 l 1,21,-1
 378 697 l 2,22,23
 384 708 384 708 391.5 720 c 128,-1,24
 399 732 399 732 410 732 c 0,25,26
 422 732 422 732 430 726.5 c 128,-1,27
 438 721 438 721 438 711 c 0,28,29
 438 702 438 702 432 692 c 2,30,-1
 262 366 l 1,31,-1
 435 37 l 2,32,33
 437 33 437 33 438 30 c 128,-1,34
 439 27 439 27 439 24 c 0,35,36
 439 13 439 13 430.5 6 c 128,-1,37
 422 -1 422 -1 411 -1 c 256,38,39
 400 -1 400 -1 393 10.5 c 128,-1,40
 386 22 386 22 381 33 c 2,41,-1
 232 319 l 1,0,-1
EndSplineSet
EndChar
StartChar: Y
Encoding: 89 89 122
Width: 520
Flags: W
LayerCount: 2
Back
Fore
SplineSet
235 276 m 2,0,1
 235 279 235 279 233 283 c 2,2,-1
 26 690 l 2,3,4
 21 703 21 703 21 709 c 0,5,6
 21 720 21 720 28.5 725.5 c 128,-1,7
 36 731 36 731 45 731 c 0,8,9
 57 731 57 731 68 713 c 2,10,-1
 260 328 l 1,11,-1
 453 713 l 2,12,13
 462 731 462 731 476 731 c 0,14,15
 484 731 484 731 491 725.5 c 128,-1,16
 498 720 498 720 498 709 c 0,17,18
 498 706 498 706 497.5 701 c 128,-1,19
 497 696 497 696 494 690 c 2,20,-1
 286 283 l 2,21,22
 285 281 285 281 285 276 c 2,23,-1
 285 22 l 2,24,25
 285 11 285 11 277 5.5 c 128,-1,26
 269 0 269 0 260 0 c 0,27,28
 250 0 250 0 242.5 5.5 c 128,-1,29
 235 11 235 11 235 22 c 2,30,-1
 235 276 l 2,0,1
EndSplineSet
EndChar
StartChar: Z
Encoding: 90 90 127
Width: 474
Flags: W
LayerCount: 2
Back
Fore
SplineSet
91 48 m 1,0,-1
 428 48 l 2,1,2
 439 48 439 48 444 40.5 c 128,-1,3
 449 33 449 33 449 24 c 256,4,5
 449 15 449 15 444 7.5 c 128,-1,6
 439 0 439 0 428 0 c 2,7,-1
 47 0 l 2,8,9
 26 0 26 0 26 20 c 0,10,11
 26 29 26 29 31 37 c 2,12,-1
 373 683 l 1,13,-1
 58 683 l 2,14,15
 47 683 47 683 42 690.5 c 128,-1,16
 37 698 37 698 37 707 c 256,17,18
 37 716 37 716 42 723.5 c 128,-1,19
 47 731 47 731 58 731 c 2,20,-1
 417 731 l 2,21,22
 438 731 438 731 438 713 c 0,23,24
 438 702 438 702 432 692 c 2,25,-1
 91 48 l 1,0,-1
EndSplineSet
EndChar
StartChar: bracketleft
Encoding: 91 91 161
Width: 293
Flags: W
LayerCount: 2
Back
Fore
SplineSet
121 26 m 1,0,-1
 253 26 l 2,1,2
 261 26 261 26 267 19 c 128,-1,3
 273 12 273 12 273 2 c 0,4,5
 273 -7 273 -7 267.5 -14 c 128,-1,6
 262 -21 262 -21 253 -21 c 2,7,-1
 95 -21 l 2,8,9
 86 -21 86 -21 78.5 -15.5 c 128,-1,10
 71 -10 71 -10 71 0 c 2,11,-1
 71 747 l 2,12,13
 71 756 71 756 78 762 c 128,-1,14
 85 768 85 768 95 768 c 2,15,-1
 253 768 l 2,16,17
 262 768 262 768 267.5 761 c 128,-1,18
 273 754 273 754 273 745 c 0,19,20
 273 735 273 735 267 728 c 128,-1,21
 261 721 261 721 253 721 c 2,22,-1
 121 721 l 1,23,-1
 121 26 l 1,0,-1
EndSplineSet
EndChar
StartChar: backslash
Encoding: 92 92 157
Width: 344
Flags: W
LayerCount: 2
Back
Fore
SplineSet
28 723 m 2,0,1
 26 729 26 729 26 731 c 0,2,3
 26 742 26 742 33 748 c 128,-1,4
 40 754 40 754 49 754 c 0,5,6
 62 754 62 754 67 743 c 2,7,-1
 317 26 l 2,8,9
 318 24 318 24 318 19 c 0,10,11
 318 11 318 11 311.5 5.5 c 128,-1,12
 305 0 305 0 297 0 c 0,13,14
 281 0 281 0 277 14 c 2,15,-1
 28 723 l 2,0,1
EndSplineSet
EndChar
StartChar: bracketright
Encoding: 93 93 162
Width: 294
Flags: W
LayerCount: 2
Back
Fore
SplineSet
173 721 m 1,0,-1
 41 721 l 2,1,2
 32 721 32 721 26 728 c 128,-1,3
 20 735 20 735 20 745 c 0,4,5
 20 754 20 754 26 761 c 128,-1,6
 32 768 32 768 41 768 c 2,7,-1
 199 768 l 2,8,9
 209 768 209 768 216 762 c 128,-1,10
 223 756 223 756 223 747 c 2,11,-1
 223 0 l 2,12,13
 223 -10 223 -10 215.5 -15.5 c 128,-1,14
 208 -21 208 -21 199 -21 c 2,15,-1
 41 -21 l 2,16,17
 32 -21 32 -21 26 -14 c 128,-1,18
 20 -7 20 -7 20 2 c 0,19,20
 20 12 20 12 26 19 c 128,-1,21
 32 26 32 26 41 26 c 2,22,-1
 173 26 l 1,23,-1
 173 721 l 1,0,-1
EndSplineSet
EndChar
StartChar: underscore
Encoding: 95 95 392
Width: 342
Flags: W
LayerCount: 2
Back
Fore
SplineSet
-10 -23 m 256,0,1
 -10 -13 -10 -13 -4 -6.5 c 128,-1,2
 2 0 2 0 11 0 c 2,3,-1
 331 0 l 2,4,5
 339 0 339 0 345.5 -6.5 c 128,-1,6
 352 -13 352 -13 352 -23 c 256,7,8
 352 -33 352 -33 345.5 -39 c 128,-1,9
 339 -45 339 -45 331 -45 c 2,10,-1
 11 -45 l 2,11,12
 2 -45 2 -45 -4 -39 c 128,-1,13
 -10 -33 -10 -33 -10 -23 c 256,0,1
EndSplineSet
EndChar
StartChar: grave
Encoding: 96 96 235
Width: 143
Flags: W
LayerCount: 2
Back
Fore
SplineSet
11 654 m 2,0,1
 0 661 0 661 0 674 c 0,2,3
 0 682 0 682 5.5 689.5 c 128,-1,4
 11 697 11 697 20 697 c 0,5,6
 23 697 23 697 27 695 c 2,7,-1
 134 634 l 2,8,9
 143 630 143 630 143 619 c 0,10,11
 143 610 143 610 136.5 603 c 128,-1,12
 130 596 130 596 121 596 c 0,13,14
 117 596 117 596 111 599 c 2,15,-1
 11 654 l 2,0,1
EndSplineSet
EndChar
StartChar: b
Encoding: 98 98 155
Width: 475
Flags: W
LayerCount: 2
Back
Fore
SplineSet
90 766 m 256,0,1
 101 766 101 766 108 760 c 128,-1,2
 115 754 115 754 115 745 c 2,3,-1
 115 402 l 1,4,5
 132 431 132 431 165 454.5 c 128,-1,6
 198 478 198 478 248 478 c 0,7,8
 285 478 285 478 317.5 463.5 c 128,-1,9
 350 449 350 449 374.5 424.5 c 128,-1,10
 399 400 399 400 413.5 366.5 c 128,-1,11
 428 333 428 333 428 295 c 2,12,-1
 428 179 l 2,13,14
 428 143 428 143 413.5 109.5 c 128,-1,15
 399 76 399 76 374.5 50.5 c 128,-1,16
 350 25 350 25 318 9.5 c 128,-1,17
 286 -6 286 -6 250 -6 c 0,18,19
 204 -6 204 -6 167.5 16.5 c 128,-1,20
 131 39 131 39 114 70 c 1,21,-1
 114 22 l 2,22,23
 114 14 114 14 107 7 c 128,-1,24
 100 0 100 0 90 0 c 0,25,26
 79 0 79 0 72.5 7 c 128,-1,27
 66 14 66 14 66 22 c 2,28,-1
 66 745 l 2,29,30
 66 754 66 754 72.5 760 c 128,-1,31
 79 766 79 766 90 766 c 256,0,1
379 295 m 2,32,33
 379 321 379 321 368.5 345.5 c 128,-1,34
 358 370 358 370 339.5 389.5 c 128,-1,35
 321 409 321 409 296.5 420.5 c 128,-1,36
 272 432 272 432 245 432 c 0,37,38
 221 432 221 432 197.5 422.5 c 128,-1,39
 174 413 174 413 156 395.5 c 128,-1,40
 138 378 138 378 126.5 352.5 c 128,-1,41
 115 327 115 327 115 295 c 2,42,-1
 115 145 l 2,43,44
 115 133 115 133 125 115 c 128,-1,45
 135 97 135 97 152.5 80.5 c 128,-1,46
 170 64 170 64 194 52 c 128,-1,47
 218 40 218 40 246 40 c 0,48,49
 273 40 273 40 297 51.5 c 128,-1,50
 321 63 321 63 339.5 82.5 c 128,-1,51
 358 102 358 102 368.5 127 c 128,-1,52
 379 152 379 152 379 179 c 2,53,-1
 379 295 l 2,32,33
EndSplineSet
Substitution2: "'ss02' Style Set 2 in Latin lookup 4 subtable" b.ss02
Substitution2: "'salt' Stylistic Alternatives in Latin lookup 2 subtable" b.ss02
Substitution2: "'aalt' Access All Alternates in Latin lookup 0 subtable" b.ss02
EndChar
StartChar: c
Encoding: 99 99 166
Width: 406
Flags: W
LayerCount: 2
Back
Fore
SplineSet
237 -6 m 0,0,1
 189 -6 189 -6 153.5 8 c 128,-1,2
 118 22 118 22 95 46.5 c 128,-1,3
 72 71 72 71 60.5 105 c 128,-1,4
 49 139 49 139 49 179 c 2,5,-1
 49 293 l 2,6,7
 49 332 49 332 60 366 c 128,-1,8
 71 400 71 400 94.5 424.5 c 128,-1,9
 118 449 118 449 153.5 463.5 c 128,-1,10
 189 478 189 478 237 478 c 0,11,12
 268 478 268 478 293 471.5 c 128,-1,13
 318 465 318 465 335.5 456 c 128,-1,14
 353 447 353 447 362.5 436.5 c 128,-1,15
 372 426 372 426 372 417 c 256,16,17
 372 408 372 408 365.5 400.5 c 128,-1,18
 359 393 359 393 349 393 c 0,19,20
 343 393 343 393 335.5 399 c 128,-1,21
 328 405 328 405 316 412.5 c 128,-1,22
 304 420 304 420 285 426 c 128,-1,23
 266 432 266 432 238 432 c 0,24,25
 169 432 169 432 133.5 395 c 128,-1,26
 98 358 98 358 98 293 c 2,27,-1
 98 179 l 2,28,29
 98 114 98 114 133.5 77 c 128,-1,30
 169 40 169 40 239 40 c 0,31,32
 269 40 269 40 288.5 46 c 128,-1,33
 308 52 308 52 320.5 59.5 c 128,-1,34
 333 67 333 67 341 73.5 c 128,-1,35
 349 80 349 80 356 80 c 0,36,37
 365 80 365 80 371.5 72 c 128,-1,38
 378 64 378 64 378 56 c 0,39,40
 378 47 378 47 368 36 c 128,-1,41
 358 25 358 25 340 16 c 128,-1,42
 322 7 322 7 296 0.5 c 128,-1,43
 270 -6 270 -6 237 -6 c 0,0,1
EndSplineSet
EndChar
StartChar: d
Encoding: 100 100 182
Width: 476
Flags: W
LayerCount: 2
Back
Fore
SplineSet
386 766 m 256,0,1
 397 766 397 766 403.5 760 c 128,-1,2
 410 754 410 754 410 745 c 2,3,-1
 410 22 l 2,4,5
 410 14 410 14 403.5 7 c 128,-1,6
 397 0 397 0 386 0 c 0,7,8
 376 0 376 0 369 7 c 128,-1,9
 362 14 362 14 362 22 c 2,10,-1
 362 70 l 1,11,12
 345 39 345 39 308.5 16.5 c 128,-1,13
 272 -6 272 -6 226 -6 c 0,14,15
 190 -6 190 -6 158 9.5 c 128,-1,16
 126 25 126 25 101.5 50.5 c 128,-1,17
 77 76 77 76 62.5 109.5 c 128,-1,18
 48 143 48 143 48 179 c 2,19,-1
 48 295 l 2,20,21
 48 333 48 333 62.5 366.5 c 128,-1,22
 77 400 77 400 101.5 424.5 c 128,-1,23
 126 449 126 449 158.5 463.5 c 128,-1,24
 191 478 191 478 228 478 c 0,25,26
 278 478 278 478 311 454.5 c 128,-1,27
 344 431 344 431 361 402 c 1,28,-1
 361 745 l 2,29,30
 361 754 361 754 368 760 c 128,-1,31
 375 766 375 766 386 766 c 256,0,1
97 179 m 2,32,33
 97 152 97 152 107.5 127 c 128,-1,34
 118 102 118 102 136.5 82.5 c 128,-1,35
 155 63 155 63 179 51.5 c 128,-1,36
 203 40 203 40 230 40 c 0,37,38
 258 40 258 40 282 52 c 128,-1,39
 306 64 306 64 323.5 80.5 c 128,-1,40
 341 97 341 97 351 115 c 128,-1,41
 361 133 361 133 361 145 c 2,42,-1
 361 295 l 2,43,44
 361 327 361 327 349.5 352.5 c 128,-1,45
 338 378 338 378 320 395.5 c 128,-1,46
 302 413 302 413 278.5 422.5 c 128,-1,47
 255 432 255 432 231 432 c 0,48,49
 203 432 203 432 178.5 420.5 c 128,-1,50
 154 409 154 409 136 389.5 c 128,-1,51
 118 370 118 370 107.5 345.5 c 128,-1,52
 97 321 97 321 97 295 c 2,53,-1
 97 179 l 2,32,33
EndSplineSet
EndChar
StartChar: f
Encoding: 102 102 216
Width: 296
Flags: W
LayerCount: 2
Back
Fore
SplineSet
115 472 m 1,0,-1
 263 472 l 2,1,2
 272 472 272 472 278 465.5 c 128,-1,3
 284 459 284 459 284 451 c 0,4,5
 284 442 284 442 278 435.5 c 128,-1,6
 272 429 272 429 263 429 c 2,7,-1
 115 429 l 1,8,-1
 115 21 l 2,9,10
 115 11 115 11 107.5 5.5 c 128,-1,11
 100 0 100 0 89 0 c 0,12,13
 79 0 79 0 72.5 5.5 c 128,-1,14
 66 11 66 11 66 21 c 2,15,-1
 66 585 l 2,16,17
 66 622 66 622 80.5 654.5 c 128,-1,18
 95 687 95 687 119 712 c 128,-1,19
 143 737 143 737 175.5 751.5 c 128,-1,20
 208 766 208 766 244 766 c 2,21,-1
 261 766 l 2,22,23
 271 766 271 766 277.5 759 c 128,-1,24
 284 752 284 752 284 742 c 256,25,26
 284 732 284 732 277.5 726 c 128,-1,27
 271 720 271 720 261 720 c 2,28,-1
 248 720 l 2,29,30
 219 720 219 720 195 709 c 128,-1,31
 171 698 171 698 153.5 679.5 c 128,-1,32
 136 661 136 661 125.5 637 c 128,-1,33
 115 613 115 613 115 587 c 2,34,-1
 115 472 l 1,0,-1
EndSplineSet
EndChar
StartChar: g
Encoding: 103 103 228
Width: 448
Flags: W
LayerCount: 2
Back
Fore
SplineSet
219 107 m 0,0,1
 174 107 174 107 140 126 c 1,2,3
 126 119 126 119 115 109.5 c 128,-1,4
 104 100 104 100 104 82 c 256,5,6
 104 64 104 64 117.5 54 c 128,-1,7
 131 44 131 44 153 39 c 128,-1,8
 175 34 175 34 203.5 31.5 c 128,-1,9
 232 29 232 29 261 25 c 128,-1,10
 290 21 290 21 318.5 14.5 c 128,-1,11
 347 8 347 8 369 -5.5 c 128,-1,12
 391 -19 391 -19 404.5 -40.5 c 128,-1,13
 418 -62 418 -62 418 -96 c 0,14,15
 418 -164 418 -164 365.5 -199.5 c 128,-1,16
 313 -235 313 -235 226 -235 c 0,17,18
 182 -235 182 -235 146 -226 c 128,-1,19
 110 -217 110 -217 83.5 -199.5 c 128,-1,20
 57 -182 57 -182 42.5 -158 c 128,-1,21
 28 -134 28 -134 28 -104 c 0,22,23
 28 -59 28 -59 55.5 -32.5 c 128,-1,24
 83 -6 83 -6 116 6 c 1,25,26
 90 14 90 14 74 29.5 c 128,-1,27
 58 45 58 45 58 76 c 0,28,29
 58 104 58 104 71 120 c 128,-1,30
 84 136 84 136 107 147 c 1,31,32
 82 169 82 169 68 201.5 c 128,-1,33
 54 234 54 234 54 273 c 2,34,-1
 54 314 l 2,35,36
 54 350 54 350 66 380 c 128,-1,37
 78 410 78 410 99.5 432 c 128,-1,38
 121 454 121 454 151.5 466 c 128,-1,39
 182 478 182 478 220 478 c 0,40,41
 293 478 293 478 338 433 c 1,42,43
 352 461 352 461 372.5 478 c 128,-1,44
 393 495 393 495 411 495 c 0,45,46
 425 495 425 495 431 487.5 c 128,-1,47
 437 480 437 480 437 472 c 0,48,49
 437 463 437 463 431.5 458 c 128,-1,50
 426 453 426 453 419 452 c 0,51,52
 407 451 407 451 391 442 c 128,-1,53
 375 433 375 433 361 407 c 1,54,55
 375 389 375 389 381 364.5 c 128,-1,56
 387 340 387 340 387 314 c 2,57,-1
 387 273 l 2,58,59
 387 237 387 237 374.5 207 c 128,-1,60
 362 177 362 177 340 154.5 c 128,-1,61
 318 132 318 132 287 119.5 c 128,-1,62
 256 107 256 107 219 107 c 0,0,1
339 314 m 2,63,64
 339 367 339 367 308 402 c 128,-1,65
 277 437 277 437 220 437 c 256,66,67
 163 437 163 437 132.5 402 c 128,-1,68
 102 367 102 367 102 314 c 2,69,-1
 102 274 l 2,70,71
 102 220 102 220 133 184 c 128,-1,72
 164 148 164 148 221 148 c 0,73,74
 276 148 276 148 307.5 183.5 c 128,-1,75
 339 219 339 219 339 273 c 2,76,-1
 339 314 l 2,63,64
369 -98 m 0,77,78
 369 -64 369 -64 347.5 -46.5 c 128,-1,79
 326 -29 326 -29 295 -21 c 128,-1,80
 264 -13 264 -13 231 -11 c 128,-1,81
 198 -9 198 -9 174 -6 c 1,82,83
 155 -12 155 -12 137.5 -19.5 c 128,-1,84
 120 -27 120 -27 106.5 -38.5 c 128,-1,85
 93 -50 93 -50 84.5 -65 c 128,-1,86
 76 -80 76 -80 76 -99 c 0,87,88
 76 -142 76 -142 115.5 -168.5 c 128,-1,89
 155 -195 155 -195 226 -195 c 0,90,91
 295 -195 295 -195 332 -169 c 128,-1,92
 369 -143 369 -143 369 -98 c 0,77,78
EndSplineSet
Substitution2: "'ss03' Style Set 3 in Latin lookup 5 subtable" g.ss03
Substitution2: "'salt' Stylistic Alternatives in Latin lookup 2 subtable" g.ss03
Substitution2: "'aalt' Access All Alternates in Latin lookup 0 subtable" g.ss03
EndChar
StartChar: h
Encoding: 104 104 242
Width: 488
Flags: W
LayerCount: 2
Back
Fore
SplineSet
115 22 m 2,0,1
 115 14 115 14 108 7 c 128,-1,2
 101 0 101 0 90 0 c 256,3,4
 79 0 79 0 72.5 7 c 128,-1,5
 66 14 66 14 66 22 c 2,6,-1
 66 745 l 2,7,8
 66 754 66 754 72.5 760 c 128,-1,9
 79 766 79 766 90 766 c 256,10,11
 101 766 101 766 108 760 c 128,-1,12
 115 754 115 754 115 745 c 2,13,-1
 115 402 l 1,14,15
 131 431 131 431 164 454.5 c 128,-1,16
 197 478 197 478 248 478 c 0,17,18
 284 478 284 478 316.5 463.5 c 128,-1,19
 349 449 349 449 373.5 424.5 c 128,-1,20
 398 400 398 400 412.5 366.5 c 128,-1,21
 427 333 427 333 427 295 c 2,22,-1
 427 22 l 2,23,24
 427 11 427 11 419 5.5 c 128,-1,25
 411 0 411 0 402 0 c 256,26,27
 393 0 393 0 385.5 5.5 c 128,-1,28
 378 11 378 11 378 22 c 2,29,-1
 378 295 l 2,30,31
 378 321 378 321 367.5 345.5 c 128,-1,32
 357 370 357 370 338.5 389.5 c 128,-1,33
 320 409 320 409 295.5 420.5 c 128,-1,34
 271 432 271 432 244 432 c 0,35,36
 220 432 220 432 197 422.5 c 128,-1,37
 174 413 174 413 155.5 395.5 c 128,-1,38
 137 378 137 378 126 352.5 c 128,-1,39
 115 327 115 327 115 295 c 2,40,-1
 115 22 l 2,0,1
EndSplineSet
EndChar
StartChar: i
Encoding: 105 105 247
Width: 181
Flags: W
LayerCount: 2
Back
Fore
SplineSet
90 472 m 256,0,1
 101 472 101 472 108 466.5 c 128,-1,2
 115 461 115 461 115 452 c 2,3,-1
 115 22 l 2,4,5
 115 14 115 14 108 7 c 128,-1,6
 101 0 101 0 90 0 c 256,7,8
 79 0 79 0 72.5 7 c 128,-1,9
 66 14 66 14 66 22 c 2,10,-1
 66 452 l 2,11,12
 66 461 66 461 72.5 466.5 c 128,-1,13
 79 472 79 472 90 472 c 256,0,1
90 693 m 0,14,15
 105 693 105 693 116 682.5 c 128,-1,16
 127 672 127 672 127 658 c 0,17,18
 127 643 127 643 116 632 c 128,-1,19
 105 621 105 621 90 621 c 0,20,21
 73 621 73 621 62.5 632 c 128,-1,22
 52 643 52 643 52 658 c 0,23,24
 52 672 52 672 62.5 682.5 c 128,-1,25
 73 693 73 693 90 693 c 0,14,15
EndSplineSet
EndChar
StartChar: j
Encoding: 106 106 259
Width: 181
Flags: W
LayerCount: 2
Back
Fore
SplineSet
90 693 m 0,0,1
 105 693 105 693 116 682.5 c 128,-1,2
 127 672 127 672 127 658 c 0,3,4
 127 643 127 643 116 632 c 128,-1,5
 105 621 105 621 90 621 c 0,6,7
 73 621 73 621 62.5 632 c 128,-1,8
 52 643 52 643 52 658 c 0,9,10
 52 672 52 672 62.5 682.5 c 128,-1,11
 73 693 73 693 90 693 c 0,0,1
90 472 m 256,12,13
 101 472 101 472 108 466.5 c 128,-1,14
 115 461 115 461 115 452 c 2,15,-1
 115 -46 l 2,16,17
 115 -88 115 -88 108.5 -122.5 c 128,-1,18
 102 -157 102 -157 87 -182 c 128,-1,19
 72 -207 72 -207 47.5 -221 c 128,-1,20
 23 -235 23 -235 -12 -235 c 0,21,22
 -24 -235 -24 -235 -30.5 -227.5 c 128,-1,23
 -37 -220 -37 -220 -37 -211 c 0,24,25
 -37 -201 -37 -201 -30.5 -195 c 128,-1,26
 -24 -189 -24 -189 -14 -189 c 0,27,28
 12 -189 12 -189 28 -178 c 128,-1,29
 44 -167 44 -167 52.5 -148 c 128,-1,30
 61 -129 61 -129 63.5 -103 c 128,-1,31
 66 -77 66 -77 66 -46 c 2,32,-1
 66 452 l 2,33,34
 66 461 66 461 72.5 466.5 c 128,-1,35
 79 472 79 472 90 472 c 256,12,13
EndSplineSet
EndChar
StartChar: k
Encoding: 107 107 261
Width: 445
Flags: W
LayerCount: 2
Back
Fore
SplineSet
249 299 m 1,0,-1
 429 35 l 2,1,2
 432 30 432 30 432 24 c 0,3,4
 432 15 432 15 424.5 7 c 128,-1,5
 417 -1 417 -1 407 -1 c 256,6,7
 397 -1 397 -1 390 9 c 2,8,-1
 214 267 l 1,9,-1
 115 181 l 1,10,-1
 115 22 l 2,11,12
 115 14 115 14 108 7 c 128,-1,13
 101 0 101 0 90 0 c 256,14,15
 79 0 79 0 72.5 7 c 128,-1,16
 66 14 66 14 66 22 c 2,17,-1
 66 745 l 2,18,19
 66 754 66 754 72.5 760 c 128,-1,20
 79 766 79 766 90 766 c 256,21,22
 101 766 101 766 108 760 c 128,-1,23
 115 754 115 754 115 745 c 2,24,-1
 115 242 l 1,25,-1
 373 468 l 2,26,27
 378 473 378 473 385 473 c 0,28,29
 394 473 394 473 402.5 467 c 128,-1,30
 411 461 411 461 411 450 c 0,31,32
 411 440 411 440 404 434 c 2,33,-1
 249 299 l 1,0,-1
EndSplineSet
EndChar
StartChar: l
Encoding: 108 108 264
Width: 197
Flags: W
LayerCount: 2
Back
Fore
SplineSet
98 766 m 256,0,1
 109 766 109 766 116 760 c 128,-1,2
 123 754 123 754 123 745 c 2,3,-1
 123 22 l 2,4,5
 123 14 123 14 116 7 c 128,-1,6
 109 0 109 0 98 0 c 256,7,8
 87 0 87 0 80.5 7 c 128,-1,9
 74 14 74 14 74 22 c 2,10,-1
 74 745 l 2,11,12
 74 754 74 754 80.5 760 c 128,-1,13
 87 766 87 766 98 766 c 256,0,1
EndSplineSet
EndChar
StartChar: m
Encoding: 109 109 274
Width: 774
Flags: W
LayerCount: 2
Back
Fore
SplineSet
364 299 m 2,0,1
 364 327 364 327 354.5 351.5 c 128,-1,2
 345 376 345 376 328.5 394 c 128,-1,3
 312 412 312 412 289.5 422 c 128,-1,4
 267 432 267 432 242 432 c 0,5,6
 218 432 218 432 195.5 422.5 c 128,-1,7
 173 413 173 413 155 395.5 c 128,-1,8
 137 378 137 378 126 352.5 c 128,-1,9
 115 327 115 327 115 295 c 2,10,-1
 115 22 l 2,11,12
 115 14 115 14 108 7 c 128,-1,13
 101 0 101 0 90 0 c 256,14,15
 79 0 79 0 72.5 7 c 128,-1,16
 66 14 66 14 66 22 c 2,17,-1
 66 452 l 2,18,19
 66 461 66 461 72.5 466.5 c 128,-1,20
 79 472 79 472 90 472 c 0,21,22
 100 472 100 472 107 466.5 c 128,-1,23
 114 461 114 461 114 452 c 2,24,-1
 114 402 l 1,25,26
 131 431 131 431 164 454.5 c 128,-1,27
 197 478 197 478 248 478 c 256,28,29
 299 478 299 478 336.5 450.5 c 128,-1,30
 374 423 374 423 394 378 c 1,31,32
 420 429 420 429 461 453.5 c 128,-1,33
 502 478 502 478 546 478 c 0,34,35
 578 478 578 478 608 466 c 128,-1,36
 638 454 638 454 661 430.5 c 128,-1,37
 684 407 684 407 698 373 c 128,-1,38
 712 339 712 339 712 295 c 2,39,-1
 712 22 l 2,40,41
 712 14 712 14 705 7 c 128,-1,42
 698 0 698 0 687 0 c 0,43,44
 677 0 677 0 670 7 c 128,-1,45
 663 14 663 14 663 22 c 2,46,-1
 663 295 l 2,47,48
 663 329 663 329 652 354.5 c 128,-1,49
 641 380 641 380 623.5 397.5 c 128,-1,50
 606 415 606 415 584 423.5 c 128,-1,51
 562 432 562 432 540 432 c 0,52,53
 516 432 516 432 493.5 422.5 c 128,-1,54
 471 413 471 413 453 396 c 128,-1,55
 435 379 435 379 424 354.5 c 128,-1,56
 413 330 413 330 413 300 c 2,57,-1
 413 21 l 2,58,59
 413 10 413 10 405.5 5 c 128,-1,60
 398 0 398 0 388 0 c 0,61,62
 380 0 380 0 372 5 c 128,-1,63
 364 10 364 10 364 21 c 2,64,-1
 364 299 l 2,0,1
EndSplineSet
Substitution2: "'ss04' Style Set 4 in Latin lookup 6 subtable" m.ss04
Substitution2: "'salt' Stylistic Alternatives in Latin lookup 2 subtable" m.ss04
Substitution2: "'aalt' Access All Alternates in Latin lookup 0 subtable" m.ss04
EndChar
StartChar: q
Encoding: 113 113 327
Width: 476
Flags: W
LayerCount: 2
Back
Fore
SplineSet
386 472 m 0,0,1
 397 472 397 472 403.5 466.5 c 128,-1,2
 410 461 410 461 410 452 c 2,3,-1
 410 -213 l 2,4,5
 410 -221 410 -221 403.5 -228 c 128,-1,6
 397 -235 397 -235 386 -235 c 256,7,8
 375 -235 375 -235 368 -228 c 128,-1,9
 361 -221 361 -221 361 -213 c 2,10,-1
 361 70 l 1,11,12
 344 39 344 39 307.5 16.5 c 128,-1,13
 271 -6 271 -6 226 -6 c 0,14,15
 190 -6 190 -6 158 9.5 c 128,-1,16
 126 25 126 25 101.5 50.5 c 128,-1,17
 77 76 77 76 62.5 109.5 c 128,-1,18
 48 143 48 143 48 179 c 2,19,-1
 48 295 l 2,20,21
 48 333 48 333 62.5 366.5 c 128,-1,22
 77 400 77 400 101.5 424.5 c 128,-1,23
 126 449 126 449 158.5 463.5 c 128,-1,24
 191 478 191 478 228 478 c 0,25,26
 278 478 278 478 311.5 454.5 c 128,-1,27
 345 431 345 431 362 402 c 1,28,-1
 362 452 l 2,29,30
 362 461 362 461 369 466.5 c 128,-1,31
 376 472 376 472 386 472 c 0,0,1
97 179 m 2,32,33
 97 152 97 152 108 127 c 128,-1,34
 119 102 119 102 137 82.5 c 128,-1,35
 155 63 155 63 179 51.5 c 128,-1,36
 203 40 203 40 230 40 c 0,37,38
 258 40 258 40 282 52 c 128,-1,39
 306 64 306 64 323.5 80.5 c 128,-1,40
 341 97 341 97 351 115 c 128,-1,41
 361 133 361 133 361 145 c 2,42,-1
 361 295 l 2,43,44
 361 327 361 327 350 352.5 c 128,-1,45
 339 378 339 378 320.5 395.5 c 128,-1,46
 302 413 302 413 278.5 422.5 c 128,-1,47
 255 432 255 432 231 432 c 0,48,49
 204 432 204 432 179.5 420.5 c 128,-1,50
 155 409 155 409 136.5 389.5 c 128,-1,51
 118 370 118 370 107.5 345.5 c 128,-1,52
 97 321 97 321 97 295 c 2,53,-1
 97 179 l 2,32,33
EndSplineSet
Substitution2: "'ss02' Style Set 2 in Latin lookup 4 subtable" q.ss02
Substitution2: "'salt' Stylistic Alternatives in Latin lookup 2 subtable" q.ss02
Substitution2: "'aalt' Access All Alternates in Latin lookup 0 subtable" q.ss02
EndChar
StartChar: r
Encoding: 114 114 339
Width: 319
Flags: W
LayerCount: 2
Back
Fore
SplineSet
250 432 m 2,0,1
 224 432 224 432 200 422 c 128,-1,2
 176 412 176 412 157 393 c 128,-1,3
 138 374 138 374 126.5 347 c 128,-1,4
 115 320 115 320 115 286 c 2,5,-1
 115 22 l 2,6,7
 115 14 115 14 108 7 c 128,-1,8
 101 0 101 0 90 0 c 256,9,10
 79 0 79 0 72.5 7 c 128,-1,11
 66 14 66 14 66 22 c 2,12,-1
 66 452 l 2,13,14
 66 461 66 461 72.5 466.5 c 128,-1,15
 79 472 79 472 90 472 c 0,16,17
 100 472 100 472 107 466.5 c 128,-1,18
 114 461 114 461 114 452 c 2,19,-1
 114 401 l 1,20,21
 131 430 131 430 165 454 c 128,-1,22
 199 478 199 478 250 478 c 2,23,-1
 286 478 l 2,24,25
 295 478 295 478 301.5 471.5 c 128,-1,26
 308 465 308 465 308 455 c 256,27,28
 308 445 308 445 301.5 438.5 c 128,-1,29
 295 432 295 432 286 432 c 2,30,-1
 250 432 l 2,0,1
EndSplineSet
Substitution2: "'ss04' Style Set 4 in Latin lookup 6 subtable" r.ss04
Substitution2: "'salt' Stylistic Alternatives in Latin lookup 2 subtable" r.ss04
Substitution2: "'aalt' Access All Alternates in Latin lookup 0 subtable" r.ss04
EndChar
StartChar: s
Encoding: 115 115 347
Width: 379
Flags: W
LayerCount: 2
Back
Fore
SplineSet
186 38 m 0,0,1
 246 38 246 38 271 61 c 128,-1,2
 296 84 296 84 296 115 c 0,3,4
 296 151 296 151 277.5 171 c 128,-1,5
 259 191 259 191 231.5 202.5 c 128,-1,6
 204 214 204 214 171.5 222.5 c 128,-1,7
 139 231 139 231 111.5 244.5 c 128,-1,8
 84 258 84 258 65.5 281 c 128,-1,9
 47 304 47 304 47 346 c 0,10,11
 47 369 47 369 55.5 392.5 c 128,-1,12
 64 416 64 416 82.5 435 c 128,-1,13
 101 454 101 454 129.5 466 c 128,-1,14
 158 478 158 478 199 478 c 0,15,16
 222 478 222 478 245 474 c 128,-1,17
 268 470 268 470 286 463.5 c 128,-1,18
 304 457 304 457 315.5 449 c 128,-1,19
 327 441 327 441 327 433 c 0,20,21
 327 426 327 426 320.5 416.5 c 128,-1,22
 314 407 314 407 305 407 c 0,23,24
 300 407 300 407 291 411 c 128,-1,25
 282 415 282 415 269.5 420.5 c 128,-1,26
 257 426 257 426 239.5 430 c 128,-1,27
 222 434 222 434 200 434 c 0,28,29
 170 434 170 434 150 425.5 c 128,-1,30
 130 417 130 417 117 404.5 c 128,-1,31
 104 392 104 392 98.5 376.5 c 128,-1,32
 93 361 93 361 93 347 c 0,33,34
 93 316 93 316 111.5 299.5 c 128,-1,35
 130 283 130 283 158 273 c 128,-1,36
 186 263 186 263 218 254.5 c 128,-1,37
 250 246 250 246 278 231 c 128,-1,38
 306 216 306 216 324.5 190 c 128,-1,39
 343 164 343 164 343 118 c 0,40,41
 343 60 343 60 302.5 27 c 128,-1,42
 262 -6 262 -6 187 -6 c 0,43,44
 152 -6 152 -6 124.5 1 c 128,-1,45
 97 8 97 8 77 18 c 128,-1,46
 57 28 57 28 46.5 40 c 128,-1,47
 36 52 36 52 36 62 c 0,48,49
 36 70 36 70 41.5 77.5 c 128,-1,50
 47 85 47 85 54 85 c 256,51,52
 61 85 61 85 70 77.5 c 128,-1,53
 79 70 79 70 93 61.5 c 128,-1,54
 107 53 107 53 129 45.5 c 128,-1,55
 151 38 151 38 186 38 c 0,0,1
EndSplineSet
EndChar
StartChar: t
Encoding: 116 116 367
Width: 284
Flags: W
LayerCount: 2
Back
Fore
SplineSet
113 143 m 2,0,1
 113 89 113 89 136 67.5 c 128,-1,2
 159 46 159 46 216 46 c 2,3,-1
 241 46 l 2,4,5
 252 46 252 46 258 39.5 c 128,-1,6
 264 33 264 33 264 23 c 0,7,8
 264 14 264 14 258 7 c 128,-1,9
 252 0 252 0 241 0 c 2,10,-1
 216 0 l 2,11,12
 141 0 141 0 102.5 34 c 128,-1,13
 64 68 64 68 64 143 c 2,14,-1
 64 680 l 2,15,16
 64 689 64 689 72 695 c 128,-1,17
 80 701 80 701 88 701 c 0,18,19
 98 701 98 701 105.5 695 c 128,-1,20
 113 689 113 689 113 680 c 2,21,-1
 113 472 l 1,22,-1
 246 472 l 2,23,24
 254 472 254 472 259.5 465.5 c 128,-1,25
 265 459 265 459 265 450 c 0,26,27
 265 442 265 442 259.5 435.5 c 128,-1,28
 254 429 254 429 246 429 c 2,29,-1
 113 429 l 1,30,-1
 113 143 l 2,0,1
EndSplineSet
EndChar
StartChar: u
Encoding: 117 117 383
Width: 488
Flags: W
LayerCount: 2
Back
Fore
SplineSet
244 -6 m 0,0,1
 206 -6 206 -6 172.5 9 c 128,-1,2
 139 24 139 24 114.5 49 c 128,-1,3
 90 74 90 74 75.5 107.5 c 128,-1,4
 61 141 61 141 61 177 c 2,5,-1
 61 451 l 2,6,7
 61 459 61 459 68 465.5 c 128,-1,8
 75 472 75 472 86 472 c 0,9,10
 95 472 95 472 102.5 465.5 c 128,-1,11
 110 459 110 459 110 451 c 2,12,-1
 110 177 l 2,13,14
 110 151 110 151 120.5 126 c 128,-1,15
 131 101 131 101 149 82 c 128,-1,16
 167 63 167 63 191.5 51.5 c 128,-1,17
 216 40 216 40 244 40 c 256,18,19
 272 40 272 40 296.5 51.5 c 128,-1,20
 321 63 321 63 339 82 c 128,-1,21
 357 101 357 101 367.5 125.5 c 128,-1,22
 378 150 378 150 378 177 c 2,23,-1
 378 452 l 2,24,25
 378 460 378 460 385.5 466 c 128,-1,26
 393 472 393 472 403 472 c 0,27,28
 414 472 414 472 420.5 466 c 128,-1,29
 427 460 427 460 427 452 c 2,30,-1
 427 177 l 2,31,32
 427 140 427 140 412.5 107 c 128,-1,33
 398 74 398 74 373 49 c 128,-1,34
 348 24 348 24 314.5 9 c 128,-1,35
 281 -6 281 -6 244 -6 c 0,0,1
EndSplineSet
Substitution2: "'ss05' Style Set 5 in Latin lookup 7 subtable" u.ss04
Substitution2: "'salt' Stylistic Alternatives in Latin lookup 2 subtable" u.ss04
Substitution2: "'aalt' Access All Alternates in Latin lookup 0 subtable" u.ss04
EndChar
StartChar: v
Encoding: 118 118 398
Width: 407
Flags: W
LayerCount: 2
Back
Fore
SplineSet
22 435 m 2,0,1
 21 437 21 437 19.5 442 c 128,-1,2
 18 447 18 447 18 450 c 0,3,4
 18 460 18 460 26.5 466.5 c 128,-1,5
 35 473 35 473 46 473 c 0,6,7
 52 473 52 473 58 470 c 128,-1,8
 64 467 64 467 66 461 c 2,9,-1
 203 83 l 1,10,-1
 340 455 l 2,11,12
 343 463 343 463 346.5 468 c 128,-1,13
 350 473 350 473 360 473 c 0,14,15
 369 473 369 473 379 467 c 128,-1,16
 389 461 389 461 389 451 c 0,17,18
 389 446 389 446 387.5 442 c 128,-1,19
 386 438 386 438 385 435 c 2,20,-1
 227 7 l 2,21,22
 220 -7 220 -7 203 -7 c 256,23,24
 186 -7 186 -7 180 7 c 2,25,-1
 22 435 l 2,0,1
EndSplineSet
EndChar
StartChar: w
Encoding: 119 119 399
Width: 661
Flags: W
LayerCount: 2
Back
Fore
SplineSet
483 7 m 2,0,1
 477 -7 477 -7 463 -7 c 256,2,3
 449 -7 449 -7 443 6 c 2,4,-1
 332 358 l 1,5,-1
 222 11 l 2,6,7
 216 -7 216 -7 200 -7 c 0,8,9
 192 -7 192 -7 187 -3.5 c 128,-1,10
 182 0 182 0 178 11 c 2,11,-1
 22 436 l 2,12,13
 21 438 21 438 19.5 443 c 128,-1,14
 18 448 18 448 18 450 c 0,15,16
 18 460 18 460 26.5 466.5 c 128,-1,17
 35 473 35 473 46 473 c 0,18,19
 60 473 60 473 66 461 c 2,20,-1
 201 86 l 1,21,-1
 310 430 l 2,22,23
 314 445 314 445 332 445 c 0,24,25
 349 445 349 445 353 430 c 2,26,-1
 459 81 l 1,27,-1
 597 461 l 2,28,29
 600 473 600 473 616 473 c 0,30,31
 626 473 626 473 634.5 467.5 c 128,-1,32
 643 462 643 462 643 451 c 0,33,34
 643 442 643 442 639 436 c 2,35,-1
 483 7 l 2,0,1
EndSplineSet
EndChar
StartChar: x
Encoding: 120 120 404
Width: 394
Flags: W
LayerCount: 2
Back
Fore
SplineSet
25 18 m 0,0,1
 25 23 25 23 29 29 c 2,2,-1
 165 239 l 1,3,-1
 30 443 l 2,4,5
 27 447 27 447 27 453 c 0,6,7
 27 463 27 463 35.5 470.5 c 128,-1,8
 44 478 44 478 55 478 c 0,9,10
 60 478 60 478 64.5 476.5 c 128,-1,11
 69 475 69 475 72 470 c 2,12,-1
 197 278 l 1,13,-1
 323 469 l 2,14,15
 329 478 329 478 339 478 c 256,16,17
 349 478 349 478 358 471 c 128,-1,18
 367 464 367 464 367 453 c 0,19,20
 367 447 367 447 364 443 c 2,21,-1
 228 238 l 1,22,-1
 365 29 l 2,23,24
 369 23 369 23 369 18 c 0,25,26
 369 9 369 9 360 1.5 c 128,-1,27
 351 -6 351 -6 341 -6 c 0,28,29
 330 -6 330 -6 324 2 c 2,30,-1
 197 198 l 1,31,-1
 71 2 l 2,32,33
 63 -6 63 -6 53 -6 c 256,34,35
 43 -6 43 -6 34 1 c 128,-1,36
 25 8 25 8 25 18 c 0,0,1
EndSplineSet
EndChar
StartChar: y
Encoding: 121 121 405
Width: 408
Flags: W
LayerCount: 2
Back
Fore
SplineSet
19 447 m 2,0,1
 17 453 17 453 17 455 c 0,2,3
 17 465 17 465 26 472 c 128,-1,4
 35 479 35 479 46 479 c 0,5,6
 52 479 52 479 57.5 475.5 c 128,-1,7
 63 472 63 472 65 466 c 2,8,-1
 206 81 l 1,9,-1
 343 466 l 2,10,11
 349 479 349 479 362 479 c 0,12,13
 371 479 371 479 380.5 472.5 c 128,-1,14
 390 466 390 466 390 455 c 0,15,16
 390 450 390 450 389 447 c 2,17,-1
 231 16 l 2,18,19
 217 -23 217 -23 199.5 -67 c 128,-1,20
 182 -111 182 -111 159.5 -148.5 c 128,-1,21
 137 -186 137 -186 107.5 -210.5 c 128,-1,22
 78 -235 78 -235 41 -235 c 0,23,24
 32 -235 32 -235 25 -229.5 c 128,-1,25
 18 -224 18 -224 18 -212 c 0,26,27
 18 -203 18 -203 22 -196 c 128,-1,28
 26 -189 26 -189 36 -189 c 0,29,30
 61 -189 61 -189 82.5 -171 c 128,-1,31
 104 -153 104 -153 122 -123.5 c 128,-1,32
 140 -94 140 -94 155 -57.5 c 128,-1,33
 170 -21 170 -21 181 16 c 1,34,-1
 19 447 l 2,0,1
EndSplineSet
EndChar
StartChar: z
Encoding: 122 122 411
Width: 393
Flags: W
LayerCount: 2
Back
Fore
SplineSet
347 46 m 2,0,1
 356 46 356 46 362 39 c 128,-1,2
 368 32 368 32 368 22 c 0,3,4
 368 13 368 13 362 6.5 c 128,-1,5
 356 0 356 0 347 0 c 2,6,-1
 47 0 l 2,7,8
 37 0 37 0 31 6 c 128,-1,9
 25 12 25 12 25 20 c 0,10,11
 25 30 25 30 32 39 c 2,12,-1
 288 427 l 1,13,-1
 56 427 l 2,14,15
 47 427 47 427 41 433.5 c 128,-1,16
 35 440 35 440 35 449 c 0,17,18
 35 459 35 459 41 465.5 c 128,-1,19
 47 472 47 472 56 472 c 2,20,-1
 336 472 l 2,21,22
 344 472 344 472 350.5 466.5 c 128,-1,23
 357 461 357 461 357 451 c 256,24,25
 357 441 357 441 351 434 c 2,26,-1
 94 46 l 1,27,-1
 347 46 l 2,0,1
EndSplineSet
EndChar
StartChar: braceleft
Encoding: 123 123 159
Width: 297
Flags: W
LayerCount: 2
Back
Fore
SplineSet
32 384 m 256,0,1
 32 398 32 398 41.5 402 c 128,-1,2
 51 406 51 406 62 407.5 c 128,-1,3
 73 409 73 409 82.5 412 c 128,-1,4
 92 415 92 415 92 427 c 0,5,6
 92 434 92 434 89 458.5 c 128,-1,7
 86 483 86 483 82 512 c 128,-1,8
 78 541 78 541 75 567.5 c 128,-1,9
 72 594 72 594 72 605 c 0,10,11
 72 638 72 638 86.5 667.5 c 128,-1,12
 101 697 101 697 125.5 719.5 c 128,-1,13
 150 742 150 742 182.5 755 c 128,-1,14
 215 768 215 768 252 768 c 0,15,16
 264 768 264 768 270.5 761 c 128,-1,17
 277 754 277 754 277 745 c 256,18,19
 277 736 277 736 271 729 c 128,-1,20
 265 722 265 722 257 722 c 0,21,22
 228 722 228 722 203.5 712 c 128,-1,23
 179 702 179 702 161 685 c 128,-1,24
 143 668 143 668 132.5 646 c 128,-1,25
 122 624 122 624 122 600 c 0,26,27
 122 589 122 589 125 563 c 128,-1,28
 128 537 128 537 132 509 c 128,-1,29
 136 481 136 481 139 456.5 c 128,-1,30
 142 432 142 432 142 425 c 0,31,32
 142 408 142 408 129.5 397 c 128,-1,33
 117 386 117 386 108 384 c 1,34,35
 117 381 117 381 129.5 371 c 128,-1,36
 142 361 142 361 142 344 c 0,37,38
 142 335 142 335 139 306 c 128,-1,39
 136 277 136 277 132 242.5 c 128,-1,40
 128 208 128 208 125 176 c 128,-1,41
 122 144 122 144 122 131 c 0,42,43
 122 100 122 100 137 80 c 128,-1,44
 152 60 152 60 173 48 c 128,-1,45
 194 36 194 36 217 31 c 128,-1,46
 240 26 240 26 257 26 c 0,47,48
 268 26 268 26 272.5 18.5 c 128,-1,49
 277 11 277 11 277 4 c 0,50,51
 277 -7 277 -7 270 -13.5 c 128,-1,52
 263 -20 263 -20 252 -20 c 0,53,54
 215 -20 215 -20 182 -9 c 128,-1,55
 149 2 149 2 124.5 22 c 128,-1,56
 100 42 100 42 86 69.5 c 128,-1,57
 72 97 72 97 72 131 c 0,58,59
 72 143 72 143 75 175 c 128,-1,60
 78 207 78 207 82 241.5 c 128,-1,61
 86 276 86 276 89 305 c 128,-1,62
 92 334 92 334 92 342 c 0,63,64
 92 354 92 354 82.5 357 c 128,-1,65
 73 360 73 360 62 361.5 c 128,-1,66
 51 363 51 363 41.5 366.5 c 128,-1,67
 32 370 32 370 32 384 c 256,0,1
EndSplineSet
EndChar
StartChar: bar
Encoding: 124 124 158
Width: 192
Flags: W
LayerCount: 2
Back
Fore
SplineSet
96 768 m 0,0,1
 106 768 106 768 113.5 762 c 128,-1,2
 121 756 121 756 121 747 c 2,3,-1
 121 0 l 2,4,5
 121 -8 121 -8 113.5 -14.5 c 128,-1,6
 106 -21 106 -21 96 -21 c 0,7,8
 85 -21 85 -21 78 -14.5 c 128,-1,9
 71 -8 71 -8 71 0 c 2,10,-1
 71 747 l 2,11,12
 71 756 71 756 78 762 c 128,-1,13
 85 768 85 768 96 768 c 0,0,1
EndSplineSet
EndChar
StartChar: braceright
Encoding: 125 125 160
Width: 297
Flags: W
LayerCount: 2
Back
Fore
SplineSet
265 384 m 256,0,1
 265 370 265 370 255.5 366.5 c 128,-1,2
 246 363 246 363 235 361.5 c 128,-1,3
 224 360 224 360 214.5 357 c 128,-1,4
 205 354 205 354 205 342 c 0,5,6
 205 334 205 334 208.5 305 c 128,-1,7
 212 276 212 276 215.5 241.5 c 128,-1,8
 219 207 219 207 222.5 175 c 128,-1,9
 226 143 226 143 226 131 c 0,10,11
 226 97 226 97 212 69.5 c 128,-1,12
 198 42 198 42 173.5 22 c 128,-1,13
 149 2 149 2 116 -9 c 128,-1,14
 83 -20 83 -20 46 -20 c 0,15,16
 35 -20 35 -20 27.5 -13.5 c 128,-1,17
 20 -7 20 -7 20 4 c 0,18,19
 20 11 20 11 24.5 18.5 c 128,-1,20
 29 26 29 26 41 26 c 0,21,22
 57 26 57 26 80.5 31 c 128,-1,23
 104 36 104 36 125 48 c 128,-1,24
 146 60 146 60 161 80 c 128,-1,25
 176 100 176 100 176 131 c 0,26,27
 176 144 176 144 172.5 176 c 128,-1,28
 169 208 169 208 165.5 242.5 c 128,-1,29
 162 277 162 277 158.5 306 c 128,-1,30
 155 335 155 335 155 344 c 0,31,32
 155 361 155 361 167 371 c 128,-1,33
 179 381 179 381 189 384 c 1,34,35
 179 386 179 386 167 397 c 128,-1,36
 155 408 155 408 155 425 c 0,37,38
 155 432 155 432 158.5 456.5 c 128,-1,39
 162 481 162 481 165.5 509 c 128,-1,40
 169 537 169 537 172.5 563 c 128,-1,41
 176 589 176 589 176 600 c 0,42,43
 176 624 176 624 165.5 646 c 128,-1,44
 155 668 155 668 137 685 c 128,-1,45
 119 702 119 702 94 712 c 128,-1,46
 69 722 69 722 41 722 c 0,47,48
 32 722 32 722 26 729 c 128,-1,49
 20 736 20 736 20 745 c 256,50,51
 20 754 20 754 27 761 c 128,-1,52
 34 768 34 768 46 768 c 0,53,54
 83 768 83 768 115.5 755 c 128,-1,55
 148 742 148 742 172.5 719.5 c 128,-1,56
 197 697 197 697 211.5 667.5 c 128,-1,57
 226 638 226 638 226 605 c 0,58,59
 226 594 226 594 222.5 567.5 c 128,-1,60
 219 541 219 541 215.5 512 c 128,-1,61
 212 483 212 483 208.5 458.5 c 128,-1,62
 205 434 205 434 205 427 c 0,63,64
 205 415 205 415 214.5 412 c 128,-1,65
 224 409 224 409 235 407.5 c 128,-1,66
 246 406 246 406 255.5 402 c 128,-1,67
 265 398 265 398 265 384 c 256,0,1
EndSplineSet
EndChar
StartChar: asciitilde
Encoding: 126 126 151
Width: 401
Flags: W
LayerCount: 2
Back
Fore
SplineSet
136 255 m 0,0,1
 120 255 120 255 109 250 c 128,-1,2
 98 245 98 245 90 238.5 c 128,-1,3
 82 232 82 232 76.5 227 c 128,-1,4
 71 222 71 222 65 222 c 0,5,6
 57 222 57 222 53 228.5 c 128,-1,7
 49 235 49 235 49 243 c 0,8,9
 49 255 49 255 58 264.5 c 128,-1,10
 67 274 67 274 80.5 281.5 c 128,-1,11
 94 289 94 289 109.5 293 c 128,-1,12
 125 297 125 297 138 297 c 0,13,14
 157 297 157 297 172 291.5 c 128,-1,15
 187 286 187 286 201.5 279 c 128,-1,16
 216 272 216 272 231.5 266.5 c 128,-1,17
 247 261 247 261 267 261 c 0,18,19
 284 261 284 261 294 266 c 128,-1,20
 304 271 304 271 311 276.5 c 128,-1,21
 318 282 318 282 323 287 c 128,-1,22
 328 292 328 292 334 292 c 0,23,24
 342 292 342 292 346.5 286 c 128,-1,25
 351 280 351 280 351 273 c 0,26,27
 351 259 351 259 342 249 c 128,-1,28
 333 239 333 239 320 232.5 c 128,-1,29
 307 226 307 226 292.5 222.5 c 128,-1,30
 278 219 278 219 267 219 c 0,31,32
 248 219 248 219 233 224.5 c 128,-1,33
 218 230 218 230 203 237 c 128,-1,34
 188 244 188 244 172.5 249.5 c 128,-1,35
 157 255 157 255 136 255 c 0,0,1
EndSplineSet
EndChar
StartChar: exclamdown
Encoding: 161 161 215
Width: 198
Flags: W
LayerCount: 2
Back
Fore
SplineSet
67 29 m 0,0,1
 67 159 67 159 72.5 297 c 128,-1,2
 78 435 78 435 78 566 c 0,3,4
 78 575 78 575 85 580 c 128,-1,5
 92 585 92 585 99 585 c 256,6,7
 106 585 106 585 113 580 c 128,-1,8
 120 575 120 575 120 566 c 0,9,10
 120 435 120 435 125.5 297 c 128,-1,11
 131 159 131 159 131 29 c 0,12,13
 131 12 131 12 122 3 c 128,-1,14
 113 -6 113 -6 99 -6 c 256,15,16
 85 -6 85 -6 76 3 c 128,-1,17
 67 12 67 12 67 29 c 0,0,1
99 664 m 256,18,19
 82 664 82 664 70.5 676 c 128,-1,20
 59 688 59 688 59 705 c 256,21,22
 59 722 59 722 70.5 734 c 128,-1,23
 82 746 82 746 99 746 c 256,24,25
 116 746 116 746 127.5 734 c 128,-1,26
 139 722 139 722 139 705 c 256,27,28
 139 688 139 688 127.5 676 c 128,-1,29
 116 664 116 664 99 664 c 256,18,19
EndSplineSet
EndChar
StartChar: cent
Encoding: 162 162 175
Width: 408
Flags: W
LayerCount: 2
Back
Fore
SplineSet
207 694 m 0,0,1
 215 694 215 694 221.5 688 c 128,-1,2
 228 682 228 682 228 674 c 2,3,-1
 228 561 l 1,4,5
 256 561 256 561 281 555.5 c 128,-1,6
 306 550 306 550 325 542 c 128,-1,7
 344 534 344 534 355 523 c 128,-1,8
 366 512 366 512 366 501 c 0,9,10
 366 491 366 491 359 484 c 128,-1,11
 352 477 352 477 342 477 c 0,12,13
 336 477 336 477 328.5 483 c 128,-1,14
 321 489 321 489 308.5 496 c 128,-1,15
 296 503 296 503 277 509.5 c 128,-1,16
 258 516 258 516 228 516 c 1,17,-1
 228 218 l 1,18,19
 258 218 258 218 277.5 224.5 c 128,-1,20
 297 231 297 231 309 238 c 128,-1,21
 321 245 321 245 328 251 c 128,-1,22
 335 257 335 257 342 257 c 0,23,24
 352 257 352 257 359.5 250 c 128,-1,25
 367 243 367 243 367 233 c 0,26,27
 367 221 367 221 355 210 c 128,-1,28
 343 199 343 199 323.5 191 c 128,-1,29
 304 183 304 183 279 177.5 c 128,-1,30
 254 172 254 172 228 172 c 1,31,-1
 228 60 l 2,32,33
 228 52 228 52 221.5 46 c 128,-1,34
 215 40 215 40 207 40 c 0,35,36
 198 40 198 40 192 46 c 128,-1,37
 186 52 186 52 186 60 c 2,38,-1
 186 174 l 1,39,40
 111 185 111 185 74.5 235.5 c 128,-1,41
 38 286 38 286 38 357 c 2,42,-1
 38 376 l 2,43,44
 38 411 38 411 46.5 442 c 128,-1,45
 55 473 55 473 73 497 c 128,-1,46
 91 521 91 521 119 537 c 128,-1,47
 147 553 147 553 186 559 c 1,48,-1
 186 674 l 2,49,50
 186 682 186 682 192 688 c 128,-1,51
 198 694 198 694 207 694 c 0,0,1
84 357 m 2,52,53
 84 302 84 302 109 266.5 c 128,-1,54
 134 231 134 231 186 221 c 1,55,-1
 186 512 l 1,56,57
 134 501 134 501 109 465.5 c 128,-1,58
 84 430 84 430 84 376 c 2,59,-1
 84 357 l 2,52,53
EndSplineSet
EndChar
StartChar: sterling
Encoding: 163 163 365
Width: 473
Flags: W
LayerCount: 2
Back
Fore
SplineSet
414 48 m 2,0,1
 423 48 423 48 428 40.5 c 128,-1,2
 433 33 433 33 433 24 c 256,3,4
 433 15 433 15 428 7.5 c 128,-1,5
 423 0 423 0 414 0 c 2,6,-1
 47 0 l 2,7,8
 36 0 36 0 30.5 7.5 c 128,-1,9
 25 15 25 15 25 24 c 256,10,11
 25 33 25 33 30.5 40.5 c 128,-1,12
 36 48 36 48 47 48 c 2,13,-1
 108 48 l 1,14,-1
 152 367 l 1,15,-1
 71 367 l 2,16,17
 62 367 62 367 57 373 c 128,-1,18
 52 379 52 379 52 388 c 256,19,20
 52 397 52 397 57 404 c 128,-1,21
 62 411 62 411 71 411 c 2,22,-1
 159 411 l 1,23,-1
 184 585 l 2,24,25
 189 622 189 622 208 655.5 c 128,-1,26
 227 689 227 689 255.5 714 c 128,-1,27
 284 739 284 739 320 753.5 c 128,-1,28
 356 768 356 768 394 768 c 2,29,-1
 410 768 l 2,30,31
 421 768 421 768 427 760.5 c 128,-1,32
 433 753 433 753 433 744 c 0,33,34
 433 736 433 736 427 728.5 c 128,-1,35
 421 721 421 721 410 721 c 2,36,-1
 389 721 l 2,37,38
 359 721 359 721 332.5 709.5 c 128,-1,39
 306 698 306 698 285 679.5 c 128,-1,40
 264 661 264 661 250.5 636.5 c 128,-1,41
 237 612 237 612 233 585 c 2,42,-1
 208 411 l 1,43,-1
 364 411 l 2,44,45
 374 411 374 411 378.5 403.5 c 128,-1,46
 383 396 383 396 383 388 c 256,47,48
 383 380 383 380 378.5 373.5 c 128,-1,49
 374 367 374 367 364 367 c 2,50,-1
 201 367 l 1,51,-1
 156 48 l 1,52,-1
 414 48 l 2,0,1
EndSplineSet
EndChar
StartChar: currency
Encoding: 164 164 181
Width: 483
Flags: W
LayerCount: 2
Back
Fore
SplineSet
243 652 m 0,0,1
 274 652 274 652 302 641.5 c 128,-1,2
 330 631 330 631 353 612 c 1,3,-1
 380 639 l 2,4,5
 385 644 385 644 394 644 c 0,6,7
 401 644 401 644 406.5 638.5 c 128,-1,8
 412 633 412 633 412 626 c 0,9,10
 412 618 412 618 407 613 c 2,11,-1
 379 585 l 1,12,13
 399 562 399 562 410 533 c 128,-1,14
 421 504 421 504 421 472 c 256,15,16
 421 440 421 440 409.5 411 c 128,-1,17
 398 382 398 382 378 359 c 1,18,-1
 407 330 l 2,19,20
 412 323 412 323 412 318 c 0,21,22
 412 311 412 311 406.5 305.5 c 128,-1,23
 401 300 401 300 394 300 c 0,24,25
 386 300 386 300 381 305 c 2,26,-1
 353 332 l 1,27,28
 330 312 330 312 302 301 c 128,-1,29
 274 290 274 290 243 290 c 0,30,31
 210 290 210 290 181 302.5 c 128,-1,32
 152 315 152 315 128 336 c 1,33,-1
 96 305 l 2,34,35
 91 300 91 300 84 300 c 0,36,37
 76 300 76 300 70.5 305.5 c 128,-1,38
 65 311 65 311 65 318 c 256,39,40
 65 325 65 325 70 330 c 2,41,-1
 103 363 l 1,42,43
 86 386 86 386 76 414 c 128,-1,44
 66 442 66 442 66 472 c 256,45,46
 66 502 66 502 75.5 529.5 c 128,-1,47
 85 557 85 557 102 580 c 1,48,-1
 76 607 l 2,49,50
 71 612 71 612 71 620 c 256,51,52
 71 628 71 628 77 633 c 128,-1,53
 83 638 83 638 91 638 c 0,54,55
 98 638 98 638 103 633 c 2,56,-1
 128 608 l 1,57,58
 151 628 151 628 180.5 640 c 128,-1,59
 210 652 210 652 243 652 c 0,0,1
378 472 m 0,60,61
 378 498 378 498 367.5 522.5 c 128,-1,62
 357 547 357 547 338.5 566.5 c 128,-1,63
 320 586 320 586 295.5 597.5 c 128,-1,64
 271 609 271 609 243 609 c 256,65,66
 215 609 215 609 190.5 597.5 c 128,-1,67
 166 586 166 586 148 567 c 128,-1,68
 130 548 130 548 119.5 523 c 128,-1,69
 109 498 109 498 109 472 c 0,70,71
 109 445 109 445 119.5 420 c 128,-1,72
 130 395 130 395 148 375.5 c 128,-1,73
 166 356 166 356 190.5 344.5 c 128,-1,74
 215 333 215 333 243 333 c 256,75,76
 271 333 271 333 295.5 344.5 c 128,-1,77
 320 356 320 356 338.5 375.5 c 128,-1,78
 357 395 357 395 367.5 420 c 128,-1,79
 378 445 378 445 378 472 c 0,60,61
EndSplineSet
EndChar
StartChar: yen
Encoding: 165 165 409
Width: 490
Flags: W
LayerCount: 2
Back
Fore
SplineSet
77 331 m 0,0,1
 77 353 77 353 97 353 c 2,2,-1
 204 353 l 1,3,-1
 27 701 l 2,4,5
 25 705 25 705 25 709 c 0,6,7
 25 717 25 717 32.5 724.5 c 128,-1,8
 40 732 40 732 51 732 c 0,9,10
 64 732 64 732 71 719 c 2,11,-1
 241 384 l 1,12,-1
 420 719 l 2,13,14
 428 732 428 732 440 732 c 0,15,16
 449 732 449 732 457 725.5 c 128,-1,17
 465 719 465 719 465 709 c 0,18,19
 465 705 465 705 463 701 c 2,20,-1
 277 353 l 1,21,-1
 391 353 l 2,22,23
 399 353 399 353 405.5 347 c 128,-1,24
 412 341 412 341 412 331 c 0,25,26
 412 322 412 322 405.5 316 c 128,-1,27
 399 310 399 310 391 310 c 2,28,-1
 265 310 l 1,29,-1
 265 234 l 1,30,-1
 391 234 l 2,31,32
 399 234 399 234 405.5 227.5 c 128,-1,33
 412 221 412 221 412 212 c 0,34,35
 412 202 412 202 405.5 196.5 c 128,-1,36
 399 191 399 191 391 191 c 2,37,-1
 265 191 l 1,38,-1
 265 21 l 2,39,40
 265 12 265 12 258.5 6 c 128,-1,41
 252 0 252 0 241 0 c 0,42,43
 231 0 231 0 223.5 6 c 128,-1,44
 216 12 216 12 216 21 c 2,45,-1
 216 191 l 1,46,-1
 97 191 l 2,47,48
 77 191 77 191 77 212 c 0,49,50
 77 221 77 221 82.5 227.5 c 128,-1,51
 88 234 88 234 97 234 c 2,52,-1
 216 234 l 1,53,-1
 216 310 l 1,54,-1
 97 310 l 2,55,56
 88 310 88 310 82.5 316 c 128,-1,57
 77 322 77 322 77 331 c 0,0,1
EndSplineSet
EndChar
StartChar: brokenbar
Encoding: 166 166 164
Width: 193
Flags: W
LayerCount: 2
Back
Fore
SplineSet
96 768 m 0,0,1
 106 768 106 768 113.5 762 c 128,-1,2
 121 756 121 756 121 747 c 2,3,-1
 121 470 l 2,4,5
 121 462 121 462 113.5 456 c 128,-1,6
 106 450 106 450 96 450 c 0,7,8
 85 450 85 450 78.5 456 c 128,-1,9
 72 462 72 462 72 470 c 2,10,-1
 72 747 l 2,11,12
 72 756 72 756 78.5 762 c 128,-1,13
 85 768 85 768 96 768 c 0,0,1
96 297 m 0,14,15
 106 297 106 297 113.5 291 c 128,-1,16
 121 285 121 285 121 277 c 2,17,-1
 121 0 l 2,18,19
 121 -8 121 -8 113.5 -14.5 c 128,-1,20
 106 -21 106 -21 96 -21 c 0,21,22
 85 -21 85 -21 78.5 -14.5 c 128,-1,23
 72 -8 72 -8 72 0 c 2,24,-1
 72 277 l 2,25,26
 72 285 72 285 78.5 291 c 128,-1,27
 85 297 85 297 96 297 c 0,14,15
EndSplineSet
EndChar
StartChar: section
Encoding: 167 167 354
Width: 463
Flags: W
LayerCount: 2
Back
Fore
SplineSet
66 543 m 2,0,1
 66 600 66 600 82.5 636.5 c 128,-1,2
 99 673 99 673 123.5 694 c 128,-1,3
 148 715 148 715 177.5 723 c 128,-1,4
 207 731 207 731 234 731 c 0,5,6
 312 731 312 731 351 686 c 128,-1,7
 390 641 390 641 390 572 c 0,8,9
 390 556 390 556 383 550.5 c 128,-1,10
 376 545 376 545 367 545 c 0,11,12
 356 545 356 545 349 551 c 128,-1,13
 342 557 342 557 342 573 c 0,14,15
 342 588 342 588 337.5 607.5 c 128,-1,16
 333 627 333 627 321.5 644 c 128,-1,17
 310 661 310 661 289.5 673 c 128,-1,18
 269 685 269 685 236 685 c 0,19,20
 215 685 215 685 193 678 c 128,-1,21
 171 671 171 671 153.5 655.5 c 128,-1,22
 136 640 136 640 125 613.5 c 128,-1,23
 114 587 114 587 114 548 c 0,24,25
 114 504 114 504 136 480 c 128,-1,26
 158 456 158 456 190.5 441.5 c 128,-1,27
 223 427 223 427 261 415.5 c 128,-1,28
 299 404 299 404 331.5 385.5 c 128,-1,29
 364 367 364 367 386 334.5 c 128,-1,30
 408 302 408 302 408 245 c 2,31,-1
 408 119 l 2,32,33
 408 69 408 69 394 34 c 128,-1,34
 380 -1 380 -1 355.5 -23 c 128,-1,35
 331 -45 331 -45 299 -55.5 c 128,-1,36
 267 -66 267 -66 231 -66 c 0,37,38
 189 -66 189 -66 155.5 -53 c 128,-1,39
 122 -40 122 -40 98.5 -17.5 c 128,-1,40
 75 5 75 5 62.5 35 c 128,-1,41
 50 65 50 65 50 99 c 0,42,43
 50 113 50 113 57 118.5 c 128,-1,44
 64 124 64 124 75 124 c 0,45,46
 87 124 87 124 92 117.5 c 128,-1,47
 97 111 97 111 97 103 c 0,48,49
 97 87 97 87 102 66 c 128,-1,50
 107 45 107 45 121.5 26 c 128,-1,51
 136 7 136 7 160.5 -6.5 c 128,-1,52
 185 -20 185 -20 224 -20 c 0,53,54
 289 -20 289 -20 323.5 14 c 128,-1,55
 358 48 358 48 358 113 c 0,56,57
 358 157 358 157 336.5 180.5 c 128,-1,58
 315 204 315 204 282.5 218.5 c 128,-1,59
 250 233 250 233 212 244.5 c 128,-1,60
 174 256 174 256 141.5 274.5 c 128,-1,61
 109 293 109 293 87.5 325.5 c 128,-1,62
 66 358 66 358 66 415 c 2,63,-1
 66 543 l 2,0,1
362 246 m 2,64,65
 362 283 362 283 348.5 306.5 c 128,-1,66
 335 330 335 330 313.5 345.5 c 128,-1,67
 292 361 292 361 264.5 370.5 c 128,-1,68
 237 380 237 380 209.5 389.5 c 128,-1,69
 182 399 182 399 156.5 411 c 128,-1,70
 131 423 131 423 113 444 c 1,71,-1
 113 413 l 2,72,73
 113 375 113 375 126.5 351.5 c 128,-1,74
 140 328 140 328 161.5 313 c 128,-1,75
 183 298 183 298 210.5 288.5 c 128,-1,76
 238 279 238 279 265.5 269.5 c 128,-1,77
 293 260 293 260 318.5 247.5 c 128,-1,78
 344 235 344 235 362 214 c 1,79,-1
 362 246 l 2,64,65
EndSplineSet
EndChar
StartChar: dieresis
Encoding: 168 168 188
Width: 182
Flags: W
LayerCount: 2
Back
Fore
SplineSet
33 662 m 256,0,1
 47 662 47 662 56 653 c 128,-1,2
 65 644 65 644 65 630 c 256,3,4
 65 616 65 616 56 606.5 c 128,-1,5
 47 597 47 597 33 597 c 256,6,7
 19 597 19 597 9.5 606.5 c 128,-1,8
 0 616 0 616 0 630 c 256,9,10
 0 644 0 644 9.5 653 c 128,-1,11
 19 662 19 662 33 662 c 256,0,1
150 662 m 0,12,13
 164 662 164 662 173 653 c 128,-1,14
 182 644 182 644 182 630 c 256,15,16
 182 616 182 616 173 606.5 c 128,-1,17
 164 597 164 597 150 597 c 0,18,19
 135 597 135 597 126 606.5 c 128,-1,20
 117 616 117 616 117 630 c 256,21,22
 117 644 117 644 126 653 c 128,-1,23
 135 662 135 662 150 662 c 0,12,13
EndSplineSet
EndChar
StartChar: copyright
Encoding: 169 169 180
Width: 724
Flags: W
LayerCount: 2
Back
Fore
SplineSet
55 358 m 0,0,1
 55 442 55 442 84 503.5 c 128,-1,2
 113 565 113 565 158 605.5 c 128,-1,3
 203 646 203 646 258 665.5 c 128,-1,4
 313 685 313 685 365 685 c 0,5,6
 418 685 418 685 472 665 c 128,-1,7
 526 645 526 645 570 605 c 128,-1,8
 614 565 614 565 641.5 504 c 128,-1,9
 669 443 669 443 669 362 c 0,10,11
 669 278 669 278 640 216.5 c 128,-1,12
 611 155 611 155 566 114.5 c 128,-1,13
 521 74 521 74 466 54.5 c 128,-1,14
 411 35 411 35 359 35 c 0,15,16
 306 35 306 35 252 55 c 128,-1,17
 198 75 198 75 154 115 c 128,-1,18
 110 155 110 155 82.5 216 c 128,-1,19
 55 277 55 277 55 358 c 0,0,1
630 362 m 0,20,21
 630 424 630 424 611 476 c 128,-1,22
 592 528 592 528 557 566 c 128,-1,23
 522 604 522 604 473.5 625 c 128,-1,24
 425 646 425 646 365 646 c 0,25,26
 306 646 306 646 256.5 625 c 128,-1,27
 207 604 207 604 171 566 c 128,-1,28
 135 528 135 528 114.5 475 c 128,-1,29
 94 422 94 422 94 358 c 0,30,31
 94 296 94 296 113 244 c 128,-1,32
 132 192 132 192 167 154 c 128,-1,33
 202 116 202 116 250.5 95 c 128,-1,34
 299 74 299 74 359 74 c 0,35,36
 418 74 418 74 467.5 95 c 128,-1,37
 517 116 517 116 553 154 c 128,-1,38
 589 192 589 192 609.5 245 c 128,-1,39
 630 298 630 298 630 362 c 0,20,21
423 464 m 0,40,41
 423 472 423 472 420.5 483 c 128,-1,42
 418 494 418 494 412 503.5 c 128,-1,43
 406 513 406 513 394.5 520 c 128,-1,44
 383 527 383 527 364 527 c 0,45,46
 303 527 303 527 303 448 c 2,47,-1
 303 285 l 2,48,49
 303 206 303 206 365 206 c 0,50,51
 384 206 384 206 395 212.5 c 128,-1,52
 406 219 406 219 412 229 c 128,-1,53
 418 239 418 239 420 250.5 c 128,-1,54
 422 262 422 262 423 272 c 0,55,56
 424 287 424 287 444 287 c 0,57,58
 455 287 455 287 460 282 c 128,-1,59
 465 277 465 277 465 263 c 0,60,61
 465 223 465 223 437.5 195.5 c 128,-1,62
 410 168 410 168 362 168 c 0,63,64
 321 168 321 168 291.5 194.5 c 128,-1,65
 262 221 262 221 262 285 c 2,66,-1
 262 448 l 2,67,68
 262 480 262 480 270 502.5 c 128,-1,69
 278 525 278 525 292 539 c 128,-1,70
 306 553 306 553 324 559.5 c 128,-1,71
 342 566 342 566 363 566 c 0,72,73
 411 566 411 566 438 538.5 c 128,-1,74
 465 511 465 511 465 472 c 0,75,76
 465 458 465 458 460 453 c 128,-1,77
 455 448 455 448 444 448 c 0,78,79
 425 448 425 448 423 464 c 0,40,41
EndSplineSet
EndChar
StartChar: ordfeminine
Encoding: 170 170 309
Width: 311
Flags: W
LayerCount: 2
Back
Fore
SplineSet
144 735 m 0,0,1
 175 735 175 735 197 725 c 128,-1,2
 219 715 219 715 233 698 c 128,-1,3
 247 681 247 681 253 659.5 c 128,-1,4
 259 638 259 638 259 614 c 2,5,-1
 259 452 l 2,6,7
 259 445 259 445 253 440 c 128,-1,8
 247 435 247 435 237 435 c 0,9,10
 229 435 229 435 223 440 c 128,-1,11
 217 445 217 445 217 452 c 2,12,-1
 217 478 l 1,13,14
 200 458 200 458 176 444.5 c 128,-1,15
 152 431 152 431 118 431 c 0,16,17
 85 431 85 431 61 451.5 c 128,-1,18
 37 472 37 472 37 513 c 0,19,20
 37 539 37 539 47.5 556 c 128,-1,21
 58 573 58 573 77.5 582.5 c 128,-1,22
 97 592 97 592 124 596 c 128,-1,23
 151 600 151 600 184 600 c 2,24,-1
 215 600 l 1,25,-1
 215 614 l 2,26,27
 215 629 215 629 211 644 c 128,-1,28
 207 659 207 659 198.5 671 c 128,-1,29
 190 683 190 683 176 690.5 c 128,-1,30
 162 698 162 698 143 698 c 0,31,32
 111 698 111 698 96.5 688.5 c 128,-1,33
 82 679 82 679 75 679 c 0,34,35
 67 679 67 679 62.5 686.5 c 128,-1,36
 58 694 58 694 58 702 c 0,37,38
 58 708 58 708 66 714 c 128,-1,39
 74 720 74 720 86 724.5 c 128,-1,40
 98 729 98 729 113.5 732 c 128,-1,41
 129 735 129 735 144 735 c 0,0,1
215 570 m 1,42,-1
 186 570 l 2,43,44
 165 570 165 570 146 568 c 128,-1,45
 127 566 127 566 112.5 560.5 c 128,-1,46
 98 555 98 555 89.5 544.5 c 128,-1,47
 81 534 81 534 81 517 c 0,48,49
 81 491 81 491 96 478.5 c 128,-1,50
 111 466 111 466 134 466 c 0,51,52
 149 466 149 466 163.5 472 c 128,-1,53
 178 478 178 478 189.5 488 c 128,-1,54
 201 498 201 498 208 509.5 c 128,-1,55
 215 521 215 521 215 532 c 2,56,-1
 215 570 l 1,42,-1
EndSplineSet
EndChar
StartChar: guillemotleft
Encoding: 171 171 238
Width: 381
Flags: W
LayerCount: 2
Back
Fore
SplineSet
180 108 m 2,0,1
 183 103 183 103 183 98 c 0,2,3
 183 89 183 89 174.5 81.5 c 128,-1,4
 166 74 166 74 155 74 c 0,5,6
 143 74 143 74 137 84 c 2,7,-1
 45 255 l 2,8,9
 41 261 41 261 39 266 c 128,-1,10
 37 271 37 271 37 277 c 0,11,12
 37 286 37 286 45 299 c 2,13,-1
 137 471 l 2,14,15
 144 481 144 481 157 481 c 0,16,17
 168 481 168 481 175.5 473 c 128,-1,18
 183 465 183 465 183 457 c 0,19,20
 183 451 183 451 180 447 c 2,21,-1
 88 277 l 1,22,-1
 180 108 l 2,0,1
338 108 m 2,23,24
 341 103 341 103 341 98 c 0,25,26
 341 89 341 89 332.5 81.5 c 128,-1,27
 324 74 324 74 313 74 c 256,28,29
 302 74 302 74 295 84 c 2,30,-1
 203 255 l 2,31,32
 199 261 199 261 197 266 c 128,-1,33
 195 271 195 271 195 277 c 0,34,35
 195 286 195 286 203 299 c 2,36,-1
 295 471 l 2,37,38
 302 481 302 481 315 481 c 0,39,40
 326 481 326 481 333.5 473 c 128,-1,41
 341 465 341 465 341 457 c 0,42,43
 341 451 341 451 338 447 c 2,44,-1
 246 277 l 1,45,-1
 338 108 l 2,23,24
EndSplineSet
EndChar
StartChar: logicalnot
Encoding: 172 172 271
Width: 483
Flags: W
LayerCount: 2
Back
Fore
SplineSet
58 240 m 256,0,1
 58 250 58 250 64 256.5 c 128,-1,2
 70 263 70 263 79 263 c 2,3,-1
 393 263 l 2,4,5
 401 263 401 263 407.5 256.5 c 128,-1,6
 414 250 414 250 414 240 c 2,7,-1
 414 84 l 2,8,9
 414 75 414 75 407.5 69 c 128,-1,10
 401 63 401 63 390 63 c 256,11,12
 379 63 379 63 372 69 c 128,-1,13
 365 75 365 75 365 84 c 2,14,-1
 365 218 l 1,15,-1
 79 218 l 2,16,17
 70 218 70 218 64 224 c 128,-1,18
 58 230 58 230 58 240 c 256,0,1
EndSplineSet
EndChar
StartChar: uni00AD
Encoding: 173 173 394
Width: 460
Flags: W
LayerCount: 2
Back
Fore
SplineSet
49 240 m 256,0,1
 49 250 49 250 55 256.5 c 128,-1,2
 61 263 61 263 70 263 c 2,3,-1
 390 263 l 2,4,5
 398 263 398 263 404.5 256.5 c 128,-1,6
 411 250 411 250 411 240 c 256,7,8
 411 230 411 230 404.5 224 c 128,-1,9
 398 218 398 218 390 218 c 2,10,-1
 70 218 l 2,11,12
 61 218 61 218 55 224 c 128,-1,13
 49 230 49 230 49 240 c 256,0,1
EndSplineSet
EndChar
StartChar: registered
Encoding: 174 174 345
Width: 724
Flags: W
LayerCount: 2
Back
Fore
SplineSet
55 358 m 0,0,1
 55 442 55 442 84 503.5 c 128,-1,2
 113 565 113 565 158 605.5 c 128,-1,3
 203 646 203 646 258 665.5 c 128,-1,4
 313 685 313 685 365 685 c 0,5,6
 418 685 418 685 472 665 c 128,-1,7
 526 645 526 645 570 605 c 128,-1,8
 614 565 614 565 641.5 504 c 128,-1,9
 669 443 669 443 669 362 c 0,10,11
 669 278 669 278 640 216.5 c 128,-1,12
 611 155 611 155 566 114.5 c 128,-1,13
 521 74 521 74 466 54.5 c 128,-1,14
 411 35 411 35 359 35 c 0,15,16
 306 35 306 35 252 55 c 128,-1,17
 198 75 198 75 154 115 c 128,-1,18
 110 155 110 155 82.5 216 c 128,-1,19
 55 277 55 277 55 358 c 0,0,1
270 547 m 2,20,21
 270 560 270 560 285 562 c 2,22,-1
 371 562 l 2,23,24
 392 562 392 562 410.5 556.5 c 128,-1,25
 429 551 429 551 443.5 538.5 c 128,-1,26
 458 526 458 526 466 505.5 c 128,-1,27
 474 485 474 485 474 455 c 0,28,29
 474 405 474 405 454.5 381.5 c 128,-1,30
 435 358 435 358 405 351 c 1,31,-1
 473 198 l 2,32,33
 475 192 475 192 475 191 c 0,34,35
 475 183 475 183 467 176.5 c 128,-1,36
 459 170 459 170 451 170 c 0,37,38
 445 170 445 170 441 175.5 c 128,-1,39
 437 181 437 181 434 188 c 2,40,-1
 362 346 l 1,41,-1
 311 346 l 1,42,-1
 311 186 l 2,43,44
 311 178 311 178 305 174.5 c 128,-1,45
 299 171 299 171 291 171 c 256,46,47
 283 171 283 171 276.5 174.5 c 128,-1,48
 270 178 270 178 270 186 c 2,49,-1
 270 547 l 2,20,21
311 524 m 1,50,-1
 311 381 l 1,51,-1
 371 381 l 2,52,53
 399 381 399 381 416.5 397.5 c 128,-1,54
 434 414 434 414 434 452 c 0,55,56
 434 491 434 491 416.5 507.5 c 128,-1,57
 399 524 399 524 371 524 c 2,58,-1
 311 524 l 1,50,-1
630 362 m 0,59,60
 630 424 630 424 611 476 c 128,-1,61
 592 528 592 528 557 566 c 128,-1,62
 522 604 522 604 473.5 625 c 128,-1,63
 425 646 425 646 365 646 c 0,64,65
 306 646 306 646 256.5 625 c 128,-1,66
 207 604 207 604 171 566 c 128,-1,67
 135 528 135 528 114.5 475 c 128,-1,68
 94 422 94 422 94 358 c 0,69,70
 94 296 94 296 113 244 c 128,-1,71
 132 192 132 192 167 154 c 128,-1,72
 202 116 202 116 250.5 95 c 128,-1,73
 299 74 299 74 359 74 c 0,74,75
 418 74 418 74 467.5 95 c 128,-1,76
 517 116 517 116 553 154 c 128,-1,77
 589 192 589 192 609.5 245 c 128,-1,78
 630 298 630 298 630 362 c 0,59,60
EndSplineSet
EndChar
StartChar: macron
Encoding: 175 175 276
Width: 260
Flags: W
LayerCount: 2
Back
Fore
SplineSet
0 662 m 0,0,1
 0 671 0 671 5.5 677.5 c 128,-1,2
 11 684 11 684 21 684 c 2,3,-1
 238 684 l 2,4,5
 246 684 246 684 253 677.5 c 128,-1,6
 260 671 260 671 260 662 c 256,7,8
 260 653 260 653 253 647.5 c 128,-1,9
 246 642 246 642 238 642 c 2,10,-1
 21 642 l 2,11,12
 0 642 0 642 0 662 c 0,0,1
EndSplineSet
EndChar
StartChar: degree
Encoding: 176 176 187
Width: 425
Flags: W
LayerCount: 2
Back
Fore
SplineSet
212 768 m 256,0,1
 248 768 248 768 280 754 c 128,-1,2
 312 740 312 740 336.5 715.5 c 128,-1,3
 361 691 361 691 375.5 658 c 128,-1,4
 390 625 390 625 390 588 c 0,5,6
 390 552 390 552 375.5 519.5 c 128,-1,7
 361 487 361 487 336.5 461.5 c 128,-1,8
 312 436 312 436 280 421 c 128,-1,9
 248 406 248 406 212 406 c 256,10,11
 176 406 176 406 144 421 c 128,-1,12
 112 436 112 436 88 461 c 128,-1,13
 64 486 64 486 49.5 519 c 128,-1,14
 35 552 35 552 35 588 c 256,15,16
 35 624 35 624 49 656.5 c 128,-1,17
 63 689 63 689 87 714 c 128,-1,18
 111 739 111 739 143.5 753.5 c 128,-1,19
 176 768 176 768 212 768 c 256,0,1
347 588 m 0,20,21
 347 614 347 614 336.5 638.5 c 128,-1,22
 326 663 326 663 307.5 682.5 c 128,-1,23
 289 702 289 702 264.5 713.5 c 128,-1,24
 240 725 240 725 212 725 c 256,25,26
 184 725 184 725 159.5 713.5 c 128,-1,27
 135 702 135 702 117 683 c 128,-1,28
 99 664 99 664 88.5 639 c 128,-1,29
 78 614 78 614 78 588 c 0,30,31
 78 561 78 561 88.5 536 c 128,-1,32
 99 511 99 511 117 491.5 c 128,-1,33
 135 472 135 472 159.5 460.5 c 128,-1,34
 184 449 184 449 212 449 c 256,35,36
 240 449 240 449 264.5 460.5 c 128,-1,37
 289 472 289 472 307.5 491.5 c 128,-1,38
 326 511 326 511 336.5 536 c 128,-1,39
 347 561 347 561 347 588 c 0,20,21
EndSplineSet
EndChar
StartChar: plusminus
Encoding: 177 177 325
Width: 475
Flags: W
LayerCount: 2
Back
Fore
SplineSet
238 169 m 256,0,1
 228 169 228 169 221.5 175 c 128,-1,2
 215 181 215 181 215 190 c 2,3,-1
 215 326 l 1,4,-1
 77 326 l 2,5,6
 68 326 68 326 62 332 c 128,-1,7
 56 338 56 338 56 349 c 0,8,9
 56 359 56 359 62 365.5 c 128,-1,10
 68 372 68 372 77 372 c 2,11,-1
 215 372 l 1,12,-1
 215 507 l 2,13,14
 215 515 215 515 221.5 522 c 128,-1,15
 228 529 228 529 238 529 c 256,16,17
 248 529 248 529 254 522 c 128,-1,18
 260 515 260 515 260 507 c 2,19,-1
 260 372 l 1,20,-1
 397 372 l 2,21,22
 405 372 405 372 412 365.5 c 128,-1,23
 419 359 419 359 419 349 c 0,24,25
 419 338 419 338 412 332 c 128,-1,26
 405 326 405 326 397 326 c 2,27,-1
 260 326 l 1,28,-1
 260 190 l 2,29,30
 260 181 260 181 254 175 c 128,-1,31
 248 169 248 169 238 169 c 256,0,1
56 85 m 256,32,33
 56 95 56 95 62 101.5 c 128,-1,34
 68 108 68 108 77 108 c 2,35,-1
 397 108 l 2,36,37
 405 108 405 108 412 101.5 c 128,-1,38
 419 95 419 95 419 85 c 256,39,40
 419 75 419 75 412 69 c 128,-1,41
 405 63 405 63 397 63 c 2,42,-1
 77 63 l 2,43,44
 68 63 68 63 62 69 c 128,-1,45
 56 75 56 75 56 85 c 256,32,33
EndSplineSet
EndChar
StartChar: twosuperior
Encoding: 178 178 381
Width: 303
Flags: W
LayerCount: 2
Back
Fore
SplineSet
44 644 m 0,0,1
 44 683 44 683 75.5 707 c 128,-1,2
 107 731 107 731 152 731 c 0,3,4
 176 731 176 731 197 723.5 c 128,-1,5
 218 716 218 716 233.5 702.5 c 128,-1,6
 249 689 249 689 257.5 671 c 128,-1,7
 266 653 266 653 266 632 c 0,8,9
 266 605 266 605 252 583.5 c 128,-1,10
 238 562 238 562 217 544 c 128,-1,11
 196 526 196 526 171.5 511.5 c 128,-1,12
 147 497 147 497 126 483 c 128,-1,13
 105 469 105 469 91 454.5 c 128,-1,14
 77 440 77 440 77 424 c 2,15,-1
 77 398 l 1,16,-1
 255 398 l 2,17,18
 261 398 261 398 265.5 392.5 c 128,-1,19
 270 387 270 387 270 379 c 256,20,21
 270 371 270 371 265.5 365.5 c 128,-1,22
 261 360 261 360 255 360 c 2,23,-1
 54 360 l 2,24,25
 48 360 48 360 41.5 364 c 128,-1,26
 35 368 35 368 35 375 c 2,27,-1
 35 424 l 2,28,29
 35 445 35 445 49 462.5 c 128,-1,30
 63 480 63 480 84 496 c 128,-1,31
 105 512 105 512 130 527 c 128,-1,32
 155 542 155 542 176 558 c 128,-1,33
 197 574 197 574 211 591.5 c 128,-1,34
 225 609 225 609 225 630 c 0,35,36
 225 653 225 653 207 672.5 c 128,-1,37
 189 692 189 692 151 692 c 0,38,39
 122 692 122 692 103.5 678.5 c 128,-1,40
 85 665 85 665 85 636 c 0,41,42
 85 631 85 631 79.5 625.5 c 128,-1,43
 74 620 74 620 63 620 c 0,44,45
 54 620 54 620 49 625 c 128,-1,46
 44 630 44 630 44 644 c 0,0,1
EndSplineSet
EndChar
StartChar: threesuperior
Encoding: 179 179 376
Width: 309
Flags: W
LayerCount: 2
Back
Fore
SplineSet
150 395 m 0,0,1
 189 395 189 395 209.5 411.5 c 128,-1,2
 230 428 230 428 230 466 c 2,3,-1
 230 475 l 2,4,5
 230 508 230 508 208 522.5 c 128,-1,6
 186 537 186 537 151 537 c 0,7,8
 142 537 142 537 138.5 542.5 c 128,-1,9
 135 548 135 548 135 554 c 0,10,11
 135 561 135 561 138.5 566.5 c 128,-1,12
 142 572 142 572 151 572 c 0,13,14
 183 572 183 572 201 584.5 c 128,-1,15
 219 597 219 597 219 633 c 0,16,17
 219 694 219 694 153 694 c 0,18,19
 132 694 132 694 118 689 c 128,-1,20
 104 684 104 684 96.5 676.5 c 128,-1,21
 89 669 89 669 86 660.5 c 128,-1,22
 83 652 83 652 83 644 c 0,23,24
 83 626 83 626 63 626 c 0,25,26
 50 626 50 626 46 630.5 c 128,-1,27
 42 635 42 635 42 647 c 0,28,29
 42 658 42 658 46.5 672.5 c 128,-1,30
 51 687 51 687 63.5 700 c 128,-1,31
 76 713 76 713 98 722 c 128,-1,32
 120 731 120 731 154 731 c 0,33,34
 201 731 201 731 230 711 c 128,-1,35
 259 691 259 691 259 641 c 0,36,37
 259 607 259 607 246 585.5 c 128,-1,38
 233 564 233 564 213 556 c 1,39,40
 238 547 238 547 254 527.5 c 128,-1,41
 270 508 270 508 270 475 c 2,42,-1
 270 466 l 2,43,44
 270 436 270 436 260.5 415.5 c 128,-1,45
 251 395 251 395 235 382 c 128,-1,46
 219 369 219 369 197.5 363 c 128,-1,47
 176 357 176 357 151 357 c 0,48,49
 121 357 121 357 98.5 365 c 128,-1,50
 76 373 76 373 61 385.5 c 128,-1,51
 46 398 46 398 39 413 c 128,-1,52
 32 428 32 428 32 443 c 0,53,54
 32 455 32 455 36.5 458.5 c 128,-1,55
 41 462 41 462 51 462 c 0,56,57
 64 462 64 462 68.5 458 c 128,-1,58
 73 454 73 454 73 446 c 0,59,60
 73 430 73 430 89.5 412.5 c 128,-1,61
 106 395 106 395 150 395 c 0,0,1
EndSplineSet
EndChar
StartChar: acute
Encoding: 180 180 136
Width: 143
Flags: W
LayerCount: 2
Back
Fore
SplineSet
32 599 m 2,0,1
 27 596 27 596 22 596 c 0,2,3
 13 596 13 596 6.5 603 c 128,-1,4
 0 610 0 610 0 619 c 0,5,6
 0 630 0 630 9 634 c 2,7,-1
 116 695 l 2,8,9
 120 697 120 697 124 697 c 0,10,11
 133 697 133 697 138 689.5 c 128,-1,12
 143 682 143 682 143 674 c 0,13,14
 143 661 143 661 132 654 c 2,15,-1
 32 599 l 2,0,1
EndSplineSet
EndChar
StartChar: mu
Encoding: 181 181 278
Width: 483
Flags: W
LayerCount: 2
Back
Fore
SplineSet
257 -6 m 0,0,1
 209 -6 209 -6 173.5 15 c 128,-1,2
 138 36 138 36 121 64 c 1,3,-1
 121 -214 l 2,4,5
 121 -223 121 -223 114 -229 c 128,-1,6
 107 -235 107 -235 98 -235 c 0,7,8
 87 -235 87 -235 80.5 -229 c 128,-1,9
 74 -223 74 -223 74 -214 c 2,10,-1
 74 451 l 2,11,12
 74 459 74 459 80.5 465.5 c 128,-1,13
 87 472 87 472 98 472 c 256,14,15
 109 472 109 472 116 465.5 c 128,-1,16
 123 459 123 459 123 451 c 2,17,-1
 123 156 l 2,18,19
 123 140 123 140 134.5 120 c 128,-1,20
 146 100 146 100 165 82 c 128,-1,21
 184 64 184 64 208.5 52 c 128,-1,22
 233 40 233 40 259 40 c 0,23,24
 284 40 284 40 307.5 51.5 c 128,-1,25
 331 63 331 63 348 82.5 c 128,-1,26
 365 102 365 102 375.5 126.5 c 128,-1,27
 386 151 386 151 386 177 c 2,28,-1
 386 451 l 2,29,30
 386 462 386 462 393.5 467 c 128,-1,31
 401 472 401 472 410 472 c 0,32,33
 421 472 421 472 428 467 c 128,-1,34
 435 462 435 462 435 451 c 2,35,-1
 435 177 l 2,36,37
 435 139 435 139 421.5 106 c 128,-1,38
 408 73 408 73 384 48 c 128,-1,39
 360 23 360 23 327.5 8.5 c 128,-1,40
 295 -6 295 -6 257 -6 c 0,0,1
EndSplineSet
EndChar
StartChar: paragraph
Encoding: 182 182 315
Width: 517
Flags: W
LayerCount: 2
Back
Fore
SplineSet
416 731 m 2,0,1
 424 731 424 731 430.5 725.5 c 128,-1,2
 437 720 437 720 437 709 c 2,3,-1
 437 21 l 2,4,5
 437 10 437 10 430.5 5 c 128,-1,6
 424 0 424 0 416 0 c 256,7,8
 408 0 408 0 401 5 c 128,-1,9
 394 10 394 10 394 21 c 2,10,-1
 394 691 l 1,11,-1
 318 691 l 1,12,-1
 318 22 l 2,13,14
 318 11 318 11 311.5 5.5 c 128,-1,15
 305 0 305 0 297 0 c 256,16,17
 289 0 289 0 282 5.5 c 128,-1,18
 275 11 275 11 275 22 c 2,19,-1
 275 306 l 1,20,-1
 231 306 l 2,21,22
 190 306 190 306 154 317 c 128,-1,23
 118 328 118 328 91.5 353 c 128,-1,24
 65 378 65 378 50 417.5 c 128,-1,25
 35 457 35 457 35 513 c 2,26,-1
 35 525 l 2,27,28
 35 581 35 581 50 620.5 c 128,-1,29
 65 660 65 660 91.5 684.5 c 128,-1,30
 118 709 118 709 154 720 c 128,-1,31
 190 731 190 731 231 731 c 2,32,-1
 416 731 l 2,0,1
EndSplineSet
EndChar
StartChar: periodcentered
Encoding: 183 183 321
Width: 177
Flags: W
LayerCount: 2
Back
Fore
SplineSet
89 340 m 0,0,1
 106 340 106 340 117.5 328.5 c 128,-1,2
 129 317 129 317 129 300 c 0,3,4
 129 284 129 284 117.5 272 c 128,-1,5
 106 260 106 260 89 260 c 0,6,7
 71 260 71 260 59.5 272 c 128,-1,8
 48 284 48 284 48 300 c 0,9,10
 48 317 48 317 59.5 328.5 c 128,-1,11
 71 340 71 340 89 340 c 0,0,1
EndSplineSet
EndChar
StartChar: cedilla
Encoding: 184 184 174
Width: 161
Flags: W
LayerCount: 2
Back
Fore
SplineSet
66 -63 m 1,0,1
 117 -65 117 -65 139 -86.5 c 128,-1,2
 161 -108 161 -108 161 -134 c 0,3,4
 161 -162 161 -162 139.5 -185 c 128,-1,5
 118 -208 118 -208 76 -208 c 0,6,7
 67 -208 67 -208 54 -206.5 c 128,-1,8
 41 -205 41 -205 29 -202 c 128,-1,9
 17 -199 17 -199 8.5 -194.5 c 128,-1,10
 0 -190 0 -190 0 -184 c 0,11,12
 0 -179 0 -179 4 -171 c 128,-1,13
 8 -163 8 -163 14 -163 c 0,14,15
 19 -163 19 -163 32 -169.5 c 128,-1,16
 45 -176 45 -176 70 -176 c 0,17,18
 100 -176 100 -176 112 -164 c 128,-1,19
 124 -152 124 -152 124 -136 c 0,20,21
 124 -114 124 -114 106 -104 c 128,-1,22
 88 -94 88 -94 57 -92 c 2,23,-1
 24 -90 l 1,24,-1
 49 9 l 1,25,-1
 84 9 l 1,26,-1
 66 -63 l 1,0,1
EndSplineSet
EndChar
StartChar: onesuperior
Encoding: 185 185 307
Width: 163
Flags: W
LayerCount: 2
Back
Fore
SplineSet
69 668 m 1,0,-1
 47 640 l 2,1,2
 43 634 43 634 37 634 c 0,3,4
 29 634 29 634 25 639 c 128,-1,5
 21 644 21 644 21 651 c 0,6,7
 21 656 21 656 24 661 c 128,-1,8
 27 666 27 666 29 668 c 2,9,-1
 78 725 l 2,10,11
 81 727 81 727 84.5 729 c 128,-1,12
 88 731 88 731 93 731 c 0,13,14
 99 731 99 731 104.5 727 c 128,-1,15
 110 723 110 723 110 716 c 2,16,-1
 110 375 l 2,17,18
 110 367 110 367 104 363.5 c 128,-1,19
 98 360 98 360 90 360 c 256,20,21
 82 360 82 360 75.5 363.5 c 128,-1,22
 69 367 69 367 69 375 c 2,23,-1
 69 668 l 1,0,-1
EndSplineSet
EndChar
StartChar: ordmasculine
Encoding: 186 186 310
Width: 325
Flags: W
LayerCount: 2
Back
Fore
SplineSet
163 735 m 0,0,1
 187 735 187 735 208.5 725.5 c 128,-1,2
 230 716 230 716 246.5 700 c 128,-1,3
 263 684 263 684 273 662.5 c 128,-1,4
 283 641 283 641 283 617 c 2,5,-1
 283 550 l 2,6,7
 283 526 283 526 273 504.5 c 128,-1,8
 263 483 263 483 246.5 466.5 c 128,-1,9
 230 450 230 450 208.5 440 c 128,-1,10
 187 430 187 430 163 430 c 256,11,12
 139 430 139 430 117 440 c 128,-1,13
 95 450 95 450 78.5 466.5 c 128,-1,14
 62 483 62 483 52 504.5 c 128,-1,15
 42 526 42 526 42 550 c 2,16,-1
 42 617 l 2,17,18
 42 641 42 641 51.5 662 c 128,-1,19
 61 683 61 683 77.5 699.5 c 128,-1,20
 94 716 94 716 116 725.5 c 128,-1,21
 138 735 138 735 163 735 c 0,0,1
239 617 m 2,22,23
 239 632 239 632 233 646 c 128,-1,24
 227 660 227 660 217 671 c 128,-1,25
 207 682 207 682 193 688.5 c 128,-1,26
 179 695 179 695 163 695 c 0,27,28
 130 695 130 695 108 671 c 128,-1,29
 86 647 86 647 86 617 c 2,30,-1
 86 550 l 2,31,32
 86 519 86 519 108 494.5 c 128,-1,33
 130 470 130 470 163 470 c 0,34,35
 195 470 195 470 217 494.5 c 128,-1,36
 239 519 239 519 239 550 c 2,37,-1
 239 617 l 2,22,23
EndSplineSet
EndChar
StartChar: guillemotright
Encoding: 187 187 239
Width: 381
Flags: W
LayerCount: 2
Back
Fore
SplineSet
293 277 m 1,0,-1
 201 447 l 2,1,2
 198 451 198 451 198 457 c 0,3,4
 198 465 198 465 205.5 473 c 128,-1,5
 213 481 213 481 224 481 c 0,6,7
 239 481 239 481 244 471 c 2,8,-1
 337 299 l 2,9,10
 344 285 344 285 344 277 c 0,11,12
 344 271 344 271 342 266 c 128,-1,13
 340 261 340 261 337 255 c 2,14,-1
 244 84 l 2,15,16
 238 74 238 74 226 74 c 0,17,18
 215 74 215 74 206.5 81.5 c 128,-1,19
 198 89 198 89 198 98 c 0,20,21
 198 103 198 103 201 108 c 2,22,-1
 293 277 l 1,0,-1
135 277 m 1,23,-1
 43 447 l 2,24,25
 40 451 40 451 40 457 c 0,26,27
 40 465 40 465 47.5 473 c 128,-1,28
 55 481 55 481 66 481 c 0,29,30
 79 481 79 481 86 471 c 2,31,-1
 178 299 l 2,32,33
 186 286 186 286 186 277 c 0,34,35
 186 271 186 271 184 266 c 128,-1,36
 182 261 182 261 178 255 c 2,37,-1
 86 84 l 2,38,39
 80 74 80 74 68 74 c 0,40,41
 57 74 57 74 48.5 81.5 c 128,-1,42
 40 89 40 89 40 98 c 0,43,44
 40 103 40 103 43 108 c 2,45,-1
 135 277 l 1,23,-1
EndSplineSet
EndChar
StartChar: onequarter
Encoding: 188 188 306
Width: 589
Flags: W
LayerCount: 2
Back
Fore
SplineSet
81 668 m 1,0,-1
 59 640 l 2,1,2
 55 634 55 634 49 634 c 0,3,4
 41 634 41 634 37 639 c 128,-1,5
 33 644 33 644 33 651 c 0,6,7
 33 656 33 656 36 661 c 128,-1,8
 39 666 39 666 41 668 c 2,9,-1
 90 725 l 2,10,11
 93 727 93 727 96.5 729 c 128,-1,12
 100 731 100 731 105 731 c 0,13,14
 111 731 111 731 116.5 727 c 128,-1,15
 122 723 122 723 122 716 c 2,16,-1
 122 375 l 2,17,18
 122 367 122 367 116 363.5 c 128,-1,19
 110 360 110 360 102 360 c 256,20,21
 94 360 94 360 87.5 363.5 c 128,-1,22
 81 367 81 367 81 375 c 2,23,-1
 81 668 l 1,0,-1
474 768 m 0,24,25
 482 768 482 768 489.5 762 c 128,-1,26
 497 756 497 756 497 745 c 0,27,28
 497 740 497 740 494 734 c 2,29,-1
 110 -10 l 2,30,31
 104 -23 104 -23 90 -23 c 0,32,33
 82 -23 82 -23 75.5 -17.5 c 128,-1,34
 69 -12 69 -12 69 -4 c 0,35,36
 69 3 69 3 71 7 c 2,37,-1
 458 758 l 2,38,39
 460 764 460 764 464.5 766 c 128,-1,40
 469 768 469 768 474 768 c 0,24,25
476 86 m 1,41,-1
 333 86 l 2,42,43
 318 86 318 86 318 102 c 0,44,45
 318 105 318 105 320 111 c 2,46,-1
 461 358 l 2,47,48
 467 371 467 371 480 371 c 0,49,50
 487 371 487 371 493.5 366.5 c 128,-1,51
 500 362 500 362 500 354 c 0,52,53
 500 351 500 351 498 347 c 2,54,-1
 371 125 l 1,55,-1
 476 125 l 1,56,-1
 476 212 l 2,57,58
 476 220 476 220 482 223 c 128,-1,59
 488 226 488 226 496 226 c 256,60,61
 504 226 504 226 510.5 223 c 128,-1,62
 517 220 517 220 517 212 c 2,63,-1
 517 125 l 1,64,-1
 548 125 l 2,65,66
 556 125 556 125 560 119 c 128,-1,67
 564 113 564 113 564 105 c 0,68,69
 564 98 564 98 559 92 c 128,-1,70
 554 86 554 86 548 86 c 2,71,-1
 517 86 l 1,72,-1
 517 15 l 2,73,74
 517 7 517 7 510.5 3.5 c 128,-1,75
 504 0 504 0 496 0 c 256,76,77
 488 0 488 0 482 3.5 c 128,-1,78
 476 7 476 7 476 15 c 2,79,-1
 476 86 l 1,41,-1
EndSplineSet
Ligature2: "'frac' Diagonal Fractions in Latin lookup 9 subtable" one slash four
EndChar
StartChar: onehalf
Encoding: 189 189 304
Width: 613
Flags: W
LayerCount: 2
Back
Fore
SplineSet
352 284 m 0,0,1
 352 323 352 323 383.5 347 c 128,-1,2
 415 371 415 371 460 371 c 0,3,4
 484 371 484 371 505 363.5 c 128,-1,5
 526 356 526 356 541.5 342.5 c 128,-1,6
 557 329 557 329 565.5 311 c 128,-1,7
 574 293 574 293 574 272 c 0,8,9
 574 245 574 245 560 223.5 c 128,-1,10
 546 202 546 202 525 184 c 128,-1,11
 504 166 504 166 479.5 151.5 c 128,-1,12
 455 137 455 137 434 123 c 128,-1,13
 413 109 413 109 399 95 c 128,-1,14
 385 81 385 81 385 65 c 2,15,-1
 385 38 l 1,16,-1
 563 38 l 2,17,18
 569 38 569 38 573.5 32.5 c 128,-1,19
 578 27 578 27 578 19 c 0,20,21
 578 12 578 12 573.5 6 c 128,-1,22
 569 0 569 0 563 0 c 2,23,-1
 362 0 l 2,24,25
 356 0 356 0 349.5 4 c 128,-1,26
 343 8 343 8 343 15 c 2,27,-1
 343 64 l 2,28,29
 343 85 343 85 357 102.5 c 128,-1,30
 371 120 371 120 392 136 c 128,-1,31
 413 152 413 152 438 167 c 128,-1,32
 463 182 463 182 484 198 c 128,-1,33
 505 214 505 214 519 231.5 c 128,-1,34
 533 249 533 249 533 270 c 0,35,36
 533 293 533 293 515 312.5 c 128,-1,37
 497 332 497 332 459 332 c 0,38,39
 430 332 430 332 411.5 318.5 c 128,-1,40
 393 305 393 305 393 276 c 0,41,42
 393 271 393 271 387.5 265.5 c 128,-1,43
 382 260 382 260 371 260 c 0,44,45
 362 260 362 260 357 265 c 128,-1,46
 352 270 352 270 352 284 c 0,0,1
84 668 m 1,47,-1
 62 640 l 2,48,49
 58 634 58 634 52 634 c 0,50,51
 44 634 44 634 40 639 c 128,-1,52
 36 644 36 644 36 651 c 0,53,54
 36 656 36 656 39 661 c 128,-1,55
 42 666 42 666 44 668 c 2,56,-1
 93 725 l 2,57,58
 96 727 96 727 99.5 729 c 128,-1,59
 103 731 103 731 108 731 c 0,60,61
 114 731 114 731 119.5 727 c 128,-1,62
 125 723 125 723 125 716 c 2,63,-1
 125 375 l 2,64,65
 125 367 125 367 119 363.5 c 128,-1,66
 113 360 113 360 105 360 c 256,67,68
 97 360 97 360 90.5 363.5 c 128,-1,69
 84 367 84 367 84 375 c 2,70,-1
 84 668 l 1,47,-1
461 768 m 0,71,72
 469 768 469 768 476.5 762 c 128,-1,73
 484 756 484 756 484 745 c 0,74,75
 484 740 484 740 481 734 c 2,76,-1
 97 -10 l 2,77,78
 91 -23 91 -23 77 -23 c 0,79,80
 69 -23 69 -23 62.5 -17.5 c 128,-1,81
 56 -12 56 -12 56 -4 c 0,82,83
 56 3 56 3 58 7 c 2,84,-1
 445 758 l 2,85,86
 447 764 447 764 451.5 766 c 128,-1,87
 456 768 456 768 461 768 c 0,71,72
EndSplineSet
Ligature2: "'frac' Diagonal Fractions in Latin lookup 9 subtable" one slash two
EndChar
StartChar: threequarters
Encoding: 190 190 375
Width: 720
Flags: W
LayerCount: 2
Back
Fore
SplineSet
152 395 m 0,0,1
 191 395 191 395 211.5 411.5 c 128,-1,2
 232 428 232 428 232 466 c 2,3,-1
 232 475 l 2,4,5
 232 508 232 508 210 522.5 c 128,-1,6
 188 537 188 537 153 537 c 0,7,8
 144 537 144 537 140.5 542.5 c 128,-1,9
 137 548 137 548 137 554 c 0,10,11
 137 561 137 561 140.5 566.5 c 128,-1,12
 144 572 144 572 153 572 c 0,13,14
 185 572 185 572 203 584.5 c 128,-1,15
 221 597 221 597 221 633 c 0,16,17
 221 694 221 694 155 694 c 0,18,19
 134 694 134 694 120 689 c 128,-1,20
 106 684 106 684 98.5 676.5 c 128,-1,21
 91 669 91 669 88 660.5 c 128,-1,22
 85 652 85 652 85 644 c 0,23,24
 85 626 85 626 65 626 c 0,25,26
 52 626 52 626 48 630.5 c 128,-1,27
 44 635 44 635 44 647 c 0,28,29
 44 658 44 658 48.5 672.5 c 128,-1,30
 53 687 53 687 65.5 700 c 128,-1,31
 78 713 78 713 100 722 c 128,-1,32
 122 731 122 731 156 731 c 0,33,34
 203 731 203 731 232 711 c 128,-1,35
 261 691 261 691 261 641 c 0,36,37
 261 607 261 607 248 585.5 c 128,-1,38
 235 564 235 564 215 556 c 1,39,40
 240 547 240 547 256 527.5 c 128,-1,41
 272 508 272 508 272 475 c 2,42,-1
 272 466 l 2,43,44
 272 436 272 436 262.5 415.5 c 128,-1,45
 253 395 253 395 237 382 c 128,-1,46
 221 369 221 369 199.5 363 c 128,-1,47
 178 357 178 357 153 357 c 0,48,49
 123 357 123 357 100.5 365 c 128,-1,50
 78 373 78 373 63 385.5 c 128,-1,51
 48 398 48 398 41 413 c 128,-1,52
 34 428 34 428 34 443 c 0,53,54
 34 455 34 455 38.5 458.5 c 128,-1,55
 43 462 43 462 53 462 c 0,56,57
 66 462 66 462 70.5 458 c 128,-1,58
 75 454 75 454 75 446 c 0,59,60
 75 430 75 430 91.5 412.5 c 128,-1,61
 108 395 108 395 152 395 c 0,0,1
607 86 m 1,62,-1
 464 86 l 2,63,64
 449 86 449 86 449 102 c 0,65,66
 449 105 449 105 451 111 c 2,67,-1
 592 358 l 2,68,69
 598 371 598 371 611 371 c 0,70,71
 618 371 618 371 624.5 366.5 c 128,-1,72
 631 362 631 362 631 354 c 0,73,74
 631 351 631 351 629 347 c 2,75,-1
 502 125 l 1,76,-1
 607 125 l 1,77,-1
 607 212 l 2,78,79
 607 220 607 220 613 223 c 128,-1,80
 619 226 619 226 627 226 c 256,81,82
 635 226 635 226 641.5 223 c 128,-1,83
 648 220 648 220 648 212 c 2,84,-1
 648 125 l 1,85,-1
 679 125 l 2,86,87
 687 125 687 125 691 119 c 128,-1,88
 695 113 695 113 695 105 c 0,89,90
 695 98 695 98 690 92 c 128,-1,91
 685 86 685 86 679 86 c 2,92,-1
 648 86 l 1,93,-1
 648 15 l 2,94,95
 648 7 648 7 641.5 3.5 c 128,-1,96
 635 0 635 0 627 0 c 256,97,98
 619 0 619 0 613 3.5 c 128,-1,99
 607 7 607 7 607 15 c 2,100,-1
 607 86 l 1,62,-1
598 768 m 0,101,102
 606 768 606 768 613.5 762 c 128,-1,103
 621 756 621 756 621 745 c 0,104,105
 621 740 621 740 618 734 c 2,106,-1
 234 -10 l 2,107,108
 228 -23 228 -23 214 -23 c 0,109,110
 206 -23 206 -23 199.5 -17.5 c 128,-1,111
 193 -12 193 -12 193 -4 c 0,112,113
 193 3 193 3 195 7 c 2,114,-1
 582 758 l 2,115,116
 584 764 584 764 588.5 766 c 128,-1,117
 593 768 593 768 598 768 c 0,101,102
EndSplineSet
Ligature2: "'frac' Diagonal Fractions in Latin lookup 9 subtable" three slash four
EndChar
StartChar: questiondown
Encoding: 191 191 330
Width: 390
Flags: W
LayerCount: 2
Back
Fore
SplineSet
36 174 m 0,0,1
 36 223 36 223 52 259 c 128,-1,2
 68 295 68 295 90 322 c 128,-1,3
 112 349 112 349 135.5 369.5 c 128,-1,4
 159 390 159 390 174 408 c 0,5,6
 196 433 196 433 200 469.5 c 128,-1,7
 204 506 204 506 204 565 c 0,8,9
 204 585 204 585 226 585 c 0,10,11
 235 585 235 585 241 580 c 128,-1,12
 247 575 247 575 247 562 c 0,13,14
 247 518 247 518 244.5 489 c 128,-1,15
 242 460 242 460 237 440 c 128,-1,16
 232 420 232 420 225 407 c 128,-1,17
 218 394 218 394 209 384 c 0,18,19
 193 366 193 366 171 347 c 128,-1,20
 149 328 149 328 129.5 304.5 c 128,-1,21
 110 281 110 281 96 250 c 128,-1,22
 82 219 82 219 82 177 c 0,23,24
 82 112 82 112 117.5 75 c 128,-1,25
 153 38 153 38 225 38 c 0,26,27
 257 38 257 38 277.5 45 c 128,-1,28
 298 52 298 52 311 60.5 c 128,-1,29
 324 69 324 69 331.5 76 c 128,-1,30
 339 83 339 83 347 83 c 0,31,32
 353 83 353 83 359.5 77 c 128,-1,33
 366 71 366 71 366 61 c 0,34,35
 366 50 366 50 354.5 38 c 128,-1,36
 343 26 343 26 323 16.5 c 128,-1,37
 303 7 303 7 277 0.5 c 128,-1,38
 251 -6 251 -6 221 -6 c 0,39,40
 174 -6 174 -6 139.5 8 c 128,-1,41
 105 22 105 22 82 46.5 c 128,-1,42
 59 71 59 71 47.5 103.5 c 128,-1,43
 36 136 36 136 36 174 c 0,0,1
226 664 m 256,44,45
 209 664 209 664 197.5 676 c 128,-1,46
 186 688 186 688 186 705 c 256,47,48
 186 722 186 722 197.5 734 c 128,-1,49
 209 746 209 746 226 746 c 256,50,51
 243 746 243 746 254.5 734 c 128,-1,52
 266 722 266 722 266 705 c 256,53,54
 266 688 266 688 254.5 676 c 128,-1,55
 243 664 243 664 226 664 c 256,44,45
EndSplineSet
EndChar
StartChar: Agrave
Encoding: 192 192 8
Width: 530
Flags: W
LayerCount: 2
Back
Fore
SplineSet
51 0 m 0,0,1
 41 0 41 0 32 5.5 c 128,-1,2
 23 11 23 11 23 22 c 0,3,4
 23 26 23 26 24 28 c 2,5,-1
 238 719 l 2,6,7
 244 737 244 737 266 737 c 0,8,9
 275 737 275 737 283 732.5 c 128,-1,10
 291 728 291 728 294 719 c 2,11,-1
 506 28 l 2,12,13
 506 26 506 26 506.5 25 c 128,-1,14
 507 24 507 24 507 22 c 0,15,16
 507 13 507 13 498 6.5 c 128,-1,17
 489 0 489 0 478 0 c 0,18,19
 462 0 462 0 458 15 c 2,20,-1
 409 174 l 1,21,-1
 121 174 l 1,22,-1
 73 15 l 2,23,24
 68 0 68 0 51 0 c 0,0,1
395 220 m 1,25,-1
 266 647 l 1,26,-1
 134 220 l 1,27,-1
 395 220 l 1,25,-1
203 911 m 2,28,29
 192 918 192 918 192 931 c 0,30,31
 192 939 192 939 197.5 946.5 c 128,-1,32
 203 954 203 954 212 954 c 0,33,34
 215 954 215 954 219 952 c 2,35,-1
 326 891 l 2,36,37
 335 887 335 887 335 876 c 0,38,39
 335 867 335 867 328.5 860 c 128,-1,40
 322 853 322 853 313 853 c 0,41,42
 309 853 309 853 303 856 c 2,43,-1
 203 911 l 2,28,29
EndSplineSet
EndChar
StartChar: Aacute
Encoding: 193 193 4
Width: 530
Flags: W
LayerCount: 2
Back
Fore
SplineSet
51 0 m 0,0,1
 41 0 41 0 32 5.5 c 128,-1,2
 23 11 23 11 23 22 c 0,3,4
 23 26 23 26 24 28 c 2,5,-1
 238 719 l 2,6,7
 244 737 244 737 266 737 c 0,8,9
 275 737 275 737 283 732.5 c 128,-1,10
 291 728 291 728 294 719 c 2,11,-1
 506 28 l 2,12,13
 506 26 506 26 506.5 25 c 128,-1,14
 507 24 507 24 507 22 c 0,15,16
 507 13 507 13 498 6.5 c 128,-1,17
 489 0 489 0 478 0 c 0,18,19
 462 0 462 0 458 15 c 2,20,-1
 409 174 l 1,21,-1
 121 174 l 1,22,-1
 73 15 l 2,23,24
 68 0 68 0 51 0 c 0,0,1
395 220 m 1,25,-1
 266 647 l 1,26,-1
 134 220 l 1,27,-1
 395 220 l 1,25,-1
230 856 m 2,28,29
 225 853 225 853 220 853 c 0,30,31
 211 853 211 853 204.5 860 c 128,-1,32
 198 867 198 867 198 876 c 0,33,34
 198 887 198 887 207 891 c 2,35,-1
 314 952 l 2,36,37
 318 954 318 954 322 954 c 0,38,39
 331 954 331 954 336 946.5 c 128,-1,40
 341 939 341 939 341 931 c 0,41,42
 341 918 341 918 330 911 c 2,43,-1
 230 856 l 2,28,29
EndSplineSet
EndChar
StartChar: Acircumflex
Encoding: 194 194 6
Width: 530
Flags: W
LayerCount: 2
Back
Fore
SplineSet
51 0 m 0,0,1
 41 0 41 0 32 5.5 c 128,-1,2
 23 11 23 11 23 22 c 0,3,4
 23 26 23 26 24 28 c 2,5,-1
 238 719 l 2,6,7
 244 737 244 737 266 737 c 0,8,9
 275 737 275 737 283 732.5 c 128,-1,10
 291 728 291 728 294 719 c 2,11,-1
 506 28 l 2,12,13
 506 26 506 26 506.5 25 c 128,-1,14
 507 24 507 24 507 22 c 0,15,16
 507 13 507 13 498 6.5 c 128,-1,17
 489 0 489 0 478 0 c 0,18,19
 462 0 462 0 458 15 c 2,20,-1
 409 174 l 1,21,-1
 121 174 l 1,22,-1
 73 15 l 2,23,24
 68 0 68 0 51 0 c 0,0,1
395 220 m 1,25,-1
 266 647 l 1,26,-1
 134 220 l 1,27,-1
 395 220 l 1,25,-1
161 856 m 2,28,29
 159 855 159 855 157 854 c 128,-1,30
 155 853 155 853 153 853 c 0,31,32
 145 853 145 853 139 859.5 c 128,-1,33
 133 866 133 866 133 876 c 0,34,35
 133 887 133 887 144 893 c 2,36,-1
 248 949 l 2,37,38
 256 954 256 954 265 954 c 256,39,40
 274 954 274 954 282 949 c 2,41,-1
 386 894 l 2,42,43
 397 888 397 888 397 874 c 0,44,45
 397 866 397 866 391.5 860 c 128,-1,46
 386 854 386 854 378 854 c 0,47,48
 376 854 376 854 373.5 855 c 128,-1,49
 371 856 371 856 369 857 c 2,50,-1
 265 912 l 1,51,-1
 161 856 l 2,28,29
EndSplineSet
EndChar
StartChar: Atilde
Encoding: 195 195 12
Width: 530
Flags: W
LayerCount: 2
Back
Fore
SplineSet
51 0 m 0,0,1
 41 0 41 0 32 5.5 c 128,-1,2
 23 11 23 11 23 22 c 0,3,4
 23 26 23 26 24 28 c 2,5,-1
 238 719 l 2,6,7
 244 737 244 737 266 737 c 0,8,9
 275 737 275 737 283 732.5 c 128,-1,10
 291 728 291 728 294 719 c 2,11,-1
 506 28 l 2,12,13
 506 26 506 26 506.5 25 c 128,-1,14
 507 24 507 24 507 22 c 0,15,16
 507 13 507 13 498 6.5 c 128,-1,17
 489 0 489 0 478 0 c 0,18,19
 462 0 462 0 458 15 c 2,20,-1
 409 174 l 1,21,-1
 121 174 l 1,22,-1
 73 15 l 2,23,24
 68 0 68 0 51 0 c 0,0,1
395 220 m 1,25,-1
 266 647 l 1,26,-1
 134 220 l 1,27,-1
 395 220 l 1,25,-1
202 907 m 0,28,29
 186 907 186 907 175 902 c 128,-1,30
 164 897 164 897 156 890.5 c 128,-1,31
 148 884 148 884 142.5 879 c 128,-1,32
 137 874 137 874 131 874 c 0,33,34
 123 874 123 874 119 880.5 c 128,-1,35
 115 887 115 887 115 895 c 0,36,37
 115 907 115 907 124 916.5 c 128,-1,38
 133 926 133 926 146.5 933.5 c 128,-1,39
 160 941 160 941 175.5 945 c 128,-1,40
 191 949 191 949 204 949 c 0,41,42
 223 949 223 949 238 943.5 c 128,-1,43
 253 938 253 938 267.5 931 c 128,-1,44
 282 924 282 924 297.5 918.5 c 128,-1,45
 313 913 313 913 333 913 c 0,46,47
 350 913 350 913 360 918 c 128,-1,48
 370 923 370 923 377 928.5 c 128,-1,49
 384 934 384 934 389 939 c 128,-1,50
 394 944 394 944 400 944 c 0,51,52
 408 944 408 944 412.5 938 c 128,-1,53
 417 932 417 932 417 925 c 0,54,55
 417 911 417 911 408 901 c 128,-1,56
 399 891 399 891 386 884.5 c 128,-1,57
 373 878 373 878 358.5 874.5 c 128,-1,58
 344 871 344 871 333 871 c 0,59,60
 314 871 314 871 299 876.5 c 128,-1,61
 284 882 284 882 269 889 c 128,-1,62
 254 896 254 896 238.5 901.5 c 128,-1,63
 223 907 223 907 202 907 c 0,28,29
EndSplineSet
EndChar
StartChar: Adieresis
Encoding: 196 196 7
Width: 530
Flags: W
LayerCount: 2
Back
Fore
SplineSet
51 0 m 0,0,1
 41 0 41 0 32 5.5 c 128,-1,2
 23 11 23 11 23 22 c 0,3,4
 23 26 23 26 24 28 c 2,5,-1
 238 719 l 2,6,7
 244 737 244 737 266 737 c 0,8,9
 275 737 275 737 283 732.5 c 128,-1,10
 291 728 291 728 294 719 c 2,11,-1
 506 28 l 2,12,13
 506 26 506 26 506.5 25 c 128,-1,14
 507 24 507 24 507 22 c 0,15,16
 507 13 507 13 498 6.5 c 128,-1,17
 489 0 489 0 478 0 c 0,18,19
 462 0 462 0 458 15 c 2,20,-1
 409 174 l 1,21,-1
 121 174 l 1,22,-1
 73 15 l 2,23,24
 68 0 68 0 51 0 c 0,0,1
395 220 m 1,25,-1
 266 647 l 1,26,-1
 134 220 l 1,27,-1
 395 220 l 1,25,-1
207 919 m 256,28,29
 221 919 221 919 230 910 c 128,-1,30
 239 901 239 901 239 887 c 256,31,32
 239 873 239 873 230 863.5 c 128,-1,33
 221 854 221 854 207 854 c 256,34,35
 193 854 193 854 183.5 863.5 c 128,-1,36
 174 873 174 873 174 887 c 256,37,38
 174 901 174 901 183.5 910 c 128,-1,39
 193 919 193 919 207 919 c 256,28,29
324 919 m 0,40,41
 338 919 338 919 347 910 c 128,-1,42
 356 901 356 901 356 887 c 256,43,44
 356 873 356 873 347 863.5 c 128,-1,45
 338 854 338 854 324 854 c 0,46,47
 309 854 309 854 300 863.5 c 128,-1,48
 291 873 291 873 291 887 c 256,49,50
 291 901 291 901 300 910 c 128,-1,51
 309 919 309 919 324 919 c 0,40,41
EndSplineSet
EndChar
StartChar: Aring
Encoding: 197 197 11
Width: 530
Flags: W
LayerCount: 2
Back
Fore
SplineSet
51 0 m 0,0,1
 41 0 41 0 32 5.5 c 128,-1,2
 23 11 23 11 23 22 c 0,3,4
 23 26 23 26 24 28 c 2,5,-1
 238 719 l 2,6,7
 244 737 244 737 266 737 c 0,8,9
 275 737 275 737 283 732.5 c 128,-1,10
 291 728 291 728 294 719 c 2,11,-1
 506 28 l 2,12,13
 506 26 506 26 506.5 25 c 128,-1,14
 507 24 507 24 507 22 c 0,15,16
 507 13 507 13 498 6.5 c 128,-1,17
 489 0 489 0 478 0 c 0,18,19
 462 0 462 0 458 15 c 2,20,-1
 409 174 l 1,21,-1
 121 174 l 1,22,-1
 73 15 l 2,23,24
 68 0 68 0 51 0 c 0,0,1
395 220 m 1,25,-1
 266 647 l 1,26,-1
 134 220 l 1,27,-1
 395 220 l 1,25,-1
265 1025 m 0,28,29
 283 1025 283 1025 299.5 1017.5 c 128,-1,30
 316 1010 316 1010 328.5 997.5 c 128,-1,31
 341 985 341 985 348.5 968 c 128,-1,32
 356 951 356 951 356 933 c 0,33,34
 356 914 356 914 348.5 897 c 128,-1,35
 341 880 341 880 328.5 867 c 128,-1,36
 316 854 316 854 299.5 846.5 c 128,-1,37
 283 839 283 839 265 839 c 0,38,39
 246 839 246 839 229.5 846.5 c 128,-1,40
 213 854 213 854 200.5 867 c 128,-1,41
 188 880 188 880 181 897 c 128,-1,42
 174 914 174 914 174 933 c 0,43,44
 174 951 174 951 181 967.5 c 128,-1,45
 188 984 188 984 200.5 997 c 128,-1,46
 213 1010 213 1010 229.5 1017.5 c 128,-1,47
 246 1025 246 1025 265 1025 c 0,28,29
327 933 m 0,48,49
 327 956 327 956 309 975.5 c 128,-1,50
 291 995 291 995 265 995 c 0,51,52
 252 995 252 995 240.5 989.5 c 128,-1,53
 229 984 229 984 220.5 975 c 128,-1,54
 212 966 212 966 207 955 c 128,-1,55
 202 944 202 944 202 933 c 0,56,57
 202 908 202 908 220.5 887 c 128,-1,58
 239 866 239 866 265 866 c 256,59,60
 291 866 291 866 309 886.5 c 128,-1,61
 327 907 327 907 327 933 c 0,48,49
EndSplineSet
EndChar
StartChar: AE
Encoding: 198 198 2
Width: 697
Flags: W
LayerCount: 2
Back
Fore
SplineSet
414 389 m 1,0,-1
 568 389 l 2,1,2
 578 389 578 389 583.5 382 c 128,-1,3
 589 375 589 375 589 365 c 0,4,5
 589 357 589 357 584 350 c 128,-1,6
 579 343 579 343 568 343 c 2,7,-1
 414 343 l 1,8,-1
 414 48 l 1,9,-1
 650 48 l 2,10,11
 660 48 660 48 665 40.5 c 128,-1,12
 670 33 670 33 670 23 c 0,13,14
 670 15 670 15 665.5 7.5 c 128,-1,15
 661 0 661 0 650 0 c 2,16,-1
 388 0 l 2,17,18
 379 0 379 0 371.5 5.5 c 128,-1,19
 364 11 364 11 364 22 c 2,20,-1
 364 343 l 1,21,-1
 125 343 l 1,22,-1
 125 27 l 2,23,24
 125 16 125 16 121 8 c 128,-1,25
 117 0 117 0 100 0 c 0,26,27
 87 0 87 0 81.5 8 c 128,-1,28
 76 16 76 16 76 27 c 2,29,-1
 76 521 l 2,30,31
 76 578 76 578 91.5 618 c 128,-1,32
 107 658 107 658 134.5 683 c 128,-1,33
 162 708 162 708 198.5 719.5 c 128,-1,34
 235 731 235 731 277 731 c 2,35,-1
 650 731 l 2,36,37
 661 731 661 731 665.5 723.5 c 128,-1,38
 670 716 670 716 670 708 c 0,39,40
 670 698 670 698 665 690.5 c 128,-1,41
 660 683 660 683 650 683 c 2,42,-1
 414 683 l 1,43,-1
 414 389 l 1,0,-1
125 389 m 1,44,-1
 364 389 l 1,45,-1
 364 683 l 1,46,-1
 277 683 l 2,47,48
 205 683 205 683 165 644 c 128,-1,49
 125 605 125 605 125 521 c 2,50,-1
 125 389 l 1,44,-1
EndSplineSet
EndChar
StartChar: Ccedilla
Encoding: 199 199 18
Width: 517
Flags: W
LayerCount: 2
Back
Fore
SplineSet
425 557 m 0,0,1
 424 574 424 574 418 596 c 128,-1,2
 412 618 412 618 396 637.5 c 128,-1,3
 380 657 380 657 351 670 c 128,-1,4
 322 683 322 683 276 683 c 0,5,6
 201 683 201 683 161.5 644 c 128,-1,7
 122 605 122 605 122 521 c 2,8,-1
 122 204 l 2,9,10
 122 119 122 119 161.5 80.5 c 128,-1,11
 201 42 201 42 279 42 c 0,12,13
 326 42 326 42 353.5 55 c 128,-1,14
 381 68 381 68 396 87 c 128,-1,15
 411 106 411 106 416.5 128 c 128,-1,16
 422 150 422 150 425 169 c 0,17,18
 426 178 426 178 431 184 c 128,-1,19
 436 190 436 190 449 190 c 256,20,21
 462 190 462 190 468.5 183.5 c 128,-1,22
 475 177 475 177 475 156 c 0,23,24
 475 128 475 128 464 101.5 c 128,-1,25
 453 75 453 75 432 53 c 128,-1,26
 411 31 411 31 380 16 c 128,-1,27
 349 1 349 1 309 -3 c 1,28,-1
 294 -63 l 1,29,30
 345 -65 345 -65 367 -86.5 c 128,-1,31
 389 -108 389 -108 389 -134 c 0,32,33
 389 -162 389 -162 367.5 -185 c 128,-1,34
 346 -208 346 -208 304 -208 c 0,35,36
 295 -208 295 -208 282 -206.5 c 128,-1,37
 269 -205 269 -205 257 -202 c 128,-1,38
 245 -199 245 -199 236.5 -194.5 c 128,-1,39
 228 -190 228 -190 228 -184 c 0,40,41
 228 -179 228 -179 232 -171 c 128,-1,42
 236 -163 236 -163 242 -163 c 0,43,44
 247 -163 247 -163 260 -169.5 c 128,-1,45
 273 -176 273 -176 298 -176 c 0,46,47
 328 -176 328 -176 340 -164 c 128,-1,48
 352 -152 352 -152 352 -136 c 0,49,50
 352 -114 352 -114 334 -104 c 128,-1,51
 316 -94 316 -94 285 -92 c 2,52,-1
 252 -90 l 1,53,-1
 273 -6 l 1,54,55
 232 -6 232 -6 195.5 5.5 c 128,-1,56
 159 17 159 17 131.5 42 c 128,-1,57
 104 67 104 67 88 107 c 128,-1,58
 72 147 72 147 72 204 c 2,59,-1
 72 521 l 2,60,61
 72 578 72 578 88.5 618 c 128,-1,62
 105 658 105 658 132.5 683 c 128,-1,63
 160 708 160 708 197 719.5 c 128,-1,64
 234 731 234 731 276 731 c 0,65,66
 324 731 324 731 361.5 717.5 c 128,-1,67
 399 704 399 704 424 681.5 c 128,-1,68
 449 659 449 659 462 629.5 c 128,-1,69
 475 600 475 600 475 569 c 0,70,71
 475 549 475 549 468.5 542.5 c 128,-1,72
 462 536 462 536 450 536 c 0,73,74
 435 536 435 536 430 542.5 c 128,-1,75
 425 549 425 549 425 557 c 0,0,1
EndSplineSet
EndChar
StartChar: Egrave
Encoding: 200 200 32
Width: 503
Flags: W
LayerCount: 2
Back
Fore
SplineSet
129 389 m 1,0,-1
 288 389 l 2,1,2
 298 389 298 389 303.5 382 c 128,-1,3
 309 375 309 375 309 365 c 0,4,5
 309 357 309 357 304 350 c 128,-1,6
 299 343 299 343 288 343 c 2,7,-1
 129 343 l 1,8,-1
 129 48 l 1,9,-1
 459 48 l 2,10,11
 469 48 469 48 474.5 40.5 c 128,-1,12
 480 33 480 33 480 23 c 0,13,14
 480 15 480 15 475 7.5 c 128,-1,15
 470 0 470 0 459 0 c 2,16,-1
 103 0 l 2,17,18
 94 0 94 0 86.5 5.5 c 128,-1,19
 79 11 79 11 79 22 c 2,20,-1
 79 709 l 2,21,22
 79 720 79 720 86.5 725.5 c 128,-1,23
 94 731 94 731 103 731 c 2,24,-1
 459 731 l 2,25,26
 470 731 470 731 475 723.5 c 128,-1,27
 480 716 480 716 480 708 c 0,28,29
 480 698 480 698 474.5 690.5 c 128,-1,30
 469 683 469 683 459 683 c 2,31,-1
 129 683 l 1,32,-1
 129 389 l 1,0,-1
218 911 m 2,33,34
 207 918 207 918 207 931 c 0,35,36
 207 939 207 939 212.5 946.5 c 128,-1,37
 218 954 218 954 227 954 c 0,38,39
 230 954 230 954 234 952 c 2,40,-1
 341 891 l 2,41,42
 350 887 350 887 350 876 c 0,43,44
 350 867 350 867 343.5 860 c 128,-1,45
 337 853 337 853 328 853 c 0,46,47
 324 853 324 853 318 856 c 2,48,-1
 218 911 l 2,33,34
EndSplineSet
EndChar
StartChar: Eacute
Encoding: 201 201 26
Width: 503
Flags: W
LayerCount: 2
Back
Fore
SplineSet
242 856 m 2,0,1
 237 853 237 853 232 853 c 0,2,3
 223 853 223 853 216.5 860 c 128,-1,4
 210 867 210 867 210 876 c 0,5,6
 210 887 210 887 219 891 c 2,7,-1
 326 952 l 2,8,9
 330 954 330 954 334 954 c 0,10,11
 343 954 343 954 348 946.5 c 128,-1,12
 353 939 353 939 353 931 c 0,13,14
 353 918 353 918 342 911 c 2,15,-1
 242 856 l 2,0,1
129 389 m 1,16,-1
 288 389 l 2,17,18
 298 389 298 389 303.5 382 c 128,-1,19
 309 375 309 375 309 365 c 0,20,21
 309 357 309 357 304 350 c 128,-1,22
 299 343 299 343 288 343 c 2,23,-1
 129 343 l 1,24,-1
 129 48 l 1,25,-1
 459 48 l 2,26,27
 469 48 469 48 474.5 40.5 c 128,-1,28
 480 33 480 33 480 23 c 0,29,30
 480 15 480 15 475 7.5 c 128,-1,31
 470 0 470 0 459 0 c 2,32,-1
 103 0 l 2,33,34
 94 0 94 0 86.5 5.5 c 128,-1,35
 79 11 79 11 79 22 c 2,36,-1
 79 709 l 2,37,38
 79 720 79 720 86.5 725.5 c 128,-1,39
 94 731 94 731 103 731 c 2,40,-1
 459 731 l 2,41,42
 470 731 470 731 475 723.5 c 128,-1,43
 480 716 480 716 480 708 c 0,44,45
 480 698 480 698 474.5 690.5 c 128,-1,46
 469 683 469 683 459 683 c 2,47,-1
 129 683 l 1,48,-1
 129 389 l 1,16,-1
EndSplineSet
EndChar
StartChar: Ecircumflex
Encoding: 202 202 29
Width: 503
Flags: W
LayerCount: 2
Back
Fore
SplineSet
176 856 m 2,0,1
 174 855 174 855 172 854 c 128,-1,2
 170 853 170 853 168 853 c 0,3,4
 160 853 160 853 154 859.5 c 128,-1,5
 148 866 148 866 148 876 c 0,6,7
 148 887 148 887 159 893 c 2,8,-1
 263 949 l 2,9,10
 271 954 271 954 280 954 c 256,11,12
 289 954 289 954 297 949 c 2,13,-1
 401 894 l 2,14,15
 412 888 412 888 412 874 c 0,16,17
 412 866 412 866 406.5 860 c 128,-1,18
 401 854 401 854 393 854 c 0,19,20
 391 854 391 854 388.5 855 c 128,-1,21
 386 856 386 856 384 857 c 2,22,-1
 280 912 l 1,23,-1
 176 856 l 2,0,1
129 389 m 1,24,-1
 288 389 l 2,25,26
 298 389 298 389 303.5 382 c 128,-1,27
 309 375 309 375 309 365 c 0,28,29
 309 357 309 357 304 350 c 128,-1,30
 299 343 299 343 288 343 c 2,31,-1
 129 343 l 1,32,-1
 129 48 l 1,33,-1
 459 48 l 2,34,35
 469 48 469 48 474.5 40.5 c 128,-1,36
 480 33 480 33 480 23 c 0,37,38
 480 15 480 15 475 7.5 c 128,-1,39
 470 0 470 0 459 0 c 2,40,-1
 103 0 l 2,41,42
 94 0 94 0 86.5 5.5 c 128,-1,43
 79 11 79 11 79 22 c 2,44,-1
 79 709 l 2,45,46
 79 720 79 720 86.5 725.5 c 128,-1,47
 94 731 94 731 103 731 c 2,48,-1
 459 731 l 2,49,50
 470 731 470 731 475 723.5 c 128,-1,51
 480 716 480 716 480 708 c 0,52,53
 480 698 480 698 474.5 690.5 c 128,-1,54
 469 683 469 683 459 683 c 2,55,-1
 129 683 l 1,56,-1
 129 389 l 1,24,-1
EndSplineSet
EndChar
StartChar: Edieresis
Encoding: 203 203 30
Width: 503
Flags: W
LayerCount: 2
Back
Fore
SplineSet
221 919 m 256,0,1
 235 919 235 919 244 910 c 128,-1,2
 253 901 253 901 253 887 c 256,3,4
 253 873 253 873 244 863.5 c 128,-1,5
 235 854 235 854 221 854 c 256,6,7
 207 854 207 854 197.5 863.5 c 128,-1,8
 188 873 188 873 188 887 c 256,9,10
 188 901 188 901 197.5 910 c 128,-1,11
 207 919 207 919 221 919 c 256,0,1
338 919 m 0,12,13
 352 919 352 919 361 910 c 128,-1,14
 370 901 370 901 370 887 c 256,15,16
 370 873 370 873 361 863.5 c 128,-1,17
 352 854 352 854 338 854 c 0,18,19
 323 854 323 854 314 863.5 c 128,-1,20
 305 873 305 873 305 887 c 256,21,22
 305 901 305 901 314 910 c 128,-1,23
 323 919 323 919 338 919 c 0,12,13
129 389 m 1,24,-1
 288 389 l 2,25,26
 298 389 298 389 303.5 382 c 128,-1,27
 309 375 309 375 309 365 c 0,28,29
 309 357 309 357 304 350 c 128,-1,30
 299 343 299 343 288 343 c 2,31,-1
 129 343 l 1,32,-1
 129 48 l 1,33,-1
 459 48 l 2,34,35
 469 48 469 48 474.5 40.5 c 128,-1,36
 480 33 480 33 480 23 c 0,37,38
 480 15 480 15 475 7.5 c 128,-1,39
 470 0 470 0 459 0 c 2,40,-1
 103 0 l 2,41,42
 94 0 94 0 86.5 5.5 c 128,-1,43
 79 11 79 11 79 22 c 2,44,-1
 79 709 l 2,45,46
 79 720 79 720 86.5 725.5 c 128,-1,47
 94 731 94 731 103 731 c 2,48,-1
 459 731 l 2,49,50
 470 731 470 731 475 723.5 c 128,-1,51
 480 716 480 716 480 708 c 0,52,53
 480 698 480 698 474.5 690.5 c 128,-1,54
 469 683 469 683 459 683 c 2,55,-1
 129 683 l 1,56,-1
 129 389 l 1,24,-1
EndSplineSet
EndChar
StartChar: Igrave
Encoding: 204 204 54
Width: 208
Flags: W
LayerCount: 2
Back
Fore
SplineSet
79 710 m 2,0,1
 79 721 79 721 87 726 c 128,-1,2
 95 731 95 731 104 731 c 0,3,4
 114 731 114 731 121.5 726 c 128,-1,5
 129 721 129 721 129 710 c 2,6,-1
 129 22 l 2,7,8
 129 11 129 11 121.5 5.5 c 128,-1,9
 114 0 114 0 104 0 c 0,10,11
 95 0 95 0 87 5.5 c 128,-1,12
 79 11 79 11 79 22 c 2,13,-1
 79 710 l 2,0,1
42 911 m 2,14,15
 31 918 31 918 31 931 c 0,16,17
 31 939 31 939 36.5 946.5 c 128,-1,18
 42 954 42 954 51 954 c 0,19,20
 54 954 54 954 58 952 c 2,21,-1
 165 891 l 2,22,23
 174 887 174 887 174 876 c 0,24,25
 174 867 174 867 167.5 860 c 128,-1,26
 161 853 161 853 152 853 c 0,27,28
 148 853 148 853 142 856 c 2,29,-1
 42 911 l 2,14,15
EndSplineSet
EndChar
StartChar: Iacute
Encoding: 205 205 49
Width: 208
Flags: W
LayerCount: 2
Back
Fore
SplineSet
79 710 m 2,0,1
 79 721 79 721 87 726 c 128,-1,2
 95 731 95 731 104 731 c 0,3,4
 114 731 114 731 121.5 726 c 128,-1,5
 129 721 129 721 129 710 c 2,6,-1
 129 22 l 2,7,8
 129 11 129 11 121.5 5.5 c 128,-1,9
 114 0 114 0 104 0 c 0,10,11
 95 0 95 0 87 5.5 c 128,-1,12
 79 11 79 11 79 22 c 2,13,-1
 79 710 l 2,0,1
65 856 m 2,14,15
 60 853 60 853 55 853 c 0,16,17
 46 853 46 853 39.5 860 c 128,-1,18
 33 867 33 867 33 876 c 0,19,20
 33 887 33 887 42 891 c 2,21,-1
 149 952 l 2,22,23
 153 954 153 954 157 954 c 0,24,25
 166 954 166 954 171 946.5 c 128,-1,26
 176 939 176 939 176 931 c 0,27,28
 176 918 176 918 165 911 c 2,29,-1
 65 856 l 2,14,15
EndSplineSet
EndChar
StartChar: Icircumflex
Encoding: 206 206 51
Width: 208
Flags: W
LayerCount: 2
Back
Fore
SplineSet
79 710 m 2,0,1
 79 721 79 721 87 726 c 128,-1,2
 95 731 95 731 104 731 c 0,3,4
 114 731 114 731 121.5 726 c 128,-1,5
 129 721 129 721 129 710 c 2,6,-1
 129 22 l 2,7,8
 129 11 129 11 121.5 5.5 c 128,-1,9
 114 0 114 0 104 0 c 0,10,11
 95 0 95 0 87 5.5 c 128,-1,12
 79 11 79 11 79 22 c 2,13,-1
 79 710 l 2,0,1
1 856 m 2,14,15
 -1 855 -1 855 -3 854 c 128,-1,16
 -5 853 -5 853 -7 853 c 0,17,18
 -15 853 -15 853 -21 859.5 c 128,-1,19
 -27 866 -27 866 -27 876 c 0,20,21
 -27 887 -27 887 -16 893 c 2,22,-1
 88 949 l 2,23,24
 96 954 96 954 105 954 c 256,25,26
 114 954 114 954 122 949 c 2,27,-1
 226 894 l 2,28,29
 237 888 237 888 237 874 c 0,30,31
 237 866 237 866 231.5 860 c 128,-1,32
 226 854 226 854 218 854 c 0,33,34
 216 854 216 854 213.5 855 c 128,-1,35
 211 856 211 856 209 857 c 2,36,-1
 105 912 l 1,37,-1
 1 856 l 2,14,15
EndSplineSet
EndChar
StartChar: Idieresis
Encoding: 207 207 52
Width: 208
Flags: W
LayerCount: 2
Back
Fore
SplineSet
79 710 m 2,0,1
 79 721 79 721 87 726 c 128,-1,2
 95 731 95 731 104 731 c 0,3,4
 114 731 114 731 121.5 726 c 128,-1,5
 129 721 129 721 129 710 c 2,6,-1
 129 22 l 2,7,8
 129 11 129 11 121.5 5.5 c 128,-1,9
 114 0 114 0 104 0 c 0,10,11
 95 0 95 0 87 5.5 c 128,-1,12
 79 11 79 11 79 22 c 2,13,-1
 79 710 l 2,0,1
46 919 m 256,14,15
 60 919 60 919 69 910 c 128,-1,16
 78 901 78 901 78 887 c 256,17,18
 78 873 78 873 69 863.5 c 128,-1,19
 60 854 60 854 46 854 c 256,20,21
 32 854 32 854 22.5 863.5 c 128,-1,22
 13 873 13 873 13 887 c 256,23,24
 13 901 13 901 22.5 910 c 128,-1,25
 32 919 32 919 46 919 c 256,14,15
163 919 m 0,26,27
 177 919 177 919 186 910 c 128,-1,28
 195 901 195 901 195 887 c 256,29,30
 195 873 195 873 186 863.5 c 128,-1,31
 177 854 177 854 163 854 c 0,32,33
 148 854 148 854 139 863.5 c 128,-1,34
 130 873 130 873 130 887 c 256,35,36
 130 901 130 901 139 910 c 128,-1,37
 148 919 148 919 163 919 c 0,26,27
EndSplineSet
EndChar
StartChar: Ntilde
Encoding: 209 209 73
Width: 563
Flags: W
LayerCount: 2
Back
Fore
SplineSet
459 0 m 0,0,1
 448 0 448 0 439 12 c 128,-1,2
 430 24 430 24 423 37 c 2,3,-1
 129 613 l 1,4,-1
 129 22 l 2,5,6
 129 11 129 11 121.5 5.5 c 128,-1,7
 114 0 114 0 104 0 c 0,8,9
 95 0 95 0 87 5.5 c 128,-1,10
 79 11 79 11 79 22 c 2,11,-1
 79 710 l 2,12,13
 79 722 79 722 86.5 726.5 c 128,-1,14
 94 731 94 731 104 731 c 0,15,16
 118 731 118 731 128 717 c 128,-1,17
 138 703 138 703 145 690 c 2,18,-1
 434 119 l 1,19,-1
 434 710 l 2,20,21
 434 721 434 721 442 726 c 128,-1,22
 450 731 450 731 459 731 c 0,23,24
 469 731 469 731 476.5 726 c 128,-1,25
 484 721 484 721 484 710 c 2,26,-1
 484 22 l 2,27,28
 484 11 484 11 476.5 5.5 c 128,-1,29
 469 0 469 0 459 0 c 0,0,1
217 907 m 0,30,31
 201 907 201 907 190 902 c 128,-1,32
 179 897 179 897 171 890.5 c 128,-1,33
 163 884 163 884 157.5 879 c 128,-1,34
 152 874 152 874 146 874 c 0,35,36
 138 874 138 874 134 880.5 c 128,-1,37
 130 887 130 887 130 895 c 0,38,39
 130 907 130 907 139 916.5 c 128,-1,40
 148 926 148 926 161.5 933.5 c 128,-1,41
 175 941 175 941 190.5 945 c 128,-1,42
 206 949 206 949 219 949 c 0,43,44
 238 949 238 949 253 943.5 c 128,-1,45
 268 938 268 938 282.5 931 c 128,-1,46
 297 924 297 924 312.5 918.5 c 128,-1,47
 328 913 328 913 348 913 c 0,48,49
 365 913 365 913 375 918 c 128,-1,50
 385 923 385 923 392 928.5 c 128,-1,51
 399 934 399 934 404 939 c 128,-1,52
 409 944 409 944 415 944 c 0,53,54
 423 944 423 944 427.5 938 c 128,-1,55
 432 932 432 932 432 925 c 0,56,57
 432 911 432 911 423 901 c 128,-1,58
 414 891 414 891 401 884.5 c 128,-1,59
 388 878 388 878 373.5 874.5 c 128,-1,60
 359 871 359 871 348 871 c 0,61,62
 329 871 329 871 314 876.5 c 128,-1,63
 299 882 299 882 284 889 c 128,-1,64
 269 896 269 896 253.5 901.5 c 128,-1,65
 238 907 238 907 217 907 c 0,30,31
EndSplineSet
EndChar
StartChar: Ograve
Encoding: 210 210 80
Width: 547
Flags: W
LayerCount: 2
Back
Fore
SplineSet
273 -6 m 0,0,1
 230 -6 230 -6 193.5 5.5 c 128,-1,2
 157 17 157 17 130 42 c 128,-1,3
 103 67 103 67 87.5 107 c 128,-1,4
 72 147 72 147 72 204 c 2,5,-1
 72 521 l 2,6,7
 72 578 72 578 87.5 618 c 128,-1,8
 103 658 103 658 130 683 c 128,-1,9
 157 708 157 708 193.5 719.5 c 128,-1,10
 230 731 230 731 273 731 c 0,11,12
 315 731 315 731 352 719.5 c 128,-1,13
 389 708 389 708 416.5 683 c 128,-1,14
 444 658 444 658 459.5 618 c 128,-1,15
 475 578 475 578 475 521 c 2,16,-1
 475 204 l 2,17,18
 475 147 475 147 459.5 107 c 128,-1,19
 444 67 444 67 416.5 42 c 128,-1,20
 389 17 389 17 352 5.5 c 128,-1,21
 315 -6 315 -6 273 -6 c 0,0,1
425 521 m 2,22,23
 425 605 425 605 385 644 c 128,-1,24
 345 683 345 683 273 683 c 256,25,26
 201 683 201 683 161.5 644 c 128,-1,27
 122 605 122 605 122 521 c 2,28,-1
 122 204 l 2,29,30
 122 120 122 120 161.5 81 c 128,-1,31
 201 42 201 42 273 42 c 256,32,33
 345 42 345 42 385 81 c 128,-1,34
 425 120 425 120 425 204 c 2,35,-1
 425 521 l 2,22,23
211 911 m 2,36,37
 200 918 200 918 200 931 c 0,38,39
 200 939 200 939 205.5 946.5 c 128,-1,40
 211 954 211 954 220 954 c 0,41,42
 223 954 223 954 227 952 c 2,43,-1
 334 891 l 2,44,45
 343 887 343 887 343 876 c 0,46,47
 343 867 343 867 336.5 860 c 128,-1,48
 330 853 330 853 321 853 c 0,49,50
 317 853 317 853 311 856 c 2,51,-1
 211 911 l 2,36,37
EndSplineSet
EndChar
StartChar: Oacute
Encoding: 211 211 76
Width: 547
Flags: W
LayerCount: 2
Back
Fore
SplineSet
239 856 m 2,0,1
 234 853 234 853 229 853 c 0,2,3
 220 853 220 853 213.5 860 c 128,-1,4
 207 867 207 867 207 876 c 0,5,6
 207 887 207 887 216 891 c 2,7,-1
 323 952 l 2,8,9
 327 954 327 954 331 954 c 0,10,11
 340 954 340 954 345 946.5 c 128,-1,12
 350 939 350 939 350 931 c 0,13,14
 350 918 350 918 339 911 c 2,15,-1
 239 856 l 2,0,1
273 -6 m 0,16,17
 230 -6 230 -6 193.5 5.5 c 128,-1,18
 157 17 157 17 130 42 c 128,-1,19
 103 67 103 67 87.5 107 c 128,-1,20
 72 147 72 147 72 204 c 2,21,-1
 72 521 l 2,22,23
 72 578 72 578 87.5 618 c 128,-1,24
 103 658 103 658 130 683 c 128,-1,25
 157 708 157 708 193.5 719.5 c 128,-1,26
 230 731 230 731 273 731 c 0,27,28
 315 731 315 731 352 719.5 c 128,-1,29
 389 708 389 708 416.5 683 c 128,-1,30
 444 658 444 658 459.5 618 c 128,-1,31
 475 578 475 578 475 521 c 2,32,-1
 475 204 l 2,33,34
 475 147 475 147 459.5 107 c 128,-1,35
 444 67 444 67 416.5 42 c 128,-1,36
 389 17 389 17 352 5.5 c 128,-1,37
 315 -6 315 -6 273 -6 c 0,16,17
425 521 m 2,38,39
 425 605 425 605 385 644 c 128,-1,40
 345 683 345 683 273 683 c 256,41,42
 201 683 201 683 161.5 644 c 128,-1,43
 122 605 122 605 122 521 c 2,44,-1
 122 204 l 2,45,46
 122 120 122 120 161.5 81 c 128,-1,47
 201 42 201 42 273 42 c 256,48,49
 345 42 345 42 385 81 c 128,-1,50
 425 120 425 120 425 204 c 2,51,-1
 425 521 l 2,38,39
EndSplineSet
EndChar
StartChar: Ocircumflex
Encoding: 212 212 78
Width: 547
Flags: W
LayerCount: 2
Back
Fore
SplineSet
169 856 m 2,0,1
 167 855 167 855 165 854 c 128,-1,2
 163 853 163 853 161 853 c 0,3,4
 153 853 153 853 147 859.5 c 128,-1,5
 141 866 141 866 141 876 c 0,6,7
 141 887 141 887 152 893 c 2,8,-1
 256 949 l 2,9,10
 264 954 264 954 273 954 c 256,11,12
 282 954 282 954 290 949 c 2,13,-1
 394 894 l 2,14,15
 405 888 405 888 405 874 c 0,16,17
 405 866 405 866 399.5 860 c 128,-1,18
 394 854 394 854 386 854 c 0,19,20
 384 854 384 854 381.5 855 c 128,-1,21
 379 856 379 856 377 857 c 2,22,-1
 273 912 l 1,23,-1
 169 856 l 2,0,1
273 -6 m 0,24,25
 230 -6 230 -6 193.5 5.5 c 128,-1,26
 157 17 157 17 130 42 c 128,-1,27
 103 67 103 67 87.5 107 c 128,-1,28
 72 147 72 147 72 204 c 2,29,-1
 72 521 l 2,30,31
 72 578 72 578 87.5 618 c 128,-1,32
 103 658 103 658 130 683 c 128,-1,33
 157 708 157 708 193.5 719.5 c 128,-1,34
 230 731 230 731 273 731 c 0,35,36
 315 731 315 731 352 719.5 c 128,-1,37
 389 708 389 708 416.5 683 c 128,-1,38
 444 658 444 658 459.5 618 c 128,-1,39
 475 578 475 578 475 521 c 2,40,-1
 475 204 l 2,41,42
 475 147 475 147 459.5 107 c 128,-1,43
 444 67 444 67 416.5 42 c 128,-1,44
 389 17 389 17 352 5.5 c 128,-1,45
 315 -6 315 -6 273 -6 c 0,24,25
425 521 m 2,46,47
 425 605 425 605 385 644 c 128,-1,48
 345 683 345 683 273 683 c 256,49,50
 201 683 201 683 161.5 644 c 128,-1,51
 122 605 122 605 122 521 c 2,52,-1
 122 204 l 2,53,54
 122 120 122 120 161.5 81 c 128,-1,55
 201 42 201 42 273 42 c 256,56,57
 345 42 345 42 385 81 c 128,-1,58
 425 120 425 120 425 204 c 2,59,-1
 425 521 l 2,46,47
EndSplineSet
EndChar
StartChar: Otilde
Encoding: 213 213 86
Width: 547
Flags: W
LayerCount: 2
Back
Fore
SplineSet
273 -6 m 0,0,1
 230 -6 230 -6 193.5 5.5 c 128,-1,2
 157 17 157 17 130 42 c 128,-1,3
 103 67 103 67 87.5 107 c 128,-1,4
 72 147 72 147 72 204 c 2,5,-1
 72 521 l 2,6,7
 72 578 72 578 87.5 618 c 128,-1,8
 103 658 103 658 130 683 c 128,-1,9
 157 708 157 708 193.5 719.5 c 128,-1,10
 230 731 230 731 273 731 c 0,11,12
 315 731 315 731 352 719.5 c 128,-1,13
 389 708 389 708 416.5 683 c 128,-1,14
 444 658 444 658 459.5 618 c 128,-1,15
 475 578 475 578 475 521 c 2,16,-1
 475 204 l 2,17,18
 475 147 475 147 459.5 107 c 128,-1,19
 444 67 444 67 416.5 42 c 128,-1,20
 389 17 389 17 352 5.5 c 128,-1,21
 315 -6 315 -6 273 -6 c 0,0,1
425 521 m 2,22,23
 425 605 425 605 385 644 c 128,-1,24
 345 683 345 683 273 683 c 256,25,26
 201 683 201 683 161.5 644 c 128,-1,27
 122 605 122 605 122 521 c 2,28,-1
 122 204 l 2,29,30
 122 120 122 120 161.5 81 c 128,-1,31
 201 42 201 42 273 42 c 256,32,33
 345 42 345 42 385 81 c 128,-1,34
 425 120 425 120 425 204 c 2,35,-1
 425 521 l 2,22,23
209 907 m 0,36,37
 193 907 193 907 182 902 c 128,-1,38
 171 897 171 897 163 890.5 c 128,-1,39
 155 884 155 884 149.5 879 c 128,-1,40
 144 874 144 874 138 874 c 0,41,42
 130 874 130 874 126 880.5 c 128,-1,43
 122 887 122 887 122 895 c 0,44,45
 122 907 122 907 131 916.5 c 128,-1,46
 140 926 140 926 153.5 933.5 c 128,-1,47
 167 941 167 941 182.5 945 c 128,-1,48
 198 949 198 949 211 949 c 0,49,50
 230 949 230 949 245 943.5 c 128,-1,51
 260 938 260 938 274.5 931 c 128,-1,52
 289 924 289 924 304.5 918.5 c 128,-1,53
 320 913 320 913 340 913 c 0,54,55
 357 913 357 913 367 918 c 128,-1,56
 377 923 377 923 384 928.5 c 128,-1,57
 391 934 391 934 396 939 c 128,-1,58
 401 944 401 944 407 944 c 0,59,60
 415 944 415 944 419.5 938 c 128,-1,61
 424 932 424 932 424 925 c 0,62,63
 424 911 424 911 415 901 c 128,-1,64
 406 891 406 891 393 884.5 c 128,-1,65
 380 878 380 878 365.5 874.5 c 128,-1,66
 351 871 351 871 340 871 c 0,67,68
 321 871 321 871 306 876.5 c 128,-1,69
 291 882 291 882 276 889 c 128,-1,70
 261 896 261 896 245.5 901.5 c 128,-1,71
 230 907 230 907 209 907 c 0,36,37
EndSplineSet
EndChar
StartChar: Odieresis
Encoding: 214 214 79
Width: 547
Flags: W
LayerCount: 2
Back
Fore
SplineSet
215 919 m 256,0,1
 229 919 229 919 238 910 c 128,-1,2
 247 901 247 901 247 887 c 256,3,4
 247 873 247 873 238 863.5 c 128,-1,5
 229 854 229 854 215 854 c 256,6,7
 201 854 201 854 191.5 863.5 c 128,-1,8
 182 873 182 873 182 887 c 256,9,10
 182 901 182 901 191.5 910 c 128,-1,11
 201 919 201 919 215 919 c 256,0,1
332 919 m 0,12,13
 346 919 346 919 355 910 c 128,-1,14
 364 901 364 901 364 887 c 256,15,16
 364 873 364 873 355 863.5 c 128,-1,17
 346 854 346 854 332 854 c 0,18,19
 317 854 317 854 308 863.5 c 128,-1,20
 299 873 299 873 299 887 c 256,21,22
 299 901 299 901 308 910 c 128,-1,23
 317 919 317 919 332 919 c 0,12,13
273 -6 m 0,24,25
 230 -6 230 -6 193.5 5.5 c 128,-1,26
 157 17 157 17 130 42 c 128,-1,27
 103 67 103 67 87.5 107 c 128,-1,28
 72 147 72 147 72 204 c 2,29,-1
 72 521 l 2,30,31
 72 578 72 578 87.5 618 c 128,-1,32
 103 658 103 658 130 683 c 128,-1,33
 157 708 157 708 193.5 719.5 c 128,-1,34
 230 731 230 731 273 731 c 0,35,36
 315 731 315 731 352 719.5 c 128,-1,37
 389 708 389 708 416.5 683 c 128,-1,38
 444 658 444 658 459.5 618 c 128,-1,39
 475 578 475 578 475 521 c 2,40,-1
 475 204 l 2,41,42
 475 147 475 147 459.5 107 c 128,-1,43
 444 67 444 67 416.5 42 c 128,-1,44
 389 17 389 17 352 5.5 c 128,-1,45
 315 -6 315 -6 273 -6 c 0,24,25
425 521 m 2,46,47
 425 605 425 605 385 644 c 128,-1,48
 345 683 345 683 273 683 c 256,49,50
 201 683 201 683 161.5 644 c 128,-1,51
 122 605 122 605 122 521 c 2,52,-1
 122 204 l 2,53,54
 122 120 122 120 161.5 81 c 128,-1,55
 201 42 201 42 273 42 c 256,56,57
 345 42 345 42 385 81 c 128,-1,58
 425 120 425 120 425 204 c 2,59,-1
 425 521 l 2,46,47
EndSplineSet
EndChar
StartChar: multiply
Encoding: 215 215 279
Width: 395
Flags: W
LayerCount: 2
Back
Fore
SplineSet
333 164 m 0,0,1
 333 156 333 156 326 148 c 128,-1,2
 319 140 319 140 309 140 c 0,3,4
 302 140 302 140 295 146 c 2,5,-1
 197 243 l 1,6,-1
 100 146 l 2,7,8
 92 140 92 140 86 140 c 0,9,10
 77 140 77 140 69.5 147.5 c 128,-1,11
 62 155 62 155 62 164 c 0,12,13
 62 170 62 170 68 178 c 2,14,-1
 167 275 l 1,15,-1
 68 372 l 2,16,17
 63 377 63 377 63 387 c 0,18,19
 63 396 63 396 70 403 c 128,-1,20
 77 410 77 410 86 410 c 0,21,22
 94 410 94 410 101 405 c 2,23,-1
 197 307 l 1,24,-1
 294 405 l 2,25,26
 301 410 301 410 309 410 c 0,27,28
 318 410 318 410 325 403 c 128,-1,29
 332 396 332 396 332 387 c 0,30,31
 332 377 332 377 327 372 c 2,32,-1
 228 275 l 1,33,-1
 327 178 l 2,34,35
 333 170 333 170 333 164 c 0,0,1
EndSplineSet
EndChar
StartChar: Oslash
Encoding: 216 216 84
Width: 547
Flags: W
LayerCount: 2
Back
Fore
SplineSet
465 768 m 0,0,1
 473 768 473 768 480.5 762 c 128,-1,2
 488 756 488 756 488 745 c 0,3,4
 488 739 488 739 484 734 c 2,5,-1
 442 652 l 1,6,7
 458 628 458 628 466.5 595.5 c 128,-1,8
 475 563 475 563 475 521 c 2,9,-1
 475 204 l 2,10,11
 475 147 475 147 459.5 107 c 128,-1,12
 444 67 444 67 416.5 42 c 128,-1,13
 389 17 389 17 352 5.5 c 128,-1,14
 315 -6 315 -6 273 -6 c 0,15,16
 229 -6 229 -6 192 5.5 c 128,-1,17
 155 17 155 17 128 43 c 1,18,-1
 101 -10 l 2,19,20
 94 -23 94 -23 80 -23 c 0,21,22
 72 -23 72 -23 66 -17.5 c 128,-1,23
 60 -12 60 -12 60 -4 c 0,24,25
 60 3 60 3 62 7 c 2,26,-1
 99 80 l 1,27,28
 86 103 86 103 79 134 c 128,-1,29
 72 165 72 165 72 204 c 2,30,-1
 72 521 l 2,31,32
 72 578 72 578 87.5 618 c 128,-1,33
 103 658 103 658 130 683 c 128,-1,34
 157 708 157 708 193.5 719.5 c 128,-1,35
 230 731 230 731 273 731 c 0,36,37
 314 731 314 731 349 720.5 c 128,-1,38
 384 710 384 710 411 687 c 1,39,-1
 448 758 l 2,40,41
 453 768 453 768 465 768 c 0,0,1
425 521 m 2,42,43
 425 564 425 564 413 596 c 1,44,-1
 153 91 l 1,45,46
 192 42 192 42 273 42 c 0,47,48
 345 42 345 42 385 81 c 128,-1,49
 425 120 425 120 425 204 c 2,50,-1
 425 521 l 2,42,43
122 204 m 2,51,52
 122 169 122 169 130 139 c 1,53,-1
 387 640 l 1,54,55
 348 683 348 683 273 683 c 0,56,57
 201 683 201 683 161.5 644 c 128,-1,58
 122 605 122 605 122 521 c 2,59,-1
 122 204 l 2,51,52
EndSplineSet
EndChar
StartChar: Uacute
Encoding: 218 218 105
Width: 557
Flags: W
LayerCount: 2
Back
Fore
SplineSet
242 856 m 2,0,1
 237 853 237 853 232 853 c 0,2,3
 223 853 223 853 216.5 860 c 128,-1,4
 210 867 210 867 210 876 c 0,5,6
 210 887 210 887 219 891 c 2,7,-1
 326 952 l 2,8,9
 330 954 330 954 334 954 c 0,10,11
 343 954 343 954 348 946.5 c 128,-1,12
 353 939 353 939 353 931 c 0,13,14
 353 918 353 918 342 911 c 2,15,-1
 242 856 l 2,0,1
431 710 m 2,16,17
 431 721 431 721 438.5 726 c 128,-1,18
 446 731 446 731 456 731 c 0,19,20
 465 731 465 731 473 726 c 128,-1,21
 481 721 481 721 481 710 c 2,22,-1
 481 204 l 2,23,24
 481 147 481 147 465.5 107 c 128,-1,25
 450 67 450 67 422.5 42 c 128,-1,26
 395 17 395 17 358 5.5 c 128,-1,27
 321 -6 321 -6 278 -6 c 256,28,29
 235 -6 235 -6 198 5.5 c 128,-1,30
 161 17 161 17 134 42 c 128,-1,31
 107 67 107 67 91.5 107 c 128,-1,32
 76 147 76 147 76 204 c 2,33,-1
 76 710 l 2,34,35
 76 721 76 721 84 726 c 128,-1,36
 92 731 92 731 101 731 c 0,37,38
 111 731 111 731 118.5 726 c 128,-1,39
 126 721 126 721 126 710 c 2,40,-1
 126 204 l 2,41,42
 126 120 126 120 166 81 c 128,-1,43
 206 42 206 42 278 42 c 256,44,45
 350 42 350 42 390.5 81 c 128,-1,46
 431 120 431 120 431 204 c 2,47,-1
 431 710 l 2,16,17
EndSplineSet
EndChar
StartChar: Ucircumflex
Encoding: 219 219 107
Width: 557
Flags: W
LayerCount: 2
Back
Fore
SplineSet
173 856 m 2,0,1
 171 855 171 855 169 854 c 128,-1,2
 167 853 167 853 165 853 c 0,3,4
 157 853 157 853 151 859.5 c 128,-1,5
 145 866 145 866 145 876 c 0,6,7
 145 887 145 887 156 893 c 2,8,-1
 260 949 l 2,9,10
 268 954 268 954 277 954 c 256,11,12
 286 954 286 954 294 949 c 2,13,-1
 398 894 l 2,14,15
 409 888 409 888 409 874 c 0,16,17
 409 866 409 866 403.5 860 c 128,-1,18
 398 854 398 854 390 854 c 0,19,20
 388 854 388 854 385.5 855 c 128,-1,21
 383 856 383 856 381 857 c 2,22,-1
 277 912 l 1,23,-1
 173 856 l 2,0,1
431 710 m 2,24,25
 431 721 431 721 438.5 726 c 128,-1,26
 446 731 446 731 456 731 c 0,27,28
 465 731 465 731 473 726 c 128,-1,29
 481 721 481 721 481 710 c 2,30,-1
 481 204 l 2,31,32
 481 147 481 147 465.5 107 c 128,-1,33
 450 67 450 67 422.5 42 c 128,-1,34
 395 17 395 17 358 5.5 c 128,-1,35
 321 -6 321 -6 278 -6 c 256,36,37
 235 -6 235 -6 198 5.5 c 128,-1,38
 161 17 161 17 134 42 c 128,-1,39
 107 67 107 67 91.5 107 c 128,-1,40
 76 147 76 147 76 204 c 2,41,-1
 76 710 l 2,42,43
 76 721 76 721 84 726 c 128,-1,44
 92 731 92 731 101 731 c 0,45,46
 111 731 111 731 118.5 726 c 128,-1,47
 126 721 126 721 126 710 c 2,48,-1
 126 204 l 2,49,50
 126 120 126 120 166 81 c 128,-1,51
 206 42 206 42 278 42 c 256,52,53
 350 42 350 42 390.5 81 c 128,-1,54
 431 120 431 120 431 204 c 2,55,-1
 431 710 l 2,24,25
EndSplineSet
EndChar
StartChar: Udieresis
Encoding: 220 220 108
Width: 557
Flags: W
LayerCount: 2
Back
Fore
SplineSet
220 919 m 256,0,1
 234 919 234 919 243 910 c 128,-1,2
 252 901 252 901 252 887 c 256,3,4
 252 873 252 873 243 863.5 c 128,-1,5
 234 854 234 854 220 854 c 256,6,7
 206 854 206 854 196.5 863.5 c 128,-1,8
 187 873 187 873 187 887 c 256,9,10
 187 901 187 901 196.5 910 c 128,-1,11
 206 919 206 919 220 919 c 256,0,1
337 919 m 0,12,13
 351 919 351 919 360 910 c 128,-1,14
 369 901 369 901 369 887 c 256,15,16
 369 873 369 873 360 863.5 c 128,-1,17
 351 854 351 854 337 854 c 0,18,19
 322 854 322 854 313 863.5 c 128,-1,20
 304 873 304 873 304 887 c 256,21,22
 304 901 304 901 313 910 c 128,-1,23
 322 919 322 919 337 919 c 0,12,13
431 710 m 2,24,25
 431 721 431 721 438.5 726 c 128,-1,26
 446 731 446 731 456 731 c 0,27,28
 465 731 465 731 473 726 c 128,-1,29
 481 721 481 721 481 710 c 2,30,-1
 481 204 l 2,31,32
 481 147 481 147 465.5 107 c 128,-1,33
 450 67 450 67 422.5 42 c 128,-1,34
 395 17 395 17 358 5.5 c 128,-1,35
 321 -6 321 -6 278 -6 c 256,36,37
 235 -6 235 -6 198 5.5 c 128,-1,38
 161 17 161 17 134 42 c 128,-1,39
 107 67 107 67 91.5 107 c 128,-1,40
 76 147 76 147 76 204 c 2,41,-1
 76 710 l 2,42,43
 76 721 76 721 84 726 c 128,-1,44
 92 731 92 731 101 731 c 0,45,46
 111 731 111 731 118.5 726 c 128,-1,47
 126 721 126 721 126 710 c 2,48,-1
 126 204 l 2,49,50
 126 120 126 120 166 81 c 128,-1,51
 206 42 206 42 278 42 c 256,52,53
 350 42 350 42 390.5 81 c 128,-1,54
 431 120 431 120 431 204 c 2,55,-1
 431 710 l 2,24,25
EndSplineSet
EndChar
StartChar: Yacute
Encoding: 221 221 123
Width: 520
Flags: W
LayerCount: 2
Back
Fore
SplineSet
235 276 m 2,0,1
 235 279 235 279 233 283 c 2,2,-1
 26 690 l 2,3,4
 21 703 21 703 21 709 c 0,5,6
 21 720 21 720 28.5 725.5 c 128,-1,7
 36 731 36 731 45 731 c 0,8,9
 57 731 57 731 68 713 c 2,10,-1
 260 328 l 1,11,-1
 453 713 l 2,12,13
 462 731 462 731 476 731 c 0,14,15
 484 731 484 731 491 725.5 c 128,-1,16
 498 720 498 720 498 709 c 0,17,18
 498 706 498 706 497.5 701 c 128,-1,19
 497 696 497 696 494 690 c 2,20,-1
 286 283 l 2,21,22
 285 281 285 281 285 276 c 2,23,-1
 285 22 l 2,24,25
 285 11 285 11 277 5.5 c 128,-1,26
 269 0 269 0 260 0 c 0,27,28
 250 0 250 0 242.5 5.5 c 128,-1,29
 235 11 235 11 235 22 c 2,30,-1
 235 276 l 2,0,1
222 856 m 2,31,32
 217 853 217 853 212 853 c 0,33,34
 203 853 203 853 196.5 860 c 128,-1,35
 190 867 190 867 190 876 c 0,36,37
 190 887 190 887 199 891 c 2,38,-1
 306 952 l 2,39,40
 310 954 310 954 314 954 c 0,41,42
 323 954 323 954 328 946.5 c 128,-1,43
 333 939 333 939 333 931 c 0,44,45
 333 918 333 918 322 911 c 2,46,-1
 222 856 l 2,31,32
EndSplineSet
EndChar
StartChar: Thorn
Encoding: 222 222 103
Width: 488
Flags: W
LayerCount: 2
Back
Fore
SplineSet
103 733 m 0,0,1
 128 733 128 733 128 712 c 2,2,-1
 128 543 l 1,3,4
 145 573 145 573 180 596 c 128,-1,5
 215 619 215 619 269 619 c 0,6,7
 302 619 302 619 333 609 c 128,-1,8
 364 599 364 599 388 579.5 c 128,-1,9
 412 560 412 560 426.5 531.5 c 128,-1,10
 441 503 441 503 441 466 c 2,11,-1
 441 288 l 2,12,13
 441 251 441 251 426.5 222.5 c 128,-1,14
 412 194 412 194 388 174.5 c 128,-1,15
 364 155 364 155 334 144.5 c 128,-1,16
 304 134 304 134 274 134 c 0,17,18
 251 134 251 134 227.5 139.5 c 128,-1,19
 204 145 204 145 184.5 155.5 c 128,-1,20
 165 166 165 166 150 180.5 c 128,-1,21
 135 195 135 195 128 212 c 1,22,-1
 128 22 l 2,23,24
 128 14 128 14 121 7 c 128,-1,25
 114 0 114 0 104 0 c 0,26,27
 93 0 93 0 86 7 c 128,-1,28
 79 14 79 14 79 22 c 2,29,-1
 79 713 l 2,30,31
 79 723 79 723 86 728 c 128,-1,32
 93 733 93 733 103 733 c 0,0,1
392 466 m 2,33,34
 392 493 392 493 381 512.5 c 128,-1,35
 370 532 370 532 352.5 545.5 c 128,-1,36
 335 559 335 559 312 565.5 c 128,-1,37
 289 572 289 572 265 572 c 0,38,39
 238 572 238 572 213 564.5 c 128,-1,40
 188 557 188 557 169.5 543 c 128,-1,41
 151 529 151 529 139.5 509.5 c 128,-1,42
 128 490 128 490 128 466 c 2,43,-1
 128 287 l 2,44,45
 128 268 128 268 138.5 249 c 128,-1,46
 149 230 149 230 167 214.5 c 128,-1,47
 185 199 185 199 210 189.5 c 128,-1,48
 235 180 235 180 265 180 c 0,49,50
 289 180 289 180 311.5 186.5 c 128,-1,51
 334 193 334 193 352 206.5 c 128,-1,52
 370 220 370 220 381 240.5 c 128,-1,53
 392 261 392 261 392 288 c 2,54,-1
 392 466 l 2,33,34
EndSplineSet
EndChar
StartChar: germandbls
Encoding: 223 223 234
Width: 539
Flags: W
LayerCount: 2
Back
Fore
SplineSet
324 -20 m 0,0,1
 313 -20 313 -20 295 -18.5 c 128,-1,2
 277 -17 277 -17 259.5 -12.5 c 128,-1,3
 242 -8 242 -8 229 -0.5 c 128,-1,4
 216 7 216 7 216 20 c 0,5,6
 216 28 216 28 221 35.5 c 128,-1,7
 226 43 226 43 234 43 c 0,8,9
 239 43 239 43 245.5 40 c 128,-1,10
 252 37 252 37 261.5 33 c 128,-1,11
 271 29 271 29 284 26 c 128,-1,12
 297 23 297 23 315 23 c 0,13,14
 377 23 377 23 414 66.5 c 128,-1,15
 451 110 451 110 451 196 c 2,16,-1
 451 215 l 2,17,18
 451 242 451 242 442.5 271 c 128,-1,19
 434 300 434 300 415.5 324.5 c 128,-1,20
 397 349 397 349 366 366 c 128,-1,21
 335 383 335 383 290 387 c 0,22,23
 275 389 275 389 266.5 392 c 128,-1,24
 258 395 258 395 258 409 c 256,25,26
 258 423 258 423 267.5 427 c 128,-1,27
 277 431 277 431 291 432 c 0,28,29
 320 433 320 433 338 448.5 c 128,-1,30
 356 464 356 464 365.5 485 c 128,-1,31
 375 506 375 506 378 530 c 128,-1,32
 381 554 381 554 381 573 c 0,33,34
 381 642 381 642 352.5 681.5 c 128,-1,35
 324 721 324 721 265 721 c 0,36,37
 233 721 233 721 211.5 709.5 c 128,-1,38
 190 698 190 698 177 679.5 c 128,-1,39
 164 661 164 661 158.5 636.5 c 128,-1,40
 153 612 153 612 153 586 c 2,41,-1
 153 21 l 2,42,43
 153 11 153 11 145.5 5.5 c 128,-1,44
 138 0 138 0 127 0 c 0,45,46
 117 0 117 0 110.5 5.5 c 128,-1,47
 104 11 104 11 104 21 c 2,48,-1
 104 429 l 1,49,-1
 27 429 l 2,50,51
 18 429 18 429 12.5 435 c 128,-1,52
 7 441 7 441 7 450 c 256,53,54
 7 459 7 459 12.5 465.5 c 128,-1,55
 18 472 18 472 27 472 c 2,56,-1
 104 472 l 1,57,-1
 104 586 l 2,58,59
 104 623 104 623 113 656 c 128,-1,60
 122 689 122 689 141 714 c 128,-1,61
 160 739 160 739 190 753.5 c 128,-1,62
 220 768 220 768 263 768 c 0,63,64
 298 768 298 768 328 757.5 c 128,-1,65
 358 747 358 747 380 724.5 c 128,-1,66
 402 702 402 702 414.5 668 c 128,-1,67
 427 634 427 634 427 588 c 0,68,69
 427 561 427 561 422.5 533.5 c 128,-1,70
 418 506 418 506 409 482.5 c 128,-1,71
 400 459 400 459 386.5 441 c 128,-1,72
 373 423 373 423 355 415 c 1,73,74
 380 410 380 410 405 393 c 128,-1,75
 430 376 430 376 450.5 349.5 c 128,-1,76
 471 323 471 323 484 289 c 128,-1,77
 497 255 497 255 497 216 c 2,78,-1
 497 198 l 2,79,80
 497 142 497 142 482 101 c 128,-1,81
 467 60 467 60 443 33 c 128,-1,82
 419 6 419 6 388 -7 c 128,-1,83
 357 -20 357 -20 324 -20 c 0,0,1
EndSplineSet
EndChar
StartChar: aacute
Encoding: 225 225 133
Width: 431
Flags: W
LayerCount: 2
Back
Fore
SplineSet
196 478 m 0,0,1
 244 478 244 478 277 462 c 128,-1,2
 310 446 310 446 330.5 419 c 128,-1,3
 351 392 351 392 360 357.5 c 128,-1,4
 369 323 369 323 369 286 c 2,5,-1
 369 22 l 2,6,7
 369 13 369 13 362.5 6.5 c 128,-1,8
 356 0 356 0 345 0 c 0,9,10
 335 0 335 0 328 6.5 c 128,-1,11
 321 13 321 13 321 22 c 2,12,-1
 321 70 l 1,13,14
 295 41 295 41 258 17.5 c 128,-1,15
 221 -6 221 -6 171 -6 c 0,16,17
 142 -6 142 -6 117 2 c 128,-1,18
 92 10 92 10 73 26.5 c 128,-1,19
 54 43 54 43 43.5 67.5 c 128,-1,20
 33 92 33 92 33 126 c 0,21,22
 33 166 33 166 50 192 c 128,-1,23
 67 218 67 218 97.5 233 c 128,-1,24
 128 248 128 248 171 254 c 128,-1,25
 214 260 214 260 266 260 c 2,26,-1
 320 260 l 1,27,-1
 320 286 l 2,28,29
 320 312 320 312 313 338.5 c 128,-1,30
 306 365 306 365 291 386 c 128,-1,31
 276 407 276 407 252 420 c 128,-1,32
 228 433 228 433 194 433 c 0,33,34
 170 433 170 433 152.5 428.5 c 128,-1,35
 135 424 135 424 122.5 419 c 128,-1,36
 110 414 110 414 102 409.5 c 128,-1,37
 94 405 94 405 89 405 c 0,38,39
 78 405 78 405 72.5 414.5 c 128,-1,40
 67 424 67 424 67 432 c 256,41,42
 67 440 67 440 78.5 448.5 c 128,-1,43
 90 457 90 457 108.5 463.5 c 128,-1,44
 127 470 127 470 150 474 c 128,-1,45
 173 478 173 478 196 478 c 0,0,1
320 220 m 1,46,-1
 271 220 l 2,47,48
 234 220 234 220 200 217.5 c 128,-1,49
 166 215 166 215 139.5 205.5 c 128,-1,50
 113 196 113 196 97.5 177.5 c 128,-1,51
 82 159 82 159 82 128 c 0,52,53
 82 81 82 81 109.5 59.5 c 128,-1,54
 137 38 137 38 178 38 c 0,55,56
 204 38 204 38 229.5 48.5 c 128,-1,57
 255 59 255 59 275 75.5 c 128,-1,58
 295 92 295 92 307.5 110.5 c 128,-1,59
 320 129 320 129 320 146 c 2,60,-1
 320 220 l 1,46,-1
164 599 m 2,61,62
 159 596 159 596 154 596 c 0,63,64
 145 596 145 596 138.5 603 c 128,-1,65
 132 610 132 610 132 619 c 0,66,67
 132 630 132 630 141 634 c 2,68,-1
 248 695 l 2,69,70
 252 697 252 697 256 697 c 0,71,72
 265 697 265 697 270 689.5 c 128,-1,73
 275 682 275 682 275 674 c 0,74,75
 275 661 275 661 264 654 c 2,76,-1
 164 599 l 2,61,62
EndSplineSet
EndChar
StartChar: acircumflex
Encoding: 226 226 135
Width: 431
Flags: W
LayerCount: 2
Back
Fore
SplineSet
100 599 m 2,0,1
 98 598 98 598 96 597 c 128,-1,2
 94 596 94 596 92 596 c 0,3,4
 84 596 84 596 78 602.5 c 128,-1,5
 72 609 72 609 72 619 c 0,6,7
 72 630 72 630 83 636 c 2,8,-1
 187 692 l 2,9,10
 195 697 195 697 204 697 c 256,11,12
 213 697 213 697 221 692 c 2,13,-1
 325 637 l 2,14,15
 336 631 336 631 336 617 c 0,16,17
 336 609 336 609 330.5 603 c 128,-1,18
 325 597 325 597 317 597 c 0,19,20
 315 597 315 597 312.5 598 c 128,-1,21
 310 599 310 599 308 600 c 2,22,-1
 204 655 l 1,23,-1
 100 599 l 2,0,1
196 478 m 0,24,25
 244 478 244 478 277 462 c 128,-1,26
 310 446 310 446 330.5 419 c 128,-1,27
 351 392 351 392 360 357.5 c 128,-1,28
 369 323 369 323 369 286 c 2,29,-1
 369 22 l 2,30,31
 369 13 369 13 362.5 6.5 c 128,-1,32
 356 0 356 0 345 0 c 0,33,34
 335 0 335 0 328 6.5 c 128,-1,35
 321 13 321 13 321 22 c 2,36,-1
 321 70 l 1,37,38
 295 41 295 41 258 17.5 c 128,-1,39
 221 -6 221 -6 171 -6 c 0,40,41
 142 -6 142 -6 117 2 c 128,-1,42
 92 10 92 10 73 26.5 c 128,-1,43
 54 43 54 43 43.5 67.5 c 128,-1,44
 33 92 33 92 33 126 c 0,45,46
 33 166 33 166 50 192 c 128,-1,47
 67 218 67 218 97.5 233 c 128,-1,48
 128 248 128 248 171 254 c 128,-1,49
 214 260 214 260 266 260 c 2,50,-1
 320 260 l 1,51,-1
 320 286 l 2,52,53
 320 312 320 312 313 338.5 c 128,-1,54
 306 365 306 365 291 386 c 128,-1,55
 276 407 276 407 252 420 c 128,-1,56
 228 433 228 433 194 433 c 0,57,58
 170 433 170 433 152.5 428.5 c 128,-1,59
 135 424 135 424 122.5 419 c 128,-1,60
 110 414 110 414 102 409.5 c 128,-1,61
 94 405 94 405 89 405 c 0,62,63
 78 405 78 405 72.5 414.5 c 128,-1,64
 67 424 67 424 67 432 c 256,65,66
 67 440 67 440 78.5 448.5 c 128,-1,67
 90 457 90 457 108.5 463.5 c 128,-1,68
 127 470 127 470 150 474 c 128,-1,69
 173 478 173 478 196 478 c 0,24,25
320 220 m 1,70,-1
 271 220 l 2,71,72
 234 220 234 220 200 217.5 c 128,-1,73
 166 215 166 215 139.5 205.5 c 128,-1,74
 113 196 113 196 97.5 177.5 c 128,-1,75
 82 159 82 159 82 128 c 0,76,77
 82 81 82 81 109.5 59.5 c 128,-1,78
 137 38 137 38 178 38 c 0,79,80
 204 38 204 38 229.5 48.5 c 128,-1,81
 255 59 255 59 275 75.5 c 128,-1,82
 295 92 295 92 307.5 110.5 c 128,-1,83
 320 129 320 129 320 146 c 2,84,-1
 320 220 l 1,70,-1
EndSplineSet
EndChar
StartChar: atilde
Encoding: 227 227 154
Width: 431
Flags: W
LayerCount: 2
Back
Fore
SplineSet
196 478 m 0,0,1
 244 478 244 478 277 462 c 128,-1,2
 310 446 310 446 330.5 419 c 128,-1,3
 351 392 351 392 360 357.5 c 128,-1,4
 369 323 369 323 369 286 c 2,5,-1
 369 22 l 2,6,7
 369 13 369 13 362.5 6.5 c 128,-1,8
 356 0 356 0 345 0 c 0,9,10
 335 0 335 0 328 6.5 c 128,-1,11
 321 13 321 13 321 22 c 2,12,-1
 321 70 l 1,13,14
 295 41 295 41 258 17.5 c 128,-1,15
 221 -6 221 -6 171 -6 c 0,16,17
 142 -6 142 -6 117 2 c 128,-1,18
 92 10 92 10 73 26.5 c 128,-1,19
 54 43 54 43 43.5 67.5 c 128,-1,20
 33 92 33 92 33 126 c 0,21,22
 33 166 33 166 50 192 c 128,-1,23
 67 218 67 218 97.5 233 c 128,-1,24
 128 248 128 248 171 254 c 128,-1,25
 214 260 214 260 266 260 c 2,26,-1
 320 260 l 1,27,-1
 320 286 l 2,28,29
 320 312 320 312 313 338.5 c 128,-1,30
 306 365 306 365 291 386 c 128,-1,31
 276 407 276 407 252 420 c 128,-1,32
 228 433 228 433 194 433 c 0,33,34
 170 433 170 433 152.5 428.5 c 128,-1,35
 135 424 135 424 122.5 419 c 128,-1,36
 110 414 110 414 102 409.5 c 128,-1,37
 94 405 94 405 89 405 c 0,38,39
 78 405 78 405 72.5 414.5 c 128,-1,40
 67 424 67 424 67 432 c 256,41,42
 67 440 67 440 78.5 448.5 c 128,-1,43
 90 457 90 457 108.5 463.5 c 128,-1,44
 127 470 127 470 150 474 c 128,-1,45
 173 478 173 478 196 478 c 0,0,1
320 220 m 1,46,-1
 271 220 l 2,47,48
 234 220 234 220 200 217.5 c 128,-1,49
 166 215 166 215 139.5 205.5 c 128,-1,50
 113 196 113 196 97.5 177.5 c 128,-1,51
 82 159 82 159 82 128 c 0,52,53
 82 81 82 81 109.5 59.5 c 128,-1,54
 137 38 137 38 178 38 c 0,55,56
 204 38 204 38 229.5 48.5 c 128,-1,57
 255 59 255 59 275 75.5 c 128,-1,58
 295 92 295 92 307.5 110.5 c 128,-1,59
 320 129 320 129 320 146 c 2,60,-1
 320 220 l 1,46,-1
137 650 m 0,61,62
 121 650 121 650 110 645 c 128,-1,63
 99 640 99 640 91 633.5 c 128,-1,64
 83 627 83 627 77.5 622 c 128,-1,65
 72 617 72 617 66 617 c 0,66,67
 58 617 58 617 54 623.5 c 128,-1,68
 50 630 50 630 50 638 c 0,69,70
 50 650 50 650 59 659.5 c 128,-1,71
 68 669 68 669 81.5 676.5 c 128,-1,72
 95 684 95 684 110.5 688 c 128,-1,73
 126 692 126 692 139 692 c 0,74,75
 158 692 158 692 173 686.5 c 128,-1,76
 188 681 188 681 202.5 674 c 128,-1,77
 217 667 217 667 232.5 661.5 c 128,-1,78
 248 656 248 656 268 656 c 0,79,80
 285 656 285 656 295 661 c 128,-1,81
 305 666 305 666 312 671.5 c 128,-1,82
 319 677 319 677 324 682 c 128,-1,83
 329 687 329 687 335 687 c 0,84,85
 343 687 343 687 347.5 681 c 128,-1,86
 352 675 352 675 352 668 c 0,87,88
 352 654 352 654 343 644 c 128,-1,89
 334 634 334 634 321 627.5 c 128,-1,90
 308 621 308 621 293.5 617.5 c 128,-1,91
 279 614 279 614 268 614 c 0,92,93
 249 614 249 614 234 619.5 c 128,-1,94
 219 625 219 625 204 632 c 128,-1,95
 189 639 189 639 173.5 644.5 c 128,-1,96
 158 650 158 650 137 650 c 0,61,62
EndSplineSet
EndChar
StartChar: adieresis
Encoding: 228 228 137
Width: 431
Flags: W
LayerCount: 2
Back
Fore
SplineSet
143 662 m 256,0,1
 157 662 157 662 166 653 c 128,-1,2
 175 644 175 644 175 630 c 256,3,4
 175 616 175 616 166 606.5 c 128,-1,5
 157 597 157 597 143 597 c 256,6,7
 129 597 129 597 119.5 606.5 c 128,-1,8
 110 616 110 616 110 630 c 256,9,10
 110 644 110 644 119.5 653 c 128,-1,11
 129 662 129 662 143 662 c 256,0,1
260 662 m 0,12,13
 274 662 274 662 283 653 c 128,-1,14
 292 644 292 644 292 630 c 256,15,16
 292 616 292 616 283 606.5 c 128,-1,17
 274 597 274 597 260 597 c 0,18,19
 245 597 245 597 236 606.5 c 128,-1,20
 227 616 227 616 227 630 c 256,21,22
 227 644 227 644 236 653 c 128,-1,23
 245 662 245 662 260 662 c 0,12,13
196 478 m 0,24,25
 244 478 244 478 277 462 c 128,-1,26
 310 446 310 446 330.5 419 c 128,-1,27
 351 392 351 392 360 357.5 c 128,-1,28
 369 323 369 323 369 286 c 2,29,-1
 369 22 l 2,30,31
 369 13 369 13 362.5 6.5 c 128,-1,32
 356 0 356 0 345 0 c 0,33,34
 335 0 335 0 328 6.5 c 128,-1,35
 321 13 321 13 321 22 c 2,36,-1
 321 70 l 1,37,38
 295 41 295 41 258 17.5 c 128,-1,39
 221 -6 221 -6 171 -6 c 0,40,41
 142 -6 142 -6 117 2 c 128,-1,42
 92 10 92 10 73 26.5 c 128,-1,43
 54 43 54 43 43.5 67.5 c 128,-1,44
 33 92 33 92 33 126 c 0,45,46
 33 166 33 166 50 192 c 128,-1,47
 67 218 67 218 97.5 233 c 128,-1,48
 128 248 128 248 171 254 c 128,-1,49
 214 260 214 260 266 260 c 2,50,-1
 320 260 l 1,51,-1
 320 286 l 2,52,53
 320 312 320 312 313 338.5 c 128,-1,54
 306 365 306 365 291 386 c 128,-1,55
 276 407 276 407 252 420 c 128,-1,56
 228 433 228 433 194 433 c 0,57,58
 170 433 170 433 152.5 428.5 c 128,-1,59
 135 424 135 424 122.5 419 c 128,-1,60
 110 414 110 414 102 409.5 c 128,-1,61
 94 405 94 405 89 405 c 0,62,63
 78 405 78 405 72.5 414.5 c 128,-1,64
 67 424 67 424 67 432 c 256,65,66
 67 440 67 440 78.5 448.5 c 128,-1,67
 90 457 90 457 108.5 463.5 c 128,-1,68
 127 470 127 470 150 474 c 128,-1,69
 173 478 173 478 196 478 c 0,24,25
320 220 m 1,70,-1
 271 220 l 2,71,72
 234 220 234 220 200 217.5 c 128,-1,73
 166 215 166 215 139.5 205.5 c 128,-1,74
 113 196 113 196 97.5 177.5 c 128,-1,75
 82 159 82 159 82 128 c 0,76,77
 82 81 82 81 109.5 59.5 c 128,-1,78
 137 38 137 38 178 38 c 0,79,80
 204 38 204 38 229.5 48.5 c 128,-1,81
 255 59 255 59 275 75.5 c 128,-1,82
 295 92 295 92 307.5 110.5 c 128,-1,83
 320 129 320 129 320 146 c 2,84,-1
 320 220 l 1,70,-1
EndSplineSet
EndChar
StartChar: aring
Encoding: 229 229 145
Width: 431
Flags: W
LayerCount: 2
Back
Fore
SplineSet
196 478 m 0,0,1
 244 478 244 478 277 462 c 128,-1,2
 310 446 310 446 330.5 419 c 128,-1,3
 351 392 351 392 360 357.5 c 128,-1,4
 369 323 369 323 369 286 c 2,5,-1
 369 22 l 2,6,7
 369 13 369 13 362.5 6.5 c 128,-1,8
 356 0 356 0 345 0 c 0,9,10
 335 0 335 0 328 6.5 c 128,-1,11
 321 13 321 13 321 22 c 2,12,-1
 321 70 l 1,13,14
 295 41 295 41 258 17.5 c 128,-1,15
 221 -6 221 -6 171 -6 c 0,16,17
 142 -6 142 -6 117 2 c 128,-1,18
 92 10 92 10 73 26.5 c 128,-1,19
 54 43 54 43 43.5 67.5 c 128,-1,20
 33 92 33 92 33 126 c 0,21,22
 33 166 33 166 50 192 c 128,-1,23
 67 218 67 218 97.5 233 c 128,-1,24
 128 248 128 248 171 254 c 128,-1,25
 214 260 214 260 266 260 c 2,26,-1
 320 260 l 1,27,-1
 320 286 l 2,28,29
 320 312 320 312 313 338.5 c 128,-1,30
 306 365 306 365 291 386 c 128,-1,31
 276 407 276 407 252 420 c 128,-1,32
 228 433 228 433 194 433 c 0,33,34
 170 433 170 433 152.5 428.5 c 128,-1,35
 135 424 135 424 122.5 419 c 128,-1,36
 110 414 110 414 102 409.5 c 128,-1,37
 94 405 94 405 89 405 c 0,38,39
 78 405 78 405 72.5 414.5 c 128,-1,40
 67 424 67 424 67 432 c 256,41,42
 67 440 67 440 78.5 448.5 c 128,-1,43
 90 457 90 457 108.5 463.5 c 128,-1,44
 127 470 127 470 150 474 c 128,-1,45
 173 478 173 478 196 478 c 0,0,1
320 220 m 1,46,-1
 271 220 l 2,47,48
 234 220 234 220 200 217.5 c 128,-1,49
 166 215 166 215 139.5 205.5 c 128,-1,50
 113 196 113 196 97.5 177.5 c 128,-1,51
 82 159 82 159 82 128 c 0,52,53
 82 81 82 81 109.5 59.5 c 128,-1,54
 137 38 137 38 178 38 c 0,55,56
 204 38 204 38 229.5 48.5 c 128,-1,57
 255 59 255 59 275 75.5 c 128,-1,58
 295 92 295 92 307.5 110.5 c 128,-1,59
 320 129 320 129 320 146 c 2,60,-1
 320 220 l 1,46,-1
202 768 m 0,61,62
 220 768 220 768 236.5 760.5 c 128,-1,63
 253 753 253 753 265.5 740.5 c 128,-1,64
 278 728 278 728 285.5 711 c 128,-1,65
 293 694 293 694 293 676 c 0,66,67
 293 657 293 657 285.5 640 c 128,-1,68
 278 623 278 623 265.5 610 c 128,-1,69
 253 597 253 597 236.5 589.5 c 128,-1,70
 220 582 220 582 202 582 c 0,71,72
 183 582 183 582 166.5 589.5 c 128,-1,73
 150 597 150 597 137.5 610 c 128,-1,74
 125 623 125 623 118 640 c 128,-1,75
 111 657 111 657 111 676 c 0,76,77
 111 694 111 694 118 710.5 c 128,-1,78
 125 727 125 727 137.5 740 c 128,-1,79
 150 753 150 753 166.5 760.5 c 128,-1,80
 183 768 183 768 202 768 c 0,61,62
264 676 m 0,81,82
 264 699 264 699 246 718.5 c 128,-1,83
 228 738 228 738 202 738 c 0,84,85
 189 738 189 738 177.5 732.5 c 128,-1,86
 166 727 166 727 157.5 718 c 128,-1,87
 149 709 149 709 144 698 c 128,-1,88
 139 687 139 687 139 676 c 0,89,90
 139 651 139 651 157.5 630 c 128,-1,91
 176 609 176 609 202 609 c 256,92,93
 228 609 228 609 246 629.5 c 128,-1,94
 264 650 264 650 264 676 c 0,81,82
EndSplineSet
EndChar
StartChar: ae
Encoding: 230 230 138
Width: 723
Flags: W
LayerCount: 2
Back
Fore
SplineSet
503 478 m 0,0,1
 533 478 533 478 565 467.5 c 128,-1,2
 597 457 597 457 624 434 c 128,-1,3
 651 411 651 411 668 374 c 128,-1,4
 685 337 685 337 685 285 c 0,5,6
 685 264 685 264 681.5 251 c 128,-1,7
 678 238 678 238 668.5 231.5 c 128,-1,8
 659 225 659 225 642.5 222.5 c 128,-1,9
 626 220 626 220 601 220 c 2,10,-1
 371 220 l 1,11,-1
 371 178 l 2,12,13
 371 146 371 146 383 120 c 128,-1,14
 395 94 395 94 416 76 c 128,-1,15
 437 58 437 58 465.5 48.5 c 128,-1,16
 494 39 494 39 528 39 c 0,17,18
 558 39 558 39 577.5 45 c 128,-1,19
 597 51 597 51 610.5 58.5 c 128,-1,20
 624 66 624 66 632.5 72.5 c 128,-1,21
 641 79 641 79 649 79 c 256,22,23
 657 79 657 79 664 72 c 128,-1,24
 671 65 671 65 671 55 c 0,25,26
 671 44 671 44 657 33 c 128,-1,27
 643 22 643 22 620.5 13.5 c 128,-1,28
 598 5 598 5 571 -0.5 c 128,-1,29
 544 -6 544 -6 517 -6 c 0,30,31
 461 -6 461 -6 413.5 20 c 128,-1,32
 366 46 366 46 342 96 c 1,33,34
 310 40 310 40 263 17 c 128,-1,35
 216 -6 216 -6 172 -6 c 0,36,37
 144 -6 144 -6 118.5 2 c 128,-1,38
 93 10 93 10 74 26 c 128,-1,39
 55 42 55 42 44 67 c 128,-1,40
 33 92 33 92 33 125 c 0,41,42
 33 165 33 165 49.5 191.5 c 128,-1,43
 66 218 66 218 96.5 233 c 128,-1,44
 127 248 127 248 169.5 254 c 128,-1,45
 212 260 212 260 264 260 c 2,46,-1
 318 260 l 1,47,-1
 318 287 l 2,48,49
 318 314 318 314 311 340 c 128,-1,50
 304 366 304 366 289 387 c 128,-1,51
 274 408 274 408 249.5 421 c 128,-1,52
 225 434 225 434 190 434 c 0,53,54
 167 434 167 434 150 429.5 c 128,-1,55
 133 425 133 425 120.5 420 c 128,-1,56
 108 415 108 415 99.5 410.5 c 128,-1,57
 91 406 91 406 86 406 c 0,58,59
 77 406 77 406 71 415.5 c 128,-1,60
 65 425 65 425 65 433 c 256,61,62
 65 441 65 441 76.5 449.5 c 128,-1,63
 88 458 88 458 106.5 464.5 c 128,-1,64
 125 471 125 471 148 475 c 128,-1,65
 171 479 171 479 195 479 c 0,66,67
 256 479 256 479 293 451.5 c 128,-1,68
 330 424 330 424 347 382 c 1,69,70
 370 424 370 424 411 451 c 128,-1,71
 452 478 452 478 503 478 c 0,0,1
582 261 m 2,72,73
 618 261 618 261 627.5 268 c 128,-1,74
 637 275 637 275 637 295 c 0,75,76
 637 322 637 322 627.5 347 c 128,-1,77
 618 372 618 372 600.5 391.5 c 128,-1,78
 583 411 583 411 558.5 422.5 c 128,-1,79
 534 434 534 434 504 434 c 0,80,81
 475 434 475 434 451 423.5 c 128,-1,82
 427 413 427 413 409 395 c 128,-1,83
 391 377 391 377 381 353.5 c 128,-1,84
 371 330 371 330 371 303 c 2,85,-1
 371 261 l 1,86,-1
 582 261 l 2,72,73
318 220 m 1,87,-1
 269 220 l 2,88,89
 231 220 231 220 197.5 217.5 c 128,-1,90
 164 215 164 215 138 205 c 128,-1,91
 112 195 112 195 97 176.5 c 128,-1,92
 82 158 82 158 82 126 c 0,93,94
 82 81 82 81 109.5 59.5 c 128,-1,95
 137 38 137 38 177 38 c 0,96,97
 206 38 206 38 231.5 49 c 128,-1,98
 257 60 257 60 276.5 76 c 128,-1,99
 296 92 296 92 307 111 c 128,-1,100
 318 130 318 130 318 146 c 2,101,-1
 318 220 l 1,87,-1
EndSplineSet
EndChar
StartChar: ccedilla
Encoding: 231 231 171
Width: 406
Flags: W
LayerCount: 2
Back
Fore
SplineSet
378 56 m 0,0,1
 378 47 378 47 369.5 37 c 128,-1,2
 361 27 361 27 344.5 18 c 128,-1,3
 328 9 328 9 304.5 2.5 c 128,-1,4
 281 -4 281 -4 252 -5 c 1,5,-1
 238 -63 l 1,6,7
 289 -65 289 -65 311 -86.5 c 128,-1,8
 333 -108 333 -108 333 -134 c 0,9,10
 333 -162 333 -162 311.5 -185 c 128,-1,11
 290 -208 290 -208 248 -208 c 0,12,13
 239 -208 239 -208 226 -206.5 c 128,-1,14
 213 -205 213 -205 201 -202 c 128,-1,15
 189 -199 189 -199 180.5 -194.5 c 128,-1,16
 172 -190 172 -190 172 -184 c 0,17,18
 172 -179 172 -179 176 -171 c 128,-1,19
 180 -163 180 -163 186 -163 c 0,20,21
 191 -163 191 -163 204 -169.5 c 128,-1,22
 217 -176 217 -176 242 -176 c 0,23,24
 272 -176 272 -176 284 -164 c 128,-1,25
 296 -152 296 -152 296 -136 c 0,26,27
 296 -114 296 -114 278 -104 c 128,-1,28
 260 -94 260 -94 229 -92 c 2,29,-1
 196 -90 l 1,30,-1
 217 -5 l 1,31,32
 174 -2 174 -2 142.5 12.5 c 128,-1,33
 111 27 111 27 90 51.5 c 128,-1,34
 69 76 69 76 59 108.5 c 128,-1,35
 49 141 49 141 49 179 c 2,36,-1
 49 293 l 2,37,38
 49 332 49 332 60 366 c 128,-1,39
 71 400 71 400 94.5 424.5 c 128,-1,40
 118 449 118 449 153.5 463.5 c 128,-1,41
 189 478 189 478 237 478 c 0,42,43
 268 478 268 478 293 471.5 c 128,-1,44
 318 465 318 465 335.5 456 c 128,-1,45
 353 447 353 447 362.5 436.5 c 128,-1,46
 372 426 372 426 372 417 c 256,47,48
 372 408 372 408 365.5 400.5 c 128,-1,49
 359 393 359 393 349 393 c 0,50,51
 343 393 343 393 335.5 399 c 128,-1,52
 328 405 328 405 316 412.5 c 128,-1,53
 304 420 304 420 285 426 c 128,-1,54
 266 432 266 432 238 432 c 0,55,56
 169 432 169 432 133.5 395 c 128,-1,57
 98 358 98 358 98 293 c 2,58,-1
 98 179 l 2,59,60
 98 114 98 114 133.5 77 c 128,-1,61
 169 40 169 40 239 40 c 0,62,63
 269 40 269 40 288.5 46 c 128,-1,64
 308 52 308 52 320.5 59.5 c 128,-1,65
 333 67 333 67 341 73.5 c 128,-1,66
 349 80 349 80 356 80 c 0,67,68
 365 80 365 80 371.5 72 c 128,-1,69
 378 64 378 64 378 56 c 0,0,1
EndSplineSet
EndChar
StartChar: egrave
Encoding: 232 232 201
Width: 451
Flags: W
LayerCount: 2
Back
Fore
SplineSet
232 478 m 0,0,1
 268 478 268 478 301 464.5 c 128,-1,2
 334 451 334 451 359 427 c 128,-1,3
 384 403 384 403 399 369.5 c 128,-1,4
 414 336 414 336 414 297 c 0,5,6
 414 269 414 269 407 253.5 c 128,-1,7
 400 238 400 238 388 230.5 c 128,-1,8
 376 223 376 223 360.5 221.5 c 128,-1,9
 345 220 345 220 329 220 c 2,10,-1
 97 220 l 1,11,-1
 97 178 l 2,12,13
 97 146 97 146 109 120 c 128,-1,14
 121 94 121 94 142.5 76 c 128,-1,15
 164 58 164 58 193.5 48.5 c 128,-1,16
 223 39 223 39 258 39 c 0,17,18
 289 39 289 39 308.5 45 c 128,-1,19
 328 51 328 51 340.5 58.5 c 128,-1,20
 353 66 353 66 361 72.5 c 128,-1,21
 369 79 369 79 377 79 c 0,22,23
 386 79 386 79 393 71 c 128,-1,24
 400 63 400 63 400 55 c 256,25,26
 400 47 400 47 390 36.5 c 128,-1,27
 380 26 380 26 361.5 16.5 c 128,-1,28
 343 7 343 7 316 0.5 c 128,-1,29
 289 -6 289 -6 256 -6 c 0,30,31
 210 -6 210 -6 172 7.5 c 128,-1,32
 134 21 134 21 106.5 45 c 128,-1,33
 79 69 79 69 63.5 103 c 128,-1,34
 48 137 48 137 48 179 c 2,35,-1
 48 298 l 2,36,37
 48 335 48 335 62.5 367.5 c 128,-1,38
 77 400 77 400 102 424.5 c 128,-1,39
 127 449 127 449 160.5 463.5 c 128,-1,40
 194 478 194 478 232 478 c 0,0,1
310 261 m 2,41,42
 344 261 344 261 355 267.5 c 128,-1,43
 366 274 366 274 366 297 c 0,44,45
 366 322 366 322 356.5 347 c 128,-1,46
 347 372 347 372 329 391 c 128,-1,47
 311 410 311 410 286.5 422 c 128,-1,48
 262 434 262 434 232 434 c 0,49,50
 203 434 203 434 178.5 423.5 c 128,-1,51
 154 413 154 413 136 395 c 128,-1,52
 118 377 118 377 107.5 353 c 128,-1,53
 97 329 97 329 97 302 c 2,54,-1
 97 261 l 1,55,-1
 310 261 l 2,41,42
169 654 m 2,56,57
 158 661 158 661 158 674 c 0,58,59
 158 682 158 682 163.5 689.5 c 128,-1,60
 169 697 169 697 178 697 c 0,61,62
 181 697 181 697 185 695 c 2,63,-1
 292 634 l 2,64,65
 301 630 301 630 301 619 c 0,66,67
 301 610 301 610 294.5 603 c 128,-1,68
 288 596 288 596 279 596 c 0,69,70
 275 596 275 596 269 599 c 2,71,-1
 169 654 l 2,56,57
EndSplineSet
EndChar
StartChar: eacute
Encoding: 233 233 195
Width: 451
Flags: W
LayerCount: 2
Back
Fore
SplineSet
192 599 m 2,0,1
 187 596 187 596 182 596 c 0,2,3
 173 596 173 596 166.5 603 c 128,-1,4
 160 610 160 610 160 619 c 0,5,6
 160 630 160 630 169 634 c 2,7,-1
 276 695 l 2,8,9
 280 697 280 697 284 697 c 0,10,11
 293 697 293 697 298 689.5 c 128,-1,12
 303 682 303 682 303 674 c 0,13,14
 303 661 303 661 292 654 c 2,15,-1
 192 599 l 2,0,1
232 478 m 0,16,17
 268 478 268 478 301 464.5 c 128,-1,18
 334 451 334 451 359 427 c 128,-1,19
 384 403 384 403 399 369.5 c 128,-1,20
 414 336 414 336 414 297 c 0,21,22
 414 269 414 269 407 253.5 c 128,-1,23
 400 238 400 238 388 230.5 c 128,-1,24
 376 223 376 223 360.5 221.5 c 128,-1,25
 345 220 345 220 329 220 c 2,26,-1
 97 220 l 1,27,-1
 97 178 l 2,28,29
 97 146 97 146 109 120 c 128,-1,30
 121 94 121 94 142.5 76 c 128,-1,31
 164 58 164 58 193.5 48.5 c 128,-1,32
 223 39 223 39 258 39 c 0,33,34
 289 39 289 39 308.5 45 c 128,-1,35
 328 51 328 51 340.5 58.5 c 128,-1,36
 353 66 353 66 361 72.5 c 128,-1,37
 369 79 369 79 377 79 c 0,38,39
 386 79 386 79 393 71 c 128,-1,40
 400 63 400 63 400 55 c 256,41,42
 400 47 400 47 390 36.5 c 128,-1,43
 380 26 380 26 361.5 16.5 c 128,-1,44
 343 7 343 7 316 0.5 c 128,-1,45
 289 -6 289 -6 256 -6 c 0,46,47
 210 -6 210 -6 172 7.5 c 128,-1,48
 134 21 134 21 106.5 45 c 128,-1,49
 79 69 79 69 63.5 103 c 128,-1,50
 48 137 48 137 48 179 c 2,51,-1
 48 298 l 2,52,53
 48 335 48 335 62.5 367.5 c 128,-1,54
 77 400 77 400 102 424.5 c 128,-1,55
 127 449 127 449 160.5 463.5 c 128,-1,56
 194 478 194 478 232 478 c 0,16,17
310 261 m 2,57,58
 344 261 344 261 355 267.5 c 128,-1,59
 366 274 366 274 366 297 c 0,60,61
 366 322 366 322 356.5 347 c 128,-1,62
 347 372 347 372 329 391 c 128,-1,63
 311 410 311 410 286.5 422 c 128,-1,64
 262 434 262 434 232 434 c 0,65,66
 203 434 203 434 178.5 423.5 c 128,-1,67
 154 413 154 413 136 395 c 128,-1,68
 118 377 118 377 107.5 353 c 128,-1,69
 97 329 97 329 97 302 c 2,70,-1
 97 261 l 1,71,-1
 310 261 l 2,57,58
EndSplineSet
EndChar
